SplineFontDB: 3.2
FontName: sinhala15m
FullName: sinhala15m
FamilyName: sinhala15m
Weight: Regular
Copyright: Copyright 2022 The Noto Project Authors (https://github.com/notofonts/sinhala)
Version: 2.006
ItalicAngle: 0
UnderlinePosition: -125
UnderlineWidth: 50
Ascent: 800
Descent: 200
InvalidEm: 0
sfntRevision: 0x00020189
LayerCount: 2
Layer: 0 1 "Back" 1
Layer: 1 1 "Fore" 0
XUID: [1021 863 109920625 14062016]
StyleMap: 0x0040
FSType: 0
OS2Version: 4
OS2_WeightWidthSlopeOnly: 0
OS2_UseTypoMetrics: 1
CreationTime: 1461059370
ModificationTime: 1741115129
PfmFamily: 81
TTFWeight: 400
TTFWidth: 5
LineGap: 0
VLineGap: 0
Panose: 0 0 0 0 0 0 0 0 0 0
OS2TypoAscent: 1011
OS2TypoAOffset: 0
OS2TypoDescent: -293
OS2TypoDOffset: 0
OS2TypoLinegap: 0
OS2WinAscent: 1011
OS2WinAOffset: 0
OS2WinDescent: 293
OS2WinDOffset: 0
HheadAscent: 1011
HheadAOffset: 0
HheadDescent: -293
HheadDOffset: 0
OS2SubXSize: 650
OS2SubYSize: 600
OS2SubXOff: 0
OS2SubYOff: 75
OS2SupXSize: 650
OS2SupYSize: 600
OS2SupXOff: 0
OS2SupYOff: 350
OS2StrikeYSize: 50
OS2StrikeYPos: 322
OS2CapHeight: 612
OS2XHeight: 536
OS2Vendor: 'GOOG'
OS2CodePages: 00000093.00000000
OS2UnicodeRanges: 80008003.02002040.00000200.00000000























































































MarkAttachClasses: 3
"MarkClass-1" 514 uvowelsignsinh uuvowelsignsinh rakarsinh karasinh kharasinh garasinh gharasinh ngarasinh nngarasinh carasinh charasinh jarasinh jharasinh nyjarasinh ttarasinh ttharasinh ddarasinh ddharasinh nnarasinh nnddarasinh tarasinh tharasinh dharasinh narasinh parasinh pharasinh barasinh bharasinh marasinh mbarasinh yarasinh varasinh sharasinh ssarasinh sarasinh harasinh farasinh kavarasinh kassarasinh gadharasinh nyacarasinh ttattharasinh tatharasinh tavarasinh dadharasinh davarasinh natharasinh nadharasinh navarasinh
"MarkClass-2" 58 viramasinh ivowelsignsinh iivowelsignsinh rephsinh uni0D81
DEI: 91125


StartChar: exclam.sinh
Encoding: 33 33 3
Width: 973
Flags: W
LayerCount: 2
Fore
SplineSet
481.5 112 m 0,0,1
 465.5 112 465.5 112 456.5 123 c 128,-1,2
 447.5 134 447.5 134 443 161 c 128,-1,3
 438.5 188 438.5 188 437.5 233.5 c 128,-1,4
 436.5 279 436.5 279 436.5 348 c 0,5,6
 436.5 445 436.5 445 437.5 499 c 128,-1,7
 438.5 553 438.5 553 444.5 579 c 128,-1,8
 450.5 605 450.5 605 463 610.5 c 128,-1,9
 475.5 616 475.5 616 498.5 616 c 0,10,11
 510.5 616 510.5 616 517.5 609 c 128,-1,12
 524.5 602 524.5 602 529 579 c 128,-1,13
 533.5 556 533.5 556 535 511 c 128,-1,14
 536.5 466 536.5 466 536.5 389 c 0,15,16
 536.5 249 536.5 249 526.5 180.5 c 128,-1,17
 516.5 112 516.5 112 481.5 112 c 0,0,1
468.5 593 m 0,18,19
 464.5 593 464.5 593 458.5 581 c 128,-1,20
 452.5 569 452.5 569 452.5 544 c 0,21,22
 452.5 531 452.5 531 454 518.5 c 128,-1,23
 455.5 506 455.5 506 462.5 506 c 0,24,25
 468.5 506 468.5 506 470.5 510 c 128,-1,26
 472.5 514 472.5 514 472.5 519.5 c 128,-1,27
 472.5 525 472.5 525 472 532 c 128,-1,28
 471.5 539 471.5 539 471.5 545 c 0,29,30
 472.5 562 472.5 562 474.5 577.5 c 128,-1,31
 476.5 593 476.5 593 468.5 593 c 0,18,19
482.5 -8 m 0,32,33
 463.5 -8 463.5 -8 452 4.5 c 128,-1,34
 440.5 17 440.5 17 440.5 38 c 0,35,36
 440.5 57 440.5 57 450.5 73.5 c 128,-1,37
 460.5 90 460.5 90 482.5 90 c 0,38,39
 505.5 90 505.5 90 517.5 74.5 c 128,-1,40
 529.5 59 529.5 59 529.5 38 c 0,41,42
 529.5 15 529.5 15 516 3.5 c 128,-1,43
 502.5 -8 502.5 -8 482.5 -8 c 0,32,33
464.5 44 m 0,44,45
 465.5 55 465.5 55 469.5 64 c 128,-1,46
 473.5 73 473.5 73 468.5 73 c 0,47,48
 461.5 73 461.5 73 457 58.5 c 128,-1,49
 452.5 44 452.5 44 452.5 33 c 0,50,51
 452.5 23 452.5 23 457.5 23 c 0,52,53
 461.5 23 461.5 23 462.5 30.5 c 128,-1,54
 463.5 38 463.5 38 464.5 44 c 0,44,45
EndSplineSet
EndChar

StartChar: quotedbl.sinh
Encoding: 34 34 4
Width: 973
Flags: W
LayerCount: 2
Fore
SplineSet
442.5 714 m 1,0,-1
 422.5 456 l 1,1,-1
 367.5 456 l 1,2,-1
 347.5 714 l 1,3,-1
 442.5 714 l 1,0,-1
625.5 714 m 1,4,-1
 605.5 456 l 1,5,-1
 550.5 456 l 1,6,-1
 530.5 714 l 1,7,-1
 625.5 714 l 1,4,-1
EndSplineSet
EndChar

StartChar: numbersign.sinh
Encoding: 35 35 5
Width: 973
Flags: W
LayerCount: 2
Fore
SplineSet
500.454101562 108 m 0,0,1
 482.454101562 108 482.454101562 108 475.954101562 120 c 128,-1,2
 469.454101562 132 469.454101562 132 468.454101562 147 c 0,3,4
 467.454101562 164 467.454101562 164 473.954101562 181 c 128,-1,5
 480.454101562 198 480.454101562 198 479.454101562 211 c 0,6,7
 479.454101562 214 479.454101562 214 471.954101562 215 c 128,-1,8
 464.454101562 216 464.454101562 216 462.454101562 216 c 2,9,-1
 431.454101562 216 l 1,10,11
 428.454101562 207 428.454101562 207 422.454101562 192 c 128,-1,12
 416.454101562 177 416.454101562 177 408.454101562 162 c 128,-1,13
 400.454101562 147 400.454101562 147 389.954101562 136.5 c 128,-1,14
 379.454101562 126 379.454101562 126 366.454101562 126 c 0,15,16
 350.454101562 126 350.454101562 126 343.954101562 136 c 128,-1,17
 337.454101562 146 337.454101562 146 336.454101562 160 c 0,18,19
 335.454101562 177 335.454101562 177 339.954101562 187.5 c 128,-1,20
 344.454101562 198 344.454101562 198 343.454101562 214 c 0,21,22
 343.454101562 222 343.454101562 222 333.954101562 222.5 c 128,-1,23
 324.454101562 223 324.454101562 223 312.454101562 225 c 128,-1,24
 300.454101562 227 300.454101562 227 290.454101562 234.5 c 128,-1,25
 280.454101562 242 280.454101562 242 279.454101562 264 c 0,26,27
 279.454101562 276 279.454101562 276 285.454101562 283.5 c 128,-1,28
 291.454101562 291 291.454101562 291 300.454101562 295 c 128,-1,29
 309.454101562 299 309.454101562 299 320.454101562 300.5 c 128,-1,30
 331.454101562 302 331.454101562 302 341.454101562 302 c 0,31,32
 353.454101562 302 353.454101562 302 360.954101562 309.5 c 128,-1,33
 368.454101562 317 368.454101562 317 372.454101562 328 c 128,-1,34
 376.454101562 339 376.454101562 339 378.954101562 351 c 128,-1,35
 381.454101562 363 381.454101562 363 383.454101562 372 c 1,36,37
 375.454101562 372 375.454101562 372 363.454101562 373.5 c 128,-1,38
 351.454101562 375 351.454101562 375 339.954101562 378.5 c 128,-1,39
 328.454101562 382 328.454101562 382 320.454101562 389.5 c 128,-1,40
 312.454101562 397 312.454101562 397 312.454101562 409 c 0,41,42
 311.454101562 435 311.454101562 435 325.954101562 442 c 128,-1,43
 340.454101562 449 340.454101562 449 378.454101562 449 c 0,44,45
 394.454101562 449 394.454101562 449 400.454101562 452.5 c 128,-1,46
 406.454101562 456 406.454101562 456 411.454101562 472 c 0,47,48
 414.454101562 479 414.454101562 479 417.454101562 489.5 c 128,-1,49
 420.454101562 500 420.454101562 500 425.954101562 510 c 128,-1,50
 431.454101562 520 431.454101562 520 440.454101562 527 c 128,-1,51
 449.454101562 534 449.454101562 534 464.454101562 534 c 0,52,53
 484.454101562 534 484.454101562 534 491.954101562 522 c 128,-1,54
 499.454101562 510 499.454101562 510 500.454101562 499 c 0,55,56
 500.454101562 489 500.454101562 489 496.954101562 480.5 c 128,-1,57
 493.454101562 472 493.454101562 472 494.454101562 462 c 0,58,59
 494.454101562 457 494.454101562 457 498.954101562 454.5 c 128,-1,60
 503.454101562 452 503.454101562 452 508.954101562 450.5 c 128,-1,61
 514.454101562 449 514.454101562 449 520.454101562 449 c 128,-1,62
 526.454101562 449 526.454101562 449 529.454101562 449 c 0,63,64
 539.454101562 449 539.454101562 449 545.454101562 461 c 128,-1,65
 551.454101562 473 551.454101562 473 557.454101562 488 c 128,-1,66
 563.454101562 503 563.454101562 503 571.454101562 515 c 128,-1,67
 579.454101562 527 579.454101562 527 594.454101562 527 c 0,68,69
 614.454101562 527 614.454101562 527 623.454101562 511 c 128,-1,70
 632.454101562 495 632.454101562 495 633.454101562 483 c 0,71,72
 633.454101562 475 633.454101562 475 630.454101562 467.5 c 128,-1,73
 627.454101562 460 627.454101562 460 627.454101562 451 c 0,74,75
 627.454101562 444 627.454101562 444 637.954101562 443.5 c 128,-1,76
 648.454101562 443 648.454101562 443 660.454101562 441.5 c 128,-1,77
 672.454101562 440 672.454101562 440 682.454101562 434.5 c 128,-1,78
 692.454101562 429 692.454101562 429 693.454101562 412 c 0,79,80
 694.454101562 398 694.454101562 398 684.454101562 390 c 128,-1,81
 674.454101562 382 674.454101562 382 660.954101562 377.5 c 128,-1,82
 647.454101562 373 647.454101562 373 632.454101562 371.5 c 128,-1,83
 617.454101562 370 617.454101562 370 608.454101562 370 c 1,84,85
 601.454101562 351 601.454101562 351 596.954101562 335 c 128,-1,86
 592.454101562 319 592.454101562 319 585.454101562 299 c 1,87,88
 596.454101562 299 596.454101562 299 608.454101562 299.5 c 128,-1,89
 620.454101562 300 620.454101562 300 630.454101562 297.5 c 128,-1,90
 640.454101562 295 640.454101562 295 646.954101562 288 c 128,-1,91
 653.454101562 281 653.454101562 281 654.454101562 265 c 0,92,93
 655.454101562 251 655.454101562 251 649.454101562 241.5 c 128,-1,94
 643.454101562 232 643.454101562 232 633.454101562 226 c 128,-1,95
 623.454101562 220 623.454101562 220 611.954101562 217.5 c 128,-1,96
 600.454101562 215 600.454101562 215 589.454101562 215 c 2,97,-1
 584.454101562 215 l 1,98,-1
 573.454101562 216 l 1,99,-1
 568.454101562 216 l 1,100,101
 565.454101562 204 565.454101562 204 561.954101562 186 c 128,-1,102
 558.454101562 168 558.454101562 168 551.954101562 150.5 c 128,-1,103
 545.454101562 133 545.454101562 133 533.454101562 120.5 c 128,-1,104
 521.454101562 108 521.454101562 108 500.454101562 108 c 0,0,1
432.454101562 457 m 0,105,106
 435.454101562 457 435.454101562 457 439.454101562 463 c 128,-1,107
 443.454101562 469 443.454101562 469 446.954101562 476.5 c 128,-1,108
 450.454101562 484 450.454101562 484 453.454101562 492 c 128,-1,109
 456.454101562 500 456.454101562 500 456.454101562 503 c 0,110,111
 456.454101562 508 456.454101562 508 451.454101562 508 c 0,112,113
 447.454101562 509 447.454101562 509 442.954101562 504 c 128,-1,114
 438.454101562 499 438.454101562 499 434.954101562 492 c 128,-1,115
 431.454101562 485 431.454101562 485 428.954101562 477.5 c 128,-1,116
 426.454101562 470 426.454101562 470 426.454101562 466 c 0,117,118
 426.454101562 463 426.454101562 463 428.454101562 460 c 128,-1,119
 430.454101562 457 430.454101562 457 432.454101562 457 c 0,105,106
330.454101562 404 m 0,120,121
 335.454101562 404 335.454101562 404 338.454101562 415 c 128,-1,122
 341.454101562 426 341.454101562 426 340.454101562 430 c 0,123,124
 340.454101562 434 340.454101562 434 337.454101562 434 c 0,125,126
 332.454101562 436 332.454101562 436 327.954101562 429 c 128,-1,127
 323.454101562 422 323.454101562 422 324.454101562 416 c 0,128,129
 324.454101562 404 324.454101562 404 330.454101562 404 c 0,120,121
477.454101562 298 m 0,130,131
 488.454101562 298 488.454101562 298 496.454101562 305.5 c 128,-1,132
 504.454101562 313 504.454101562 313 509.454101562 323.5 c 128,-1,133
 514.454101562 334 514.454101562 334 516.454101562 345.5 c 128,-1,134
 518.454101562 357 518.454101562 357 518.454101562 366 c 0,135,136
 518.454101562 369 518.454101562 369 517.454101562 372 c 128,-1,137
 516.454101562 375 516.454101562 375 512.454101562 375 c 0,138,139
 489.454101562 375 489.454101562 375 480.454101562 369 c 128,-1,140
 471.454101562 363 471.454101562 363 463.454101562 342 c 0,141,142
 461.454101562 336 461.454101562 336 456.954101562 323 c 128,-1,143
 452.454101562 310 452.454101562 310 453.454101562 304 c 2,144,-1
 453.454101562 303 l 1,145,146
 458.454101562 300 458.454101562 300 464.954101562 299 c 128,-1,147
 471.454101562 298 471.454101562 298 477.454101562 298 c 0,130,131
312.454101562 279 m 0,148,149
 312.454101562 285 312.454101562 285 305.454101562 285 c 0,150,151
 296.454101562 285 296.454101562 285 293.454101562 273 c 128,-1,152
 290.454101562 261 290.454101562 261 292.454101562 256 c 256,153,154
 294.454101562 251 294.454101562 251 296.454101562 250 c 0,155,156
 298.454101562 250 298.454101562 250 301.454101562 253.5 c 128,-1,157
 304.454101562 257 304.454101562 257 306.954101562 262 c 128,-1,158
 309.454101562 267 309.454101562 267 310.954101562 272 c 128,-1,159
 312.454101562 277 312.454101562 277 312.454101562 279 c 0,148,149
EndSplineSet
EndChar

StartChar: percent.sinh
Encoding: 37 37 6
Width: 973
Flags: W
LayerCount: 2
Fore
SplineSet
349 -6 m 0,0,1
 345 -6 345 -6 337.5 -4 c 128,-1,2
 330 -2 330 -2 323 2 c 128,-1,3
 316 6 316 6 311 11.5 c 128,-1,4
 306 17 306 17 306 23 c 0,5,6
 306 30 306 30 310 46.5 c 128,-1,7
 314 63 314 63 326 93 c 128,-1,8
 338 123 338 123 359.5 168.5 c 128,-1,9
 381 214 381 214 416 280 c 0,10,11
 470 383 470 383 503.5 450 c 128,-1,12
 537 517 537 517 558 556 c 0,13,14
 579 596 579 596 596.5 607.5 c 128,-1,15
 614 619 614 619 627 619 c 0,16,17
 644 619 644 619 650.5 607 c 128,-1,18
 657 595 657 595 656 577.5 c 128,-1,19
 655 560 655 560 649.5 541.5 c 128,-1,20
 644 523 644 523 638 510 c 0,21,22
 624 481 624 481 601 434.5 c 128,-1,23
 578 388 578 388 551.5 335.5 c 128,-1,24
 525 283 525 283 497.5 229 c 128,-1,25
 470 175 470 175 447 130.5 c 128,-1,26
 424 86 424 86 408.5 56 c 128,-1,27
 393 26 393 26 390 22 c 0,28,29
 379 5 379 5 368.5 -0.5 c 128,-1,30
 358 -6 358 -6 349 -6 c 0,0,1
355 393 m 0,31,32
 332 393 332 393 314.5 402.5 c 128,-1,33
 297 412 297 412 285 428 c 128,-1,34
 273 444 273 444 267 465 c 128,-1,35
 261 486 261 486 261 510 c 0,36,37
 261 529 261 529 267.5 548 c 128,-1,38
 274 567 274 567 286 582.5 c 128,-1,39
 298 598 298 598 315 608 c 128,-1,40
 332 618 332 618 353 618 c 0,41,42
 395 618 395 618 419 594.5 c 128,-1,43
 443 571 443 571 443 517 c 0,44,45
 443 490 443 490 436 467.5 c 128,-1,46
 429 445 429 445 417 428.5 c 128,-1,47
 405 412 405 412 389 402.5 c 128,-1,48
 373 393 373 393 355 393 c 0,31,32
355 460 m 0,49,50
 362 460 362 460 367 465.5 c 128,-1,51
 372 471 372 471 375 479.5 c 128,-1,52
 378 488 378 488 379.5 498 c 128,-1,53
 381 508 381 508 381 517 c 0,54,55
 381 534 381 534 374 546 c 128,-1,56
 367 558 367 558 355 558 c 0,57,58
 344 558 344 558 336 543.5 c 128,-1,59
 328 529 328 529 328 512 c 256,60,61
 328 495 328 495 335 477.5 c 128,-1,62
 342 460 342 460 355 460 c 0,49,50
287 512 m 256,63,64
 287 528 287 528 287 535.5 c 128,-1,65
 287 543 287 543 284 543 c 0,66,67
 278 543 278 543 276 530.5 c 128,-1,68
 274 518 274 518 274 514 c 0,69,70
 274 511 274 511 274 505.5 c 128,-1,71
 274 500 274 500 275.5 494.5 c 128,-1,72
 277 489 277 489 279.5 484.5 c 128,-1,73
 282 480 282 480 287 480 c 0,74,75
 291 480 291 480 289 488 c 128,-1,76
 287 496 287 496 287 512 c 256,63,64
312 453 m 0,77,78
 312 464 312 464 303 464 c 0,79,80
 297 464 297 464 297 456 c 0,81,82
 297 454 297 454 299.5 450 c 128,-1,83
 302 446 302 446 305 446 c 0,84,85
 312 446 312 446 312 453 c 0,77,78
624 -6 m 0,86,87
 601 -6 601 -6 583.5 3.5 c 128,-1,88
 566 13 566 13 554 29 c 128,-1,89
 542 45 542 45 536 66 c 128,-1,90
 530 87 530 87 530 111 c 0,91,92
 530 130 530 130 536.5 149 c 128,-1,93
 543 168 543 168 555 183.5 c 128,-1,94
 567 199 567 199 584 209 c 128,-1,95
 601 219 601 219 622 219 c 0,96,97
 664 219 664 219 688 195.5 c 128,-1,98
 712 172 712 172 712 118 c 0,99,100
 712 91 712 91 705 68.5 c 128,-1,101
 698 46 698 46 686 29.5 c 128,-1,102
 674 13 674 13 658 3.5 c 128,-1,103
 642 -6 642 -6 624 -6 c 0,86,87
624 61 m 0,104,105
 631 61 631 61 636 66.5 c 128,-1,106
 641 72 641 72 644 80.5 c 128,-1,107
 647 89 647 89 648.5 99 c 128,-1,108
 650 109 650 109 650 118 c 0,109,110
 650 135 650 135 643 147 c 128,-1,111
 636 159 636 159 624 159 c 0,112,113
 613 159 613 159 605 144.5 c 128,-1,114
 597 130 597 130 597 113 c 256,115,116
 597 96 597 96 604 78.5 c 128,-1,117
 611 61 611 61 624 61 c 0,104,105
556 113 m 256,118,119
 556 129 556 129 556 136.5 c 128,-1,120
 556 144 556 144 553 144 c 0,121,122
 547 144 547 144 545 131.5 c 128,-1,123
 543 119 543 119 543 115 c 0,124,125
 543 112 543 112 543 106.5 c 128,-1,126
 543 101 543 101 544.5 95.5 c 128,-1,127
 546 90 546 90 548.5 85.5 c 128,-1,128
 551 81 551 81 556 81 c 0,129,130
 560 81 560 81 558 89 c 128,-1,131
 556 97 556 97 556 113 c 256,118,119
347 82 m 0,132,133
 342 87 342 87 336.5 82 c 128,-1,134
 331 77 331 77 328 69 c 256,135,136
 325 61 325 61 322 50 c 128,-1,137
 319 39 319 39 319 34 c 0,138,139
 320 23 320 23 323.5 23 c 128,-1,140
 327 23 327 23 334 40 c 0,141,142
 339 52 339 52 344 66 c 128,-1,143
 349 80 349 80 347 82 c 0,132,133
581 54 m 0,144,145
 581 65 581 65 572 65 c 0,146,147
 566 65 566 65 566 57 c 0,148,149
 566 55 566 55 568.5 51 c 128,-1,150
 571 47 571 47 574 47 c 0,151,152
 581 47 581 47 581 54 c 0,144,145
EndSplineSet
EndChar

StartChar: quotesingle.sinh
Encoding: 39 39 7
Width: 973
Flags: W
LayerCount: 2
Fore
SplineSet
534 714 m 1,0,-1
 514 456 l 1,1,-1
 459 456 l 1,2,-1
 439 714 l 1,3,-1
 534 714 l 1,0,-1
EndSplineSet
EndChar

StartChar: parenleft.sinh
Encoding: 40 40 8
Width: 973
Flags: W
LayerCount: 2
Fore
SplineSet
551 -72 m 0,0,1
 497 -51 497 -51 460.5 -13 c 128,-1,2
 424 25 424 25 401.5 71.5 c 128,-1,3
 379 118 379 118 369 169.5 c 128,-1,4
 359 221 359 221 359 269 c 0,5,6
 359 315 359 315 367.5 363 c 128,-1,7
 376 411 376 411 391.5 456 c 128,-1,8
 407 501 407 501 430 540.5 c 128,-1,9
 453 580 453 580 481 609 c 0,10,11
 508 636 508 636 533 654 c 128,-1,12
 558 672 558 672 578 672 c 0,13,14
 593 672 593 672 602 660 c 128,-1,15
 611 648 611 648 611 636 c 0,16,17
 611 628 611 628 598.5 617 c 128,-1,18
 586 606 586 606 563 582 c 0,19,20
 533 550 533 550 513 512 c 128,-1,21
 493 474 493 474 481 433.5 c 128,-1,22
 469 393 469 393 464.5 351.5 c 128,-1,23
 460 310 460 310 460 272 c 256,24,25
 460 234 460 234 466 192.5 c 128,-1,26
 472 151 472 151 486 113 c 128,-1,27
 500 75 500 75 523 43.5 c 128,-1,28
 546 12 546 12 580 -7 c 0,29,30
 597 -16 597 -16 605.5 -22.5 c 128,-1,31
 614 -29 614 -29 614 -43 c 0,32,33
 614 -56 614 -56 601 -66 c 128,-1,34
 588 -76 588 -76 571 -76 c 0,35,36
 560 -76 560 -76 551 -72 c 0,0,1
537 620 m 0,37,38
 542 625 542 625 548 630.5 c 128,-1,39
 554 636 554 636 547 636 c 0,40,41
 539 636 539 636 528.5 628.5 c 128,-1,42
 518 621 518 621 508 611 c 128,-1,43
 498 601 498 601 491.5 590.5 c 128,-1,44
 485 580 485 580 485 574 c 0,45,46
 485 569 485 569 489 569 c 0,47,48
 494 569 494 569 498.5 575.5 c 128,-1,49
 503 582 503 582 506 587 c 0,50,51
 510 594 510 594 517 601.5 c 128,-1,52
 524 609 524 609 537 620 c 0,37,38
479 547 m 0,53,54
 479 555 479 555 473 555 c 0,55,56
 461 555 461 555 461 547 c 0,57,58
 461 541 461 541 464 539.5 c 128,-1,59
 467 538 467 538 469 538 c 256,60,61
 471 538 471 538 475 539.5 c 128,-1,62
 479 541 479 541 479 547 c 0,53,54
EndSplineSet
EndChar

StartChar: parenright.sinh
Encoding: 41 41 9
Width: 973
Flags: W
LayerCount: 2
Fore
SplineSet
415.5 -93 m 0,0,1
 401.5 -93 401.5 -93 389 -84.5 c 128,-1,2
 376.5 -76 376.5 -76 376.5 -66 c 0,3,4
 376.5 -57 376.5 -57 386.5 -43 c 128,-1,5
 396.5 -29 396.5 -29 411 -8.5 c 128,-1,6
 425.5 12 425.5 12 443 41 c 128,-1,7
 460.5 70 460.5 70 475 108 c 128,-1,8
 489.5 146 489.5 146 499.5 195 c 128,-1,9
 509.5 244 509.5 244 509.5 305 c 0,10,11
 509.5 352 509.5 352 502 398.5 c 128,-1,12
 494.5 445 494.5 445 480.5 484 c 128,-1,13
 466.5 523 466.5 523 447 552 c 128,-1,14
 427.5 581 427.5 581 403.5 594 c 0,15,16
 391.5 601 391.5 601 377.5 610.5 c 128,-1,17
 363.5 620 363.5 620 363.5 638 c 0,18,19
 363.5 653 363.5 653 376.5 662.5 c 128,-1,20
 389.5 672 389.5 672 410.5 672 c 0,21,22
 447.5 672 447.5 672 483.5 646 c 128,-1,23
 519.5 620 519.5 620 547.5 572 c 128,-1,24
 575.5 524 575.5 524 592.5 455.5 c 128,-1,25
 609.5 387 609.5 387 609.5 302 c 0,26,27
 609.5 227 609.5 227 601 175 c 128,-1,28
 592.5 123 592.5 123 577 85 c 128,-1,29
 561.5 47 561.5 47 540.5 17 c 128,-1,30
 519.5 -13 519.5 -13 494.5 -44 c 0,31,32
 471.5 -73 471.5 -73 452 -83 c 128,-1,33
 432.5 -93 432.5 -93 415.5 -93 c 0,0,1
383.5 621 m 0,34,35
 387.5 621 387.5 621 391 628.5 c 128,-1,36
 394.5 636 394.5 636 394.5 644 c 0,37,38
 394.5 657 394.5 657 387.5 657 c 0,39,40
 383.5 657 383.5 657 380 649.5 c 128,-1,41
 376.5 642 376.5 642 376.5 634 c 0,42,43
 376.5 621 376.5 621 383.5 621 c 0,34,35
410.5 -60 m 256,44,45
 415.5 -50 415.5 -50 416 -40 c 128,-1,46
 416.5 -30 416.5 -30 412.5 -29 c 0,47,48
 410.5 -29 410.5 -29 407 -33 c 128,-1,49
 403.5 -37 403.5 -37 400 -43 c 128,-1,50
 396.5 -49 396.5 -49 394 -55 c 128,-1,51
 391.5 -61 391.5 -61 391.5 -64 c 0,52,53
 391.5 -72 391.5 -72 395.5 -73 c 0,54,55
 398.5 -74 398.5 -74 402 -72 c 128,-1,56
 405.5 -70 405.5 -70 410.5 -60 c 256,44,45
EndSplineSet
EndChar

StartChar: asterisk.sinh
Encoding: 42 42 10
Width: 973
Flags: W
LayerCount: 2
Fore
SplineSet
534 760 m 1,0,-1
 514 568 l 1,1,-1
 706 622 l 1,2,-1
 720 530 l 1,3,-1
 536 515 l 1,4,-1
 655 357 l 1,5,-1
 569 310 l 1,6,-1
 484 485 l 1,7,-1
 407 310 l 1,8,-1
 318 357 l 1,9,-1
 435 515 l 1,10,-1
 253 530 l 1,11,-1
 267 622 l 1,12,-1
 457 568 l 1,13,-1
 436 760 l 1,14,-1
 534 760 l 1,0,-1
EndSplineSet
EndChar

StartChar: plus.sinh
Encoding: 43 43 11
Width: 973
Flags: W
LayerCount: 2
Fore
SplineSet
522.5 388 m 1,0,-1
 721.5 388 l 1,1,-1
 721.5 317 l 1,2,-1
 522.5 317 l 1,3,-1
 522.5 111 l 1,4,-1
 450.5 111 l 1,5,-1
 450.5 317 l 1,6,-1
 251.5 317 l 1,7,-1
 251.5 388 l 1,8,-1
 450.5 388 l 1,9,-1
 450.5 595 l 1,10,-1
 522.5 595 l 1,11,-1
 522.5 388 l 1,0,-1
EndSplineSet
EndChar

StartChar: comma.sinh
Encoding: 44 44 12
Width: 973
Flags: W
LayerCount: 2
Fore
SplineSet
562 105 m 1,0,1
 553 70 553 70 539 29 c 128,-1,2
 525 -12 525 -12 508.5 -52.5 c 128,-1,3
 492 -93 492 -93 476 -129 c 1,4,-1
 411 -129 l 1,5,6
 421 -91 421 -91 430.5 -47.5 c 128,-1,7
 440 -4 440 -4 448 38.5 c 128,-1,8
 456 81 456 81 461 116 c 1,9,-1
 555 116 l 1,10,-1
 562 105 l 1,0,1
EndSplineSet
EndChar

StartChar: hyphen.sinh
Encoding: 45 45 13
Width: 973
Flags: W
LayerCount: 2
Fore
SplineSet
365.5 229 m 1,0,-1
 365.5 307 l 1,1,-1
 607.5 307 l 1,2,-1
 607.5 229 l 1,3,-1
 365.5 229 l 1,0,-1
EndSplineSet
EndChar

StartChar: period.sinh
Encoding: 46 46 14
Width: 973
Flags: W
LayerCount: 2
Fore
SplineSet
481 -8 m 0,0,1
 441 -8 441 -8 412.5 20 c 128,-1,2
 384 48 384 48 384 92 c 0,3,4
 384 116 384 116 392.5 137.5 c 128,-1,5
 401 159 401 159 416 174.5 c 128,-1,6
 431 190 431 190 452 199.5 c 128,-1,7
 473 209 473 209 498 209 c 0,8,9
 518 209 518 209 535 200.5 c 128,-1,10
 552 192 552 192 564 177 c 128,-1,11
 576 162 576 162 582.5 143 c 128,-1,12
 589 124 589 124 589 103 c 0,13,14
 589 76 589 76 580.5 55.5 c 128,-1,15
 572 35 572 35 557 21 c 128,-1,16
 542 7 542 7 522.5 -0.5 c 128,-1,17
 503 -8 503 -8 481 -8 c 0,0,1
444 165 m 0,18,19
 451 172 451 172 452.5 177 c 128,-1,20
 454 182 454 182 452 182 c 0,21,22
 444 182 444 182 435 174.5 c 128,-1,23
 426 167 426 167 418.5 156.5 c 128,-1,24
 411 146 411 146 406 134 c 128,-1,25
 401 122 401 122 401 112 c 0,26,27
 401 110 401 110 402.5 104 c 128,-1,28
 404 98 404 98 407 98 c 0,29,30
 411 98 411 98 417 120 c 0,31,32
 420 134 420 134 428 145.5 c 128,-1,33
 436 157 436 157 444 165 c 0,18,19
485 49 m 0,34,35
 497 49 497 49 513.5 63 c 128,-1,36
 530 77 530 77 530 103 c 0,37,38
 530 123 530 123 519.5 136.5 c 128,-1,39
 509 150 509 150 492 150 c 256,40,41
 475 150 475 150 461 136.5 c 128,-1,42
 447 123 447 123 447 99 c 256,43,44
 447 75 447 75 458 62 c 128,-1,45
 469 49 469 49 485 49 c 0,34,35
EndSplineSet
EndChar

StartChar: slash.sinh
Encoding: 47 47 15
Width: 973
Flags: W
LayerCount: 2
Fore
SplineSet
373 -77 m 0,0,1
 369 -77 369 -77 357.5 -75 c 128,-1,2
 346 -73 346 -73 334 -68.5 c 128,-1,3
 322 -64 322 -64 313 -57 c 128,-1,4
 304 -50 304 -50 304 -41 c 0,5,6
 304 -38 304 -38 314.5 -9.5 c 128,-1,7
 325 19 325 19 342 64 c 128,-1,8
 359 109 359 109 381.5 166 c 128,-1,9
 404 223 404 223 428 283 c 128,-1,10
 452 343 452 343 476 402 c 128,-1,11
 500 461 500 461 520 509.5 c 128,-1,12
 540 558 540 558 555 592 c 128,-1,13
 570 626 570 626 576 636 c 0,14,15
 583 647 583 647 594.5 656.5 c 128,-1,16
 606 666 606 666 620 666 c 0,17,18
 627 666 627 666 635.5 663.5 c 128,-1,19
 644 661 644 661 651.5 656.5 c 128,-1,20
 659 652 659 652 664 646 c 128,-1,21
 669 640 669 640 669 633 c 0,22,23
 669 625 669 625 660.5 599.5 c 128,-1,24
 652 574 652 574 640.5 544.5 c 128,-1,25
 629 515 629 515 617.5 487.5 c 128,-1,26
 606 460 606 460 600 447 c 0,27,28
 596 438 596 438 585 410.5 c 128,-1,29
 574 383 574 383 559 344.5 c 128,-1,30
 544 306 544 306 526 259.5 c 128,-1,31
 508 213 508 213 489 166.5 c 128,-1,32
 470 120 470 120 451.5 76 c 128,-1,33
 433 32 433 32 417.5 -2 c 128,-1,34
 402 -36 402 -36 390 -56.5 c 128,-1,35
 378 -77 378 -77 373 -77 c 0,0,1
348 -37 m 0,36,37
 352 -25 352 -25 360 -7 c 128,-1,38
 368 11 368 11 375 27.5 c 128,-1,39
 382 44 382 44 385.5 56.5 c 128,-1,40
 389 69 389 69 384 70 c 0,41,42
 382 71 382 71 377 71 c 128,-1,43
 372 71 372 71 369 66 c 0,44,45
 367 62 367 62 360.5 48.5 c 128,-1,46
 354 35 354 35 347.5 19.5 c 128,-1,47
 341 4 341 4 336 -10.5 c 128,-1,48
 331 -25 331 -25 331 -31 c 0,49,50
 331 -38 331 -38 338.5 -40 c 128,-1,51
 346 -42 346 -42 348 -37 c 0,36,37
EndSplineSet
EndChar

StartChar: zero.sinh
Encoding: 48 48 16
Width: 973
Flags: W
LayerCount: 2
Fore
SplineSet
491.5 -17 m 0,0,1
 439.5 -17 439.5 -17 405 11.5 c 128,-1,2
 370.5 40 370.5 40 349.5 86 c 128,-1,3
 328.5 132 328.5 132 320 190 c 128,-1,4
 311.5 248 311.5 248 311.5 307 c 256,5,6
 311.5 366 311.5 366 321.5 422.5 c 128,-1,7
 331.5 479 331.5 479 354 523 c 128,-1,8
 376.5 567 376.5 567 412.5 594 c 128,-1,9
 448.5 621 448.5 621 499.5 621 c 0,10,11
 533.5 621 533.5 621 558.5 604 c 128,-1,12
 583.5 587 583.5 587 601.5 560 c 128,-1,13
 619.5 533 619.5 533 631.5 499 c 128,-1,14
 643.5 465 643.5 465 650 430 c 128,-1,15
 656.5 395 656.5 395 659 362.5 c 128,-1,16
 661.5 330 661.5 330 661.5 307 c 0,17,18
 661.5 258 661.5 258 652.5 201 c 128,-1,19
 643.5 144 643.5 144 623.5 95.5 c 128,-1,20
 603.5 47 603.5 47 571 15 c 128,-1,21
 538.5 -17 538.5 -17 491.5 -17 c 0,0,1
384.5 512 m 0,22,23
 393.5 531 393.5 531 398.5 540.5 c 128,-1,24
 403.5 550 403.5 550 403.5 553 c 0,25,26
 403.5 555 403.5 555 399.5 555.5 c 128,-1,27
 395.5 556 395.5 556 390.5 549 c 0,28,29
 386.5 543 386.5 543 379.5 530.5 c 128,-1,30
 372.5 518 372.5 518 365.5 504 c 128,-1,31
 358.5 490 358.5 490 354 476.5 c 128,-1,32
 349.5 463 349.5 463 349.5 456 c 256,33,34
 349.5 449 349.5 449 354.5 451 c 128,-1,35
 359.5 453 359.5 453 362.5 460 c 0,36,37
 365.5 468 365.5 468 370.5 481 c 128,-1,38
 375.5 494 375.5 494 384.5 512 c 0,22,23
492.5 59 m 0,39,40
 523.5 59 523.5 59 541.5 85 c 128,-1,41
 559.5 111 559.5 111 569 150 c 128,-1,42
 578.5 189 578.5 189 581 234 c 128,-1,43
 583.5 279 583.5 279 583.5 316 c 0,44,45
 583.5 339 583.5 339 580.5 377 c 128,-1,46
 577.5 415 577.5 415 568.5 451.5 c 128,-1,47
 559.5 488 559.5 488 543 514.5 c 128,-1,48
 526.5 541 526.5 541 499.5 541 c 0,49,50
 477.5 541 477.5 541 461.5 514 c 128,-1,51
 445.5 487 445.5 487 435 449.5 c 128,-1,52
 424.5 412 424.5 412 419.5 371 c 128,-1,53
 414.5 330 414.5 330 414.5 301 c 0,54,55
 414.5 286 414.5 286 414.5 262.5 c 128,-1,56
 414.5 239 414.5 239 416.5 212 c 128,-1,57
 418.5 185 418.5 185 423 158 c 128,-1,58
 427.5 131 427.5 131 436 109 c 128,-1,59
 444.5 87 444.5 87 458.5 73 c 128,-1,60
 472.5 59 472.5 59 492.5 59 c 0,39,40
EndSplineSet
EndChar

StartChar: one.sinh
Encoding: 49 49 17
Width: 973
Flags: W
LayerCount: 2
Fore
SplineSet
536 0 m 0,0,1
 491 0 491 0 491 47 c 2,2,-1
 491 450 l 2,3,4
 491 459 491 459 490.5 466 c 128,-1,5
 490 473 490 473 488 473 c 0,6,7
 485 473 485 473 479 465.5 c 128,-1,8
 473 458 473 458 465.5 448.5 c 128,-1,9
 458 439 458 439 449.5 429.5 c 128,-1,10
 441 420 441 420 433 416 c 0,11,12
 424 411 424 411 414 411 c 0,13,14
 400 411 400 411 391 421 c 128,-1,15
 382 431 382 431 382 445 c 0,16,17
 382 450 382 450 391.5 463 c 128,-1,18
 401 476 401 476 408 486 c 0,19,20
 417 499 417 499 435 521 c 128,-1,21
 453 543 453 543 473.5 564 c 128,-1,22
 494 585 494 585 513 600.5 c 128,-1,23
 532 616 532 616 544 616 c 0,24,25
 550 616 550 616 558 615 c 128,-1,26
 566 614 566 614 573.5 611 c 128,-1,27
 581 608 581 608 586 602.5 c 128,-1,28
 591 597 591 597 591 587 c 2,29,-1
 591 48 l 2,30,31
 591 30 591 30 574.5 15 c 128,-1,32
 558 0 558 0 536 0 c 0,0,1
535 592 m 0,33,34
 540 600 540 600 543 602.5 c 128,-1,35
 546 605 546 605 543 606 c 0,36,37
 541 606 541 606 534 603.5 c 128,-1,38
 527 601 527 601 521 595 c 0,39,40
 516 590 516 590 508 583 c 128,-1,41
 500 576 500 576 500 572 c 0,42,43
 500 569 500 569 504 568 c 0,44,45
 511 567 511 567 521 577 c 128,-1,46
 531 587 531 587 535 592 c 0,33,34
524 45 m 0,47,48
 524 53 524 53 521.5 58 c 128,-1,49
 519 63 519 63 519 74 c 0,50,51
 519 79 519 79 518.5 83 c 128,-1,52
 518 87 518 87 513 87 c 0,53,54
 509 87 509 87 507 77.5 c 128,-1,55
 505 68 505 68 505 57 c 128,-1,56
 505 46 505 46 507 36.5 c 128,-1,57
 509 27 509 27 513 27 c 0,58,59
 524 27 524 27 524 45 c 0,47,48
EndSplineSet
EndChar

StartChar: two.sinh
Encoding: 50 50 18
Width: 973
Flags: W
LayerCount: 2
Fore
SplineSet
355.7109375 0 m 2,0,1
 346.7109375 0 346.7109375 0 339.2109375 13 c 128,-1,2
 331.7109375 26 331.7109375 26 333.7109375 38 c 256,3,4
 335.7109375 50 335.7109375 50 349.7109375 68 c 128,-1,5
 363.7109375 86 363.7109375 86 379.7109375 106 c 0,6,7
 415.7109375 151 415.7109375 151 444.7109375 198.5 c 128,-1,8
 473.7109375 246 473.7109375 246 494.2109375 292.5 c 128,-1,9
 514.7109375 339 514.7109375 339 525.7109375 383 c 128,-1,10
 536.7109375 427 536.7109375 427 536.7109375 465 c 0,11,12
 536.7109375 506 536.7109375 506 519.2109375 520 c 128,-1,13
 501.7109375 534 501.7109375 534 481.7109375 534 c 256,14,15
 461.7109375 534 461.7109375 534 446.7109375 517.5 c 128,-1,16
 431.7109375 501 431.7109375 501 431.7109375 464 c 0,17,18
 431.7109375 442 431.7109375 442 436.7109375 430.5 c 128,-1,19
 441.7109375 419 441.7109375 419 441.7109375 403 c 0,20,21
 441.7109375 389 441.7109375 389 426.2109375 383 c 128,-1,22
 410.7109375 377 410.7109375 377 399.7109375 377 c 0,23,24
 373.7109375 377 373.7109375 377 356.2109375 403.5 c 128,-1,25
 338.7109375 430 338.7109375 430 338.7109375 470 c 0,26,27
 338.7109375 502 338.7109375 502 349.2109375 529.5 c 128,-1,28
 359.7109375 557 359.7109375 557 379.2109375 577.5 c 128,-1,29
 398.7109375 598 398.7109375 598 425.2109375 610 c 128,-1,30
 451.7109375 622 451.7109375 622 482.7109375 622 c 0,31,32
 512.7109375 622 512.7109375 622 541.2109375 610.5 c 128,-1,33
 569.7109375 599 569.7109375 599 591.7109375 577.5 c 128,-1,34
 613.7109375 556 613.7109375 556 626.7109375 525.5 c 128,-1,35
 639.7109375 495 639.7109375 495 639.7109375 457 c 0,36,37
 639.7109375 410 639.7109375 410 627.7109375 364 c 128,-1,38
 615.7109375 318 615.7109375 318 597.2109375 277 c 128,-1,39
 578.7109375 236 578.7109375 236 557.7109375 201 c 128,-1,40
 536.7109375 166 536.7109375 166 518.2109375 140 c 128,-1,41
 499.7109375 114 499.7109375 114 487.7109375 98 c 128,-1,42
 475.7109375 82 475.7109375 82 475.7109375 79 c 1,43,44
 478.7109375 79 478.7109375 79 483.7109375 79 c 2,45,-1
 507.7109375 79 l 1,46,-1
 594.7109375 82 l 2,47,48
 612.7109375 83 612.7109375 83 621.7109375 79 c 128,-1,49
 630.7109375 75 630.7109375 75 634.7109375 67.5 c 128,-1,50
 638.7109375 60 638.7109375 60 638.7109375 50 c 128,-1,51
 638.7109375 40 638.7109375 40 638.7109375 29 c 0,52,53
 638.7109375 11 638.7109375 11 628.2109375 5.5 c 128,-1,54
 617.7109375 0 617.7109375 0 585.7109375 0 c 2,55,-1
 355.7109375 0 l 2,0,1
371.7109375 488 m 0,56,57
 372.7109375 500 372.7109375 500 370.7109375 507 c 128,-1,58
 368.7109375 514 368.7109375 514 365.7109375 513 c 0,59,60
 361.7109375 513 361.7109375 513 359.2109375 506.5 c 128,-1,61
 356.7109375 500 356.7109375 500 356.2109375 491.5 c 128,-1,62
 355.7109375 483 355.7109375 483 355.7109375 475.5 c 128,-1,63
 355.7109375 468 355.7109375 468 355.7109375 465 c 0,64,65
 357.7109375 452 357.7109375 452 360.7109375 450 c 0,66,67
 365.7109375 445 365.7109375 445 367.7109375 452 c 128,-1,68
 369.7109375 459 369.7109375 459 371.7109375 488 c 0,56,57
373.7109375 424 m 0,69,70
 373.7109375 431 373.7109375 431 366.7109375 431 c 256,71,72
 359.7109375 431 359.7109375 431 359.7109375 423 c 0,73,74
 359.7109375 421 359.7109375 421 361.7109375 418 c 128,-1,75
 363.7109375 415 363.7109375 415 365.7109375 415 c 0,76,77
 369.7109375 415 369.7109375 415 371.7109375 418 c 128,-1,78
 373.7109375 421 373.7109375 421 373.7109375 424 c 0,69,70
372.7109375 50 m 0,79,80
 380.7109375 69 380.7109375 69 377.7109375 69 c 0,81,82
 370.7109375 69 370.7109375 69 363.2109375 60 c 128,-1,83
 355.7109375 51 355.7109375 51 355.7109375 40 c 0,84,85
 355.7109375 32 355.7109375 32 359.7109375 32 c 0,86,87
 364.7109375 32 364.7109375 32 372.7109375 50 c 0,79,80
EndSplineSet
EndChar

StartChar: three.sinh
Encoding: 51 51 19
Width: 973
Flags: W
LayerCount: 2
Fore
SplineSet
538.5 486 m 0,0,1
 538.5 515 538.5 515 524.5 527.5 c 128,-1,2
 510.5 540 510.5 540 482.5 540 c 0,3,4
 449.5 540 449.5 540 433.5 514.5 c 128,-1,5
 417.5 489 417.5 489 417.5 430 c 0,6,7
 417.5 416 417.5 416 407 410 c 128,-1,8
 396.5 404 396.5 404 385.5 404 c 0,9,10
 324.5 404 324.5 404 324.5 493 c 0,11,12
 324.5 520 324.5 520 338 543.5 c 128,-1,13
 351.5 567 351.5 567 373 584.5 c 128,-1,14
 394.5 602 394.5 602 422.5 612 c 128,-1,15
 450.5 622 450.5 622 478.5 622 c 0,16,17
 522.5 622 522.5 622 554 611 c 128,-1,18
 585.5 600 585.5 600 605.5 581 c 128,-1,19
 625.5 562 625.5 562 635.5 537.5 c 128,-1,20
 645.5 513 645.5 513 645.5 487 c 0,21,22
 645.5 447 645.5 447 628 418 c 128,-1,23
 610.5 389 610.5 389 589 368.5 c 128,-1,24
 567.5 348 567.5 348 550 336 c 128,-1,25
 532.5 324 532.5 324 532.5 318 c 256,26,27
 532.5 312 532.5 312 550.5 305.5 c 128,-1,28
 568.5 299 568.5 299 590.5 284 c 128,-1,29
 612.5 269 612.5 269 630.5 241.5 c 128,-1,30
 648.5 214 648.5 214 648.5 167 c 0,31,32
 648.5 121 648.5 121 631 88.5 c 128,-1,33
 613.5 56 613.5 56 585 35 c 128,-1,34
 556.5 14 556.5 14 520.5 4 c 128,-1,35
 484.5 -6 484.5 -6 447.5 -6 c 0,36,37
 431.5 -6 431.5 -6 411.5 -1.5 c 128,-1,38
 391.5 3 391.5 3 374 12.5 c 128,-1,39
 356.5 22 356.5 22 344.5 36.5 c 128,-1,40
 332.5 51 332.5 51 332.5 71 c 0,41,42
 332.5 86 332.5 86 338.5 95.5 c 128,-1,43
 344.5 105 344.5 105 355.5 105 c 0,44,45
 368.5 105 368.5 105 379 100.5 c 128,-1,46
 389.5 96 389.5 96 400 90.5 c 128,-1,47
 410.5 85 410.5 85 422.5 80.5 c 128,-1,48
 434.5 76 434.5 76 449.5 76 c 0,49,50
 476.5 76 476.5 76 494.5 84 c 128,-1,51
 512.5 92 512.5 92 523 105 c 128,-1,52
 533.5 118 533.5 118 537.5 134 c 128,-1,53
 541.5 150 541.5 150 541.5 166 c 0,54,55
 541.5 198 541.5 198 523.5 220 c 128,-1,56
 505.5 242 505.5 242 476.5 242 c 0,57,58
 434.5 242 434.5 242 417.5 257 c 128,-1,59
 400.5 272 400.5 272 400.5 292 c 0,60,61
 400.5 311 400.5 311 422 334.5 c 128,-1,62
 443.5 358 443.5 358 469.5 383 c 128,-1,63
 495.5 408 495.5 408 517 434.5 c 128,-1,64
 538.5 461 538.5 461 538.5 486 c 0,0,1
365.5 515 m 0,65,66
 366.5 527 366.5 527 364.5 534 c 128,-1,67
 362.5 541 362.5 541 359.5 540 c 0,68,69
 355.5 540 355.5 540 352 534 c 128,-1,70
 348.5 528 348.5 528 346 520 c 128,-1,71
 343.5 512 343.5 512 342 504 c 128,-1,72
 340.5 496 340.5 496 341.5 492 c 0,73,74
 343.5 479 343.5 479 346.5 477 c 0,75,76
 351.5 472 351.5 472 357.5 479 c 128,-1,77
 363.5 486 363.5 486 365.5 515 c 0,65,66
359.5 451 m 0,78,79
 359.5 458 359.5 458 352.5 458 c 256,80,81
 345.5 458 345.5 458 345.5 450 c 0,82,83
 345.5 448 345.5 448 347.5 445 c 128,-1,84
 349.5 442 349.5 442 351.5 442 c 0,85,86
 355.5 442 355.5 442 357.5 445 c 128,-1,87
 359.5 448 359.5 448 359.5 451 c 0,78,79
433.5 291 m 0,88,89
 435.5 296 435.5 296 439.5 304 c 128,-1,90
 443.5 312 443.5 312 448.5 319 c 0,91,92
 452.5 325 452.5 325 453.5 330 c 128,-1,93
 454.5 335 454.5 335 452.5 335 c 0,94,95
 448.5 335 448.5 335 442.5 329 c 128,-1,96
 436.5 323 436.5 323 431 315 c 128,-1,97
 425.5 307 425.5 307 421.5 298.5 c 128,-1,98
 417.5 290 417.5 290 417.5 284 c 0,99,100
 417.5 275 417.5 275 422.5 275 c 256,101,102
 427.5 275 427.5 275 433.5 291 c 0,88,89
363.5 80 m 0,103,104
 363.5 101 363.5 101 354.5 92 c 0,105,106
 349.5 87 349.5 87 347.5 78 c 128,-1,107
 345.5 69 345.5 69 346.5 62 c 0,108,109
 347.5 58 347.5 58 349.5 56.5 c 128,-1,110
 351.5 55 351.5 55 353.5 55 c 256,111,112
 355.5 55 355.5 55 359.5 63.5 c 128,-1,113
 363.5 72 363.5 72 363.5 80 c 0,103,104
EndSplineSet
EndChar

StartChar: four.sinh
Encoding: 52 52 20
Width: 973
Flags: W
LayerCount: 2
Fore
SplineSet
594 0 m 0,0,1
 570 0 570 0 561.5 19.5 c 128,-1,2
 553 39 553 39 553 62 c 2,3,-1
 553 130 l 2,4,5
 553 142 553 142 540 142 c 2,6,-1
 359 142 l 2,7,8
 337 142 337 142 326.5 152 c 128,-1,9
 316 162 316 162 316 173 c 0,10,11
 316 178 316 178 324.5 209.5 c 128,-1,12
 333 241 333 241 345.5 286 c 128,-1,13
 358 331 358 331 373 382 c 128,-1,14
 388 433 388 433 401.5 478 c 128,-1,15
 415 523 415 523 425 555 c 128,-1,16
 435 587 435 587 438 592 c 0,17,18
 446 607 446 607 456 610.5 c 128,-1,19
 466 614 466 614 476 614 c 0,20,21
 481 614 481 614 490 612 c 128,-1,22
 499 610 499 610 507.5 606.5 c 128,-1,23
 516 603 516 603 522.5 598 c 128,-1,24
 529 593 529 593 529 587 c 256,25,26
 529 581 529 581 524 558.5 c 128,-1,27
 519 536 519 536 511 503.5 c 128,-1,28
 503 471 503 471 493 433 c 128,-1,29
 483 395 483 395 473 358.5 c 128,-1,30
 463 322 463 322 454 291.5 c 128,-1,31
 445 261 445 261 439 243 c 0,32,33
 437 238 437 238 436 235 c 128,-1,34
 435 232 435 232 435 229 c 0,35,36
 435 224 435 224 443 224 c 2,37,-1
 540 224 l 2,38,39
 548 224 548 224 550.5 226.5 c 128,-1,40
 553 229 553 229 553 235 c 2,41,-1
 553 536 l 2,42,43
 553 561 553 561 557.5 576.5 c 128,-1,44
 562 592 562 592 569 601 c 128,-1,45
 576 610 576 610 585 613 c 128,-1,46
 594 616 594 616 604 616 c 0,47,48
 631 616 631 616 644 597 c 128,-1,49
 657 578 657 578 657 550 c 2,50,-1
 657 70 l 2,51,52
 657 49 657 49 652 35 c 128,-1,53
 647 21 647 21 638 13.5 c 128,-1,54
 629 6 629 6 617.5 3 c 128,-1,55
 606 0 606 0 594 0 c 0,0,1
573 541 m 256,56,57
 577 541 577 541 580.5 547 c 128,-1,58
 584 553 584 553 586.5 561 c 128,-1,59
 589 569 589 569 590.5 577.5 c 128,-1,60
 592 586 592 586 592 591 c 0,61,62
 592 598 592 598 585 598 c 0,63,64
 582 598 582 598 579 593.5 c 128,-1,65
 576 589 576 589 573.5 582.5 c 128,-1,66
 571 576 571 576 569 569.5 c 128,-1,67
 567 563 567 563 567 558 c 0,68,69
 567 552 567 552 568 546.5 c 128,-1,70
 569 541 569 541 573 541 c 256,56,57
360 215 m 0,71,72
 364 228 364 228 366.5 235 c 128,-1,73
 369 242 369 242 368 251 c 0,74,75
 368 259 368 259 363 259 c 0,76,77
 360 259 360 259 356.5 251.5 c 128,-1,78
 353 244 353 244 349.5 234 c 128,-1,79
 346 224 346 224 344 214 c 128,-1,80
 342 204 342 204 342 199 c 0,81,82
 342 188 342 188 347 188 c 0,83,84
 354 189 354 189 360 215 c 0,71,72
350 169 m 0,85,86
 350 179 350 179 342 179 c 256,87,88
 334 179 334 179 334 169 c 0,89,90
 334 167 334 167 335 166 c 0,91,92
 339 162 339 162 342 162 c 0,93,94
 344 162 344 162 347 164 c 128,-1,95
 350 166 350 166 350 169 c 0,85,86
586 29 m 0,96,97
 583 35 583 35 580 37.5 c 128,-1,98
 577 40 577 40 577 45 c 0,99,100
 577 49 577 49 576 53 c 0,101,102
 576 61 576 61 571 61 c 0,103,104
 565 61 565 61 565 50 c 0,105,106
 565 42 565 42 569.5 28.5 c 128,-1,107
 574 15 574 15 580 15 c 0,108,109
 583 15 583 15 586 19.5 c 128,-1,110
 589 24 589 24 586 29 c 0,96,97
EndSplineSet
EndChar

StartChar: five.sinh
Encoding: 53 53 21
Width: 973
Flags: W
LayerCount: 2
Fore
SplineSet
386.5 -8 m 0,0,1
 364.5 -8 364.5 -8 352 -1.5 c 128,-1,2
 339.5 5 339.5 5 333.5 14 c 128,-1,3
 327.5 23 327.5 23 326 32.5 c 128,-1,4
 324.5 42 324.5 42 324.5 48 c 0,5,6
 324.5 62 324.5 62 330 70 c 128,-1,7
 335.5 78 335.5 78 344.5 81.5 c 128,-1,8
 353.5 85 353.5 85 364.5 85.5 c 128,-1,9
 375.5 86 375.5 86 386.5 86 c 0,10,11
 473.5 86 473.5 86 510 112.5 c 128,-1,12
 546.5 139 546.5 139 546.5 196 c 0,13,14
 546.5 251 546.5 251 520.5 277 c 128,-1,15
 494.5 303 494.5 303 445.5 303 c 0,16,17
 426.5 303 426.5 303 414.5 300 c 128,-1,18
 402.5 297 402.5 297 393.5 293.5 c 128,-1,19
 384.5 290 384.5 290 376.5 287 c 128,-1,20
 368.5 284 368.5 284 358.5 284 c 256,21,22
 348.5 284 348.5 284 342.5 293 c 128,-1,23
 336.5 302 336.5 302 333.5 314.5 c 128,-1,24
 330.5 327 330.5 327 330 341.5 c 128,-1,25
 329.5 356 329.5 356 329.5 366 c 2,26,-1
 329.5 568 l 2,27,28
 329.5 595 329.5 595 343 605.5 c 128,-1,29
 356.5 616 356.5 616 375.5 616 c 2,30,-1
 608.5 616 l 2,31,32
 616.5 616 616.5 616 623.5 608.5 c 128,-1,33
 630.5 601 630.5 601 630.5 587 c 0,34,35
 630.5 569 630.5 569 623 552.5 c 128,-1,36
 615.5 536 615.5 536 606.5 536 c 2,37,-1
 438.5 535 l 2,38,39
 433.5 535 433.5 535 431.5 530.5 c 128,-1,40
 429.5 526 429.5 526 429.5 521 c 2,41,-1
 429.5 399 l 2,42,43
 429.5 383 429.5 383 432.5 381 c 128,-1,44
 435.5 379 435.5 379 442.5 379 c 2,45,-1
 466.5 380 l 2,46,47
 506.5 382 506.5 382 540 371.5 c 128,-1,48
 573.5 361 573.5 361 597.5 338 c 128,-1,49
 621.5 315 621.5 315 635 280 c 128,-1,50
 648.5 245 648.5 245 648.5 197 c 0,51,52
 648.5 158 648.5 158 632.5 121.5 c 128,-1,53
 616.5 85 616.5 85 584 56 c 128,-1,54
 551.5 27 551.5 27 502.5 9.5 c 128,-1,55
 453.5 -8 453.5 -8 386.5 -8 c 0,0,1
357.5 403 m 0,56,57
 357.5 422 357.5 422 356.5 432 c 128,-1,58
 355.5 442 355.5 442 349.5 436 c 0,59,60
 346.5 433 346.5 433 344.5 421 c 128,-1,61
 342.5 409 342.5 409 342.5 395 c 128,-1,62
 342.5 381 342.5 381 344.5 369 c 128,-1,63
 346.5 357 346.5 357 349.5 354 c 256,64,65
 352.5 351 352.5 351 353.5 351 c 0,66,67
 357.5 351 357.5 351 357.5 403 c 0,56,57
365.5 326 m 0,68,69
 365.5 336 365.5 336 360.5 336 c 0,70,71
 349.5 336 349.5 336 349.5 322 c 0,72,73
 349.5 315 349.5 315 357.5 315 c 0,74,75
 362.5 315 362.5 315 364 319.5 c 128,-1,76
 365.5 324 365.5 324 365.5 326 c 0,68,69
356.5 48 m 0,77,78
 355.5 50 355.5 50 356 54 c 128,-1,79
 356.5 58 356.5 58 357 61.5 c 128,-1,80
 357.5 65 357.5 65 356.5 67.5 c 128,-1,81
 355.5 70 355.5 70 351.5 70 c 0,82,83
 346.5 70 346.5 70 344.5 61.5 c 128,-1,84
 342.5 53 342.5 53 343.5 42 c 256,85,86
 344.5 31 344.5 31 347.5 21.5 c 128,-1,87
 350.5 12 350.5 12 356.5 12 c 0,88,89
 358.5 12 358.5 12 360 23 c 128,-1,90
 361.5 34 361.5 34 356.5 48 c 0,77,78
EndSplineSet
EndChar

StartChar: six.sinh
Encoding: 54 54 22
Width: 973
Flags: W
LayerCount: 2
Fore
SplineSet
488 -11 m 0,0,1
 436 -11 436 -11 399.5 8.5 c 128,-1,2
 363 28 363 28 340 61 c 128,-1,3
 317 94 317 94 306.5 136.5 c 128,-1,4
 296 179 296 179 296 225 c 0,5,6
 296 276 296 276 304 328.5 c 128,-1,7
 312 381 312 381 329 429 c 128,-1,8
 346 477 346 477 373.5 518 c 128,-1,9
 401 559 401 559 440 587 c 0,10,11
 468 607 468 607 496 613.5 c 128,-1,12
 524 620 524 620 546 620 c 0,13,14
 551 620 551 620 558.5 618.5 c 128,-1,15
 566 617 566 617 573 614 c 128,-1,16
 580 611 580 611 585.5 606 c 128,-1,17
 591 601 591 601 591 593 c 0,18,19
 591 579 591 579 586 567.5 c 128,-1,20
 581 556 581 556 554 547 c 0,21,22
 528 538 528 538 507 521 c 128,-1,23
 486 504 486 504 469.5 482.5 c 128,-1,24
 453 461 453 461 441 435.5 c 128,-1,25
 429 410 429 410 420 385 c 0,26,27
 415 373 415 373 411 354.5 c 128,-1,28
 407 336 407 336 407 325 c 0,29,30
 407 315 407 315 411 315 c 0,31,32
 414 315 414 315 421 324.5 c 128,-1,33
 428 334 428 334 441 345 c 128,-1,34
 454 356 454 356 473 365.5 c 128,-1,35
 492 375 492 375 519 375 c 0,36,37
 596 375 596 375 636.5 323 c 128,-1,38
 677 271 677 271 677 187 c 0,39,40
 677 146 677 146 662 110 c 128,-1,41
 647 74 647 74 621 47 c 128,-1,42
 595 20 595 20 560.5 4.5 c 128,-1,43
 526 -11 526 -11 488 -11 c 0,0,1
483 80 m 0,44,45
 525 80 525 80 550.5 106.5 c 128,-1,46
 576 133 576 133 576 190 c 0,47,48
 576 207 576 207 573 224 c 128,-1,49
 570 241 570 241 562 255 c 128,-1,50
 554 269 554 269 540.5 277.5 c 128,-1,51
 527 286 527 286 506 286 c 0,52,53
 487 286 487 286 467.5 276 c 128,-1,54
 448 266 448 266 433 250.5 c 128,-1,55
 418 235 418 235 408.5 215.5 c 128,-1,56
 399 196 399 196 399 178 c 0,57,58
 399 137 399 137 416.5 108.5 c 128,-1,59
 434 80 434 80 483 80 c 0,44,45
357 107 m 0,60,61
 354 118 354 118 350 127.5 c 128,-1,62
 346 137 346 137 343 148 c 0,63,64
 341 154 341 154 339.5 159 c 128,-1,65
 338 164 338 164 334 163 c 0,66,67
 331 163 331 163 329 155 c 0,68,69
 328 148 328 148 331.5 135 c 128,-1,70
 335 122 335 122 340 110 c 128,-1,71
 345 98 345 98 350.5 89.5 c 128,-1,72
 356 81 356 81 358 81 c 0,73,74
 363 81 363 81 363 86 c 0,75,76
 363 90 363 90 361 95 c 128,-1,77
 359 100 359 100 357 107 c 0,60,61
EndSplineSet
EndChar

StartChar: seven.sinh
Encoding: 55 55 23
Width: 973
Flags: W
LayerCount: 2
Fore
SplineSet
408 -2 m 0,0,1
 394 -2 394 -2 384.5 6.5 c 128,-1,2
 375 15 375 15 375 25 c 0,3,4
 375 34 375 34 385 70 c 128,-1,5
 395 106 395 106 410 156 c 128,-1,6
 425 206 425 206 443 263 c 128,-1,7
 461 320 461 320 477.5 371 c 128,-1,8
 494 422 494 422 507 461 c 128,-1,9
 520 500 520 500 525 514 c 0,10,11
 530 529 530 529 518 529 c 2,12,-1
 388 529 l 2,13,14
 361 529 361 529 346 537.5 c 128,-1,15
 331 546 331 546 331 573 c 256,16,17
 331 600 331 600 347.5 608 c 128,-1,18
 364 616 364 616 390 616 c 2,19,-1
 601 616 l 2,20,21
 618 616 618 616 630 605.5 c 128,-1,22
 642 595 642 595 642 581 c 0,23,24
 642 571 642 571 631 529 c 128,-1,25
 620 487 620 487 602.5 429 c 128,-1,26
 585 371 585 371 563.5 303.5 c 128,-1,27
 542 236 542 236 522 176 c 128,-1,28
 502 116 502 116 486 71 c 128,-1,29
 470 26 470 26 462 11 c 0,30,31
 460 6 460 6 445.5 2 c 128,-1,32
 431 -2 431 -2 408 -2 c 0,0,1
363 594 m 0,33,34
 363 602 363 602 358 602 c 256,35,36
 353 602 353 602 346.5 594.5 c 128,-1,37
 340 587 340 587 340 576 c 0,38,39
 340 556 340 556 348 556 c 0,40,41
 351 556 351 556 354 560.5 c 128,-1,42
 357 565 357 565 359 571 c 128,-1,43
 361 577 361 577 362 583.5 c 128,-1,44
 363 590 363 590 363 594 c 0,33,34
408 38 m 0,45,46
 410 48 410 48 412 58.5 c 128,-1,47
 414 69 414 69 416 73 c 0,48,49
 420 78 420 78 418.5 83 c 128,-1,50
 417 88 417 88 412 88 c 0,51,52
 409 88 409 88 405.5 81 c 128,-1,53
 402 74 402 74 399.5 64.5 c 128,-1,54
 397 55 397 55 395 45.5 c 128,-1,55
 393 36 393 36 393 31 c 0,56,57
 393 19 393 19 398 19 c 256,58,59
 403 19 403 19 408 38 c 0,45,46
EndSplineSet
EndChar

StartChar: eight.sinh
Encoding: 56 56 24
Width: 973
Flags: W
LayerCount: 2
Fore
SplineSet
478 -6 m 0,0,1
 438 -6 438 -6 404.5 8.5 c 128,-1,2
 371 23 371 23 347.5 46.5 c 128,-1,3
 324 70 324 70 311 100.5 c 128,-1,4
 298 131 298 131 298 163 c 0,5,6
 298 201 298 201 315 228 c 128,-1,7
 332 255 332 255 352.5 274 c 128,-1,8
 373 293 373 293 390 305.5 c 128,-1,9
 407 318 407 318 407 325 c 0,10,11
 407 333 407 333 391.5 342 c 128,-1,12
 376 351 376 351 357 367 c 128,-1,13
 338 383 338 383 322.5 407.5 c 128,-1,14
 307 432 307 432 307 471 c 0,15,16
 307 503 307 503 321.5 531 c 128,-1,17
 336 559 336 559 361 580 c 128,-1,18
 386 601 386 601 418 613 c 128,-1,19
 450 625 450 625 485 625 c 0,20,21
 511 625 511 625 541 614.5 c 128,-1,22
 571 604 571 604 596.5 584.5 c 128,-1,23
 622 565 622 565 638.5 536 c 128,-1,24
 655 507 655 507 655 469 c 0,25,26
 655 432 655 432 641 409.5 c 128,-1,27
 627 387 627 387 610.5 373.5 c 128,-1,28
 594 360 594 360 580 353 c 128,-1,29
 566 346 566 346 566 340 c 0,30,31
 566 331 566 331 583 319.5 c 128,-1,32
 600 308 600 308 620.5 289.5 c 128,-1,33
 641 271 641 271 658 242 c 128,-1,34
 675 213 675 213 675 169 c 0,35,36
 675 136 675 136 659.5 104.5 c 128,-1,37
 644 73 644 73 617 48 c 128,-1,38
 590 23 590 23 554.5 8.5 c 128,-1,39
 519 -6 519 -6 478 -6 c 0,0,1
350 512 m 0,40,41
 351 518 351 518 356 525 c 128,-1,42
 361 532 361 532 367 538.5 c 128,-1,43
 373 545 373 545 378.5 550.5 c 128,-1,44
 384 556 384 556 387 559 c 0,45,46
 398 571 398 571 398 578 c 0,47,48
 398 582 398 582 394 582 c 0,49,50
 385 582 385 582 374.5 572.5 c 128,-1,51
 364 563 364 563 355 549.5 c 128,-1,52
 346 536 346 536 340 522.5 c 128,-1,53
 334 509 334 509 334 501 c 256,54,55
 334 493 334 493 338 493 c 0,56,57
 345 493 345 493 350 512 c 0,40,41
485 371 m 0,58,59
 498 371 498 371 510.5 379.5 c 128,-1,60
 523 388 523 388 533 402 c 128,-1,61
 543 416 543 416 549.5 433.5 c 128,-1,62
 556 451 556 451 556 469 c 0,63,64
 556 504 556 504 536 529.5 c 128,-1,65
 516 555 516 555 484 555 c 256,66,67
 452 555 452 555 429 533 c 128,-1,68
 406 511 406 511 406 473 c 0,69,70
 406 459 406 459 411 441.5 c 128,-1,71
 416 424 416 424 426 408 c 128,-1,72
 436 392 436 392 451 381.5 c 128,-1,73
 466 371 466 371 485 371 c 0,58,59
340 469 m 0,74,75
 340 478 340 478 333 478 c 0,76,77
 328 478 328 478 326.5 475 c 128,-1,78
 325 472 325 472 325 469 c 0,79,80
 325 467 325 467 326 465 c 0,81,82
 328 461 328 461 332 461 c 0,83,84
 334 461 334 461 337 463 c 128,-1,85
 340 465 340 465 340 469 c 0,74,75
480 73 m 0,86,87
 528 73 528 73 545.5 98 c 128,-1,88
 563 123 563 123 563 169 c 0,89,90
 563 188 563 188 555.5 208.5 c 128,-1,91
 548 229 548 229 536.5 246 c 128,-1,92
 525 263 525 263 512 274 c 128,-1,93
 499 285 499 285 488 285 c 0,94,95
 473 285 473 285 458 273.5 c 128,-1,96
 443 262 443 262 431 244.5 c 128,-1,97
 419 227 419 227 411.5 205.5 c 128,-1,98
 404 184 404 184 404 163 c 0,99,100
 404 147 404 147 409.5 131 c 128,-1,101
 415 115 415 115 424.5 102 c 128,-1,102
 434 89 434 89 448 81 c 128,-1,103
 462 73 462 73 480 73 c 0,86,87
344 222 m 256,104,105
 347 230 347 230 344 233 c 128,-1,106
 341 236 341 236 334 229 c 0,107,108
 331 226 331 226 326 218.5 c 128,-1,109
 321 211 321 211 316.5 202 c 128,-1,110
 312 193 312 193 308.5 183.5 c 128,-1,111
 305 174 305 174 305 166 c 0,112,113
 304 158 304 158 307.5 150.5 c 128,-1,114
 311 143 311 143 318 143 c 0,115,116
 326 143 326 143 325 155.5 c 128,-1,117
 324 168 324 168 326 179 c 0,118,119
 329 194 329 194 335 204 c 128,-1,120
 341 214 341 214 344 222 c 256,104,105
EndSplineSet
EndChar

StartChar: nine.sinh
Encoding: 57 57 25
Width: 973
Flags: W
LayerCount: 2
Fore
SplineSet
484.5 623 m 0,0,1
 539.5 623 539.5 623 576.5 601.5 c 128,-1,2
 613.5 580 613.5 580 635.5 546 c 128,-1,3
 657.5 512 657.5 512 667 470 c 128,-1,4
 676.5 428 676.5 428 676.5 387 c 0,5,6
 676.5 336 676.5 336 665 284 c 128,-1,7
 653.5 232 653.5 232 633 185 c 128,-1,8
 612.5 138 612.5 138 584.5 99 c 128,-1,9
 556.5 60 556.5 60 523.5 34 c 0,10,11
 496.5 13 496.5 13 468 2.5 c 128,-1,12
 439.5 -8 439.5 -8 417.5 -8 c 0,13,14
 399.5 -8 399.5 -8 387 -1.5 c 128,-1,15
 374.5 5 374.5 5 374.5 21 c 0,16,17
 374.5 36 374.5 36 382.5 51.5 c 128,-1,18
 390.5 67 390.5 67 417.5 76 c 0,19,20
 443.5 85 443.5 85 464 100 c 128,-1,21
 484.5 115 484.5 115 500.5 135 c 128,-1,22
 516.5 155 516.5 155 528 178.5 c 128,-1,23
 539.5 202 539.5 202 548.5 227 c 0,24,25
 553.5 239 553.5 239 557.5 257.5 c 128,-1,26
 561.5 276 561.5 276 561.5 287 c 0,27,28
 561.5 297 561.5 297 557.5 297 c 0,29,30
 554.5 297 554.5 297 548 289 c 128,-1,31
 541.5 281 541.5 281 528.5 272 c 128,-1,32
 515.5 263 515.5 263 495.5 255 c 128,-1,33
 475.5 247 475.5 247 445.5 247 c 0,34,35
 375.5 247 375.5 247 336 295 c 128,-1,36
 296.5 343 296.5 343 296.5 425 c 0,37,38
 296.5 463 296.5 463 308.5 499 c 128,-1,39
 320.5 535 320.5 535 344.5 562.5 c 128,-1,40
 368.5 590 368.5 590 403.5 606.5 c 128,-1,41
 438.5 623 438.5 623 484.5 623 c 0,0,1
489.5 535 m 0,42,43
 447.5 535 447.5 535 422 508 c 128,-1,44
 396.5 481 396.5 481 396.5 432 c 0,45,46
 396.5 390 396.5 390 415 364.5 c 128,-1,47
 433.5 339 433.5 339 466.5 339 c 0,48,49
 486.5 339 486.5 339 505 347 c 128,-1,50
 523.5 355 523.5 355 537.5 368 c 128,-1,51
 551.5 381 551.5 381 560.5 398.5 c 128,-1,52
 569.5 416 569.5 416 569.5 434 c 0,53,54
 569.5 455 569.5 455 566 473 c 128,-1,55
 562.5 491 562.5 491 553.5 505 c 128,-1,56
 544.5 519 544.5 519 529 527 c 128,-1,57
 513.5 535 513.5 535 489.5 535 c 0,42,43
346.5 486 m 0,58,59
 348.5 496 348.5 496 351 503.5 c 128,-1,60
 353.5 511 353.5 511 353.5 517 c 0,61,62
 353.5 524 353.5 524 346.5 524 c 0,63,64
 343.5 524 343.5 524 338 511 c 128,-1,65
 332.5 498 332.5 498 328 480 c 128,-1,66
 323.5 462 323.5 462 320.5 444 c 128,-1,67
 317.5 426 317.5 426 319.5 415 c 0,68,69
 322.5 403 322.5 403 327.5 403 c 256,70,71
 332.5 403 332.5 403 335 410.5 c 128,-1,72
 337.5 418 337.5 418 339.5 426 c 0,73,74
 343.5 443 343.5 443 343.5 457 c 128,-1,75
 343.5 471 343.5 471 346.5 486 c 0,58,59
342.5 380 m 0,76,77
 342.5 385 342.5 385 341 388.5 c 128,-1,78
 339.5 392 339.5 392 336.5 392 c 0,79,80
 331.5 392 331.5 392 327.5 389 c 128,-1,81
 323.5 386 323.5 386 323.5 376 c 0,82,83
 323.5 373 323.5 373 326 370 c 128,-1,84
 328.5 367 328.5 367 332.5 367 c 0,85,86
 338.5 367 338.5 367 340.5 372.5 c 128,-1,87
 342.5 378 342.5 378 342.5 380 c 0,76,77
414.5 58 m 2,88,89
 414.5 61 414.5 61 410 60 c 128,-1,90
 405.5 59 405.5 59 400.5 55 c 128,-1,91
 395.5 51 395.5 51 391.5 44 c 128,-1,92
 387.5 37 387.5 37 387.5 28 c 0,93,94
 387.5 26 387.5 26 389 20 c 128,-1,95
 390.5 14 390.5 14 394.5 14 c 0,96,97
 397.5 14 397.5 14 401 20.5 c 128,-1,98
 404.5 27 404.5 27 407.5 35.5 c 128,-1,99
 410.5 44 410.5 44 412.5 51 c 128,-1,100
 414.5 58 414.5 58 414.5 58 c 2,88,89
EndSplineSet
EndChar

StartChar: colon.sinh
Encoding: 58 58 26
Width: 973
Flags: W
LayerCount: 2
Fore
SplineSet
424.5 54 m 0,0,1
 424.5 91 424.5 91 442.5 106 c 128,-1,2
 460.5 121 460.5 121 485.5 121 c 0,3,4
 511.5 121 511.5 121 530 106 c 128,-1,5
 548.5 91 548.5 91 548.5 54 c 0,6,7
 548.5 18 548.5 18 530 2 c 128,-1,8
 511.5 -14 511.5 -14 485.5 -14 c 0,9,10
 460.5 -14 460.5 -14 442.5 2 c 128,-1,11
 424.5 18 424.5 18 424.5 54 c 0,0,1
424.5 482 m 0,12,13
 424.5 520 424.5 520 442.5 535 c 128,-1,14
 460.5 550 460.5 550 485.5 550 c 0,15,16
 511.5 550 511.5 550 530 535 c 128,-1,17
 548.5 520 548.5 520 548.5 482 c 0,18,19
 548.5 446 548.5 446 530 430 c 128,-1,20
 511.5 414 511.5 414 485.5 414 c 0,21,22
 460.5 414 460.5 414 442.5 430 c 128,-1,23
 424.5 446 424.5 446 424.5 482 c 0,12,13
EndSplineSet
EndChar

StartChar: semicolon.sinh
Encoding: 59 59 27
Width: 973
Flags: W
LayerCount: 2
Fore
SplineSet
557 105 m 1,0,1
 548 70 548 70 534 29 c 128,-1,2
 520 -12 520 -12 503.5 -52.5 c 128,-1,3
 487 -93 487 -93 471 -129 c 1,4,-1
 405 -129 l 1,5,6
 412 -101 412 -101 419.5 -69 c 128,-1,7
 427 -37 427 -37 434 -4.5 c 128,-1,8
 441 28 441 28 446.5 59 c 128,-1,9
 452 90 452 90 456 116 c 1,10,-1
 550 116 l 1,11,-1
 557 105 l 1,0,1
444 482 m 0,12,13
 444 520 444 520 462 535 c 128,-1,14
 480 550 480 550 505 550 c 0,15,16
 531 550 531 550 549.5 535 c 128,-1,17
 568 520 568 520 568 482 c 0,18,19
 568 446 568 446 549.5 430 c 128,-1,20
 531 414 531 414 505 414 c 0,21,22
 480 414 480 414 462 430 c 128,-1,23
 444 446 444 446 444 482 c 0,12,13
EndSplineSet
EndChar

StartChar: less.sinh
Encoding: 60 60 28
Width: 973
Flags: W
LayerCount: 2
Fore
SplineSet
722 116 m 1,0,-1
 251 323 l 1,1,-1
 251 373 l 1,2,-1
 722 608 l 1,3,-1
 722 530 l 1,4,-1
 345 352 l 1,5,-1
 722 194 l 1,6,-1
 722 116 l 1,0,-1
EndSplineSet
EndChar

StartChar: equal.sinh
Encoding: 61 61 29
Width: 973
Flags: W
LayerCount: 2
Fore
SplineSet
257.5 416 m 1,0,-1
 257.5 487 l 1,1,-1
 715.5 487 l 1,2,-1
 715.5 416 l 1,3,-1
 257.5 416 l 1,0,-1
257.5 217 m 1,4,-1
 257.5 288 l 1,5,-1
 715.5 288 l 1,6,-1
 715.5 217 l 1,7,-1
 257.5 217 l 1,4,-1
EndSplineSet
EndChar

StartChar: greater.sinh
Encoding: 62 62 30
Width: 973
Flags: W
LayerCount: 2
Fore
SplineSet
251 194 m 1,0,-1
 628 351 l 1,1,-1
 251 530 l 1,2,-1
 251 608 l 1,3,-1
 722 373 l 1,4,-1
 722 323 l 1,5,-1
 251 116 l 1,6,-1
 251 194 l 1,0,-1
EndSplineSet
EndChar

StartChar: question.sinh
Encoding: 63 63 31
Width: 973
Flags: W
LayerCount: 2
Fore
SplineSet
416.5 199 m 6,0,1
 416.5 237 416.5 237 424 264.5 c 132,-1,2
 431.5 292 431.5 292 450 317 c 132,-1,3
 468.5 342 468.5 342 500.5 369 c 4,4,5
 539.5 402 539.5 402 561 424 c 132,-1,6
 582.5 446 582.5 446 591.5 467 c 132,-1,7
 600.5 488 600.5 488 600.5 518 c 4,8,9
 600.5 566 600.5 566 569.5 592 c 132,-1,10
 538.5 618 538.5 618 479.5 618 c 4,11,12
 430.5 618 430.5 618 392.5 605.5 c 132,-1,13
 354.5 593 354.5 593 319.5 576 c 5,14,-1
 288.5 646 l 5,15,16
 328.5 667 328.5 667 377 681 c 132,-1,17
 425.5 695 425.5 695 485.5 695 c 4,18,19
 580.5 695 580.5 695 632.5 648 c 132,-1,20
 684.5 601 684.5 601 684.5 520 c 4,21,22
 684.5 475 684.5 475 670 443.5 c 132,-1,23
 655.5 412 655.5 412 629 385.5 c 132,-1,24
 602.5 359 602.5 359 566.5 329 c 4,25,26
 533.5 301 533.5 301 516 280 c 132,-1,27
 498.5 259 498.5 259 492.5 238.5 c 132,-1,28
 486.5 218 486.5 218 486.5 189 c 6,29,-1
 486.5 172 l 5,30,-1
 416.5 172 l 5,31,-1
 416.5 199 l 6,0,1
393.5 25 m 4,32,33
 393.5 62 393.5 62 411 77 c 132,-1,34
 428.5 92 428.5 92 455.5 92 c 4,35,36
 480.5 92 480.5 92 498.5 77 c 132,-1,37
 516.5 62 516.5 62 516.5 25 c 4,38,39
 516.5 -11 516.5 -11 498.5 -27 c 132,-1,40
 480.5 -43 480.5 -43 455.5 -43 c 4,41,42
 428.5 -43 428.5 -43 411 -27 c 132,-1,43
 393.5 -11 393.5 -11 393.5 25 c 4,32,33
EndSplineSet
EndChar

StartChar: bracketleft.sinh
Encoding: 91 91 32
Width: 973
Flags: W
LayerCount: 2
Fore
SplineSet
391.430664062 -70 m 0,0,1
 388.430664062 -67 388.430664062 -67 386.930664062 -56.5 c 128,-1,2
 385.430664062 -46 385.430664062 -46 384.430664062 -12.5 c 128,-1,3
 383.430664062 21 383.430664062 21 383.430664062 86.5 c 128,-1,4
 383.430664062 152 383.430664062 152 383.430664062 266 c 0,5,6
 383.430664062 347 383.430664062 347 383.430664062 405 c 128,-1,7
 383.430664062 463 383.430664062 463 383.430664062 503.5 c 128,-1,8
 383.430664062 544 383.430664062 544 384.430664062 570 c 128,-1,9
 385.430664062 596 385.430664062 596 387.430664062 611.5 c 128,-1,10
 389.430664062 627 389.430664062 627 392.430664062 635 c 128,-1,11
 395.430664062 643 395.430664062 643 400.430664062 649 c 0,12,13
 404.430664062 654 404.430664062 654 415.930664062 657 c 128,-1,14
 427.430664062 660 427.430664062 660 442.930664062 661.5 c 128,-1,15
 458.430664062 663 458.430664062 663 477.930664062 663.5 c 128,-1,16
 497.430664062 664 497.430664062 664 517.430664062 664 c 0,17,18
 558.430664062 664 558.430664062 664 578.930664062 650 c 128,-1,19
 599.430664062 636 599.430664062 636 580.430664062 616 c 0,20,21
 575.430664062 610 575.430664062 610 561.430664062 606 c 128,-1,22
 547.430664062 602 547.430664062 602 517.430664062 602 c 0,23,24
 503.430664062 602 503.430664062 602 495.930664062 600 c 128,-1,25
 488.430664062 598 488.430664062 598 485.430664062 593 c 128,-1,26
 482.430664062 588 482.430664062 588 482.430664062 579.5 c 128,-1,27
 482.430664062 571 482.430664062 571 482.430664062 557 c 2,28,-1
 482.430664062 -20 l 1,29,-1
 500.430664062 -20 l 2,30,31
 543.430664062 -20 543.430664062 -20 557.930664062 -27.5 c 128,-1,32
 572.430664062 -35 572.430664062 -35 572.430664062 -56 c 0,33,34
 572.430664062 -66 572.430664062 -66 568.930664062 -71.5 c 128,-1,35
 565.430664062 -77 565.430664062 -77 554.930664062 -79.5 c 128,-1,36
 544.430664062 -82 544.430664062 -82 526.430664062 -82.5 c 128,-1,37
 508.430664062 -83 508.430664062 -83 478.430664062 -83 c 0,38,39
 451.430664062 -83 451.430664062 -83 435.930664062 -83 c 128,-1,40
 420.430664062 -83 420.430664062 -83 411.430664062 -81.5 c 128,-1,41
 402.430664062 -80 402.430664062 -80 398.430664062 -77.5 c 128,-1,42
 394.430664062 -75 394.430664062 -75 391.430664062 -70 c 0,0,1
428.430664062 616 m 256,43,44
 430.430664062 624 430.430664062 624 439.430664062 630 c 128,-1,45
 448.430664062 636 448.430664062 636 454.430664062 636 c 0,46,47
 463.430664062 636 463.430664062 636 463.430664062 643 c 0,48,49
 463.430664062 644 463.430664062 644 461.930664062 644 c 128,-1,50
 460.430664062 644 460.430664062 644 454.430664062 644 c 0,51,52
 439.430664062 644 439.430664062 644 425.430664062 634 c 128,-1,53
 411.430664062 624 411.430664062 624 411.430664062 610 c 0,54,55
 411.430664062 598 411.430664062 598 415.430664062 598 c 256,56,57
 419.430664062 598 419.430664062 598 422.930664062 603 c 128,-1,58
 426.430664062 608 426.430664062 608 428.430664062 616 c 256,43,44
EndSplineSet
EndChar

StartChar: backslash.sinh
Encoding: 92 92 33
Width: 973
Flags: W
LayerCount: 2
Fore
SplineSet
373 666 m 0,0,1
 380 666 380 666 398 630.5 c 128,-1,2
 416 595 416 595 439.5 541 c 128,-1,3
 463 487 463 487 489 422.5 c 128,-1,4
 515 358 515 358 538 299.5 c 128,-1,5
 561 241 561 241 577.5 197.5 c 128,-1,6
 594 154 594 154 600 142 c 0,7,8
 606 129 606 129 617.5 101.5 c 128,-1,9
 629 74 629 74 640.5 44.5 c 128,-1,10
 652 15 652 15 660.5 -10.5 c 128,-1,11
 669 -36 669 -36 669 -44 c 0,12,13
 669 -51 669 -51 664 -57 c 128,-1,14
 659 -63 659 -63 651.5 -67.5 c 128,-1,15
 644 -72 644 -72 635.5 -74.5 c 128,-1,16
 627 -77 627 -77 620 -77 c 0,17,18
 606 -77 606 -77 594.5 -67.5 c 128,-1,19
 583 -58 583 -58 576 -47 c 0,20,21
 570 -37 570 -37 555 -3 c 128,-1,22
 540 31 540 31 520 79.5 c 128,-1,23
 500 128 500 128 476 187 c 128,-1,24
 452 246 452 246 428 306 c 128,-1,25
 404 366 404 366 381.5 423 c 128,-1,26
 359 480 359 480 342 525 c 128,-1,27
 325 570 325 570 314.5 598.5 c 128,-1,28
 304 627 304 627 304 630 c 0,29,30
 304 639 304 639 313 646 c 128,-1,31
 322 653 322 653 334 657.5 c 128,-1,32
 346 662 346 662 357.5 664 c 128,-1,33
 369 666 369 666 373 666 c 0,0,1
348 626 m 0,34,35
 346 631 346 631 338.5 629 c 128,-1,36
 331 627 331 627 331 620 c 0,37,38
 331 614 331 614 336 599.5 c 128,-1,39
 341 585 341 585 347.5 569.5 c 128,-1,40
 354 554 354 554 360.5 540.5 c 128,-1,41
 367 527 367 527 369 523 c 0,42,43
 372 518 372 518 377 518 c 128,-1,44
 382 518 382 518 384 519 c 0,45,46
 389 520 389 520 385.5 532.5 c 128,-1,47
 382 545 382 545 375 561.5 c 128,-1,48
 368 578 368 578 360 596 c 128,-1,49
 352 614 352 614 348 626 c 0,34,35
EndSplineSet
EndChar

StartChar: bracketright.sinh
Encoding: 93 93 34
Width: 973
Flags: W
LayerCount: 2
Fore
SplineSet
416.25 -80 m 0,0,1
 401.25 -80 401.25 -80 390.75 -71.5 c 128,-1,2
 380.25 -63 380.25 -63 380.25 -55 c 0,3,4
 380.25 -33 380.25 -33 393.75 -25 c 128,-1,5
 407.25 -17 407.25 -17 427.25 -17 c 0,6,7
 451.25 -17 451.25 -17 464.75 -15 c 128,-1,8
 478.25 -13 478.25 -13 484.75 -8.5 c 128,-1,9
 491.25 -4 491.25 -4 492.75 3.5 c 128,-1,10
 494.25 11 494.25 11 494.25 21 c 2,11,-1
 494.25 551 l 2,12,13
 494.25 580 494.25 580 482.25 590 c 128,-1,14
 470.25 600 470.25 600 459.25 600 c 256,15,16
 448.25 600 448.25 600 436.25 598 c 128,-1,17
 424.25 596 424.25 596 413.25 596 c 0,18,19
 399.25 596 399.25 596 389.75 603 c 128,-1,20
 380.25 610 380.25 610 380.25 633 c 0,21,22
 380.25 645 380.25 645 396.75 653.5 c 128,-1,23
 413.25 662 413.25 662 442.25 662 c 0,24,25
 467.25 662 467.25 662 491.25 662 c 128,-1,26
 515.25 662 515.25 662 534.75 660.5 c 128,-1,27
 554.25 659 554.25 659 567.25 656 c 128,-1,28
 580.25 653 580.25 653 583.25 647 c 0,29,30
 586.25 642 586.25 642 586.75 625.5 c 128,-1,31
 587.25 609 587.25 609 587.25 570.5 c 128,-1,32
 587.25 532 587.25 532 587.75 466 c 128,-1,33
 588.25 400 588.25 400 589.25 295 c 0,34,35
 591.25 193 591.25 193 592.25 127.5 c 128,-1,36
 593.25 62 593.25 62 592.25 21 c 0,37,38
 592.25 -7 592.25 -7 588.25 -25 c 128,-1,39
 584.25 -43 584.25 -43 578.25 -54 c 128,-1,40
 572.25 -65 572.25 -65 563.75 -70 c 128,-1,41
 555.25 -75 555.25 -75 545.25 -76 c 0,42,43
 527.25 -78 527.25 -78 505.75 -79 c 128,-1,44
 484.25 -80 484.25 -80 465.25 -80 c 128,-1,45
 446.25 -80 446.25 -80 432.25 -80 c 128,-1,46
 418.25 -80 418.25 -80 416.25 -80 c 0,0,1
411.25 644 m 256,47,48
 407.25 649 407.25 649 400.25 645 c 128,-1,49
 393.25 641 393.25 641 393.25 633 c 0,50,51
 393.25 623 393.25 623 397.25 623 c 256,52,53
 401.25 623 401.25 623 401.25 630 c 0,54,55
 402.25 634 402.25 634 408.75 636.5 c 128,-1,56
 415.25 639 415.25 639 411.25 644 c 256,47,48
EndSplineSet
EndChar

StartChar: asciicircum.sinh
Encoding: 94 94 35
Width: 973
Flags: W
LayerCount: 2
Fore
SplineSet
238.5 267 m 1,0,-1
 450.5 719 l 1,1,-1
 500.5 719 l 1,2,-1
 734.5 267 l 1,3,-1
 656.5 267 l 1,4,-1
 476.5 626 l 1,5,-1
 316.5 267 l 1,6,-1
 238.5 267 l 1,0,-1
EndSplineSet
EndChar

StartChar: underscore.sinh
Encoding: 95 95 36
Width: 973
Flags: W
LayerCount: 2
Fore
SplineSet
710.5 -154 m 1,0,-1
 262.5 -154 l 1,1,-1
 262.5 -90 l 1,2,-1
 710.5 -90 l 1,3,-1
 710.5 -154 l 1,0,-1
EndSplineSet
EndChar

StartChar: braceleft.sinh
Encoding: 123 123 37
Width: 973
Flags: W
LayerCount: 2
Fore
SplineSet
563 -77 m 0,0,1
 510 -77 510 -77 480 -62 c 128,-1,2
 450 -47 450 -47 434.5 -21 c 128,-1,3
 419 5 419 5 414.5 39 c 128,-1,4
 410 73 410 73 408 111 c 0,5,6
 406 156 406 156 395.5 178 c 128,-1,7
 385 200 385 200 373.5 213 c 128,-1,8
 362 226 362 226 353 238 c 128,-1,9
 344 250 344 250 344 276 c 256,10,11
 344 302 344 302 357 315.5 c 128,-1,12
 370 329 370 329 386 345 c 128,-1,13
 402 361 402 361 416 387.5 c 128,-1,14
 430 414 430 414 432 466 c 0,15,16
 434 505 434 505 437 540.5 c 128,-1,17
 440 576 440 576 453.5 602.5 c 128,-1,18
 467 629 467 629 495.5 644.5 c 128,-1,19
 524 660 524 660 578 660 c 0,20,21
 593 660 593 660 603 656 c 128,-1,22
 613 652 613 652 619 646 c 128,-1,23
 625 640 625 640 627 633.5 c 128,-1,24
 629 627 629 627 629 622 c 0,25,26
 629 606 629 606 616.5 602 c 128,-1,27
 604 598 604 598 587 596.5 c 128,-1,28
 570 595 570 595 552 591 c 128,-1,29
 534 587 534 587 522 572 c 0,30,31
 514 562 514 562 515 540.5 c 128,-1,32
 516 519 516 519 519 492.5 c 128,-1,33
 522 466 522 466 523.5 436 c 128,-1,34
 525 406 525 406 519 378 c 0,35,36
 516 364 516 364 502.5 348 c 128,-1,37
 489 332 489 332 475 318 c 128,-1,38
 461 304 461 304 449.5 293 c 128,-1,39
 438 282 438 282 438 277 c 256,40,41
 438 272 438 272 449 260.5 c 128,-1,42
 460 249 460 249 473 232 c 128,-1,43
 486 215 486 215 497 192.5 c 128,-1,44
 508 170 508 170 508 143 c 0,45,46
 508 135 508 135 507 115.5 c 128,-1,47
 506 96 506 96 505.5 74.5 c 128,-1,48
 505 53 505 53 506.5 34 c 128,-1,49
 508 15 508 15 513 9 c 0,50,51
 522 -2 522 -2 535 -10 c 128,-1,52
 548 -18 548 -18 565 -18 c 0,53,54
 573 -18 573 -18 582.5 -18.5 c 128,-1,55
 592 -19 592 -19 599.5 -21.5 c 128,-1,56
 607 -24 607 -24 612 -30 c 128,-1,57
 617 -36 617 -36 617 -47 c 0,58,59
 617 -56 617 -56 611.5 -62 c 128,-1,60
 606 -68 606 -68 598 -71.5 c 128,-1,61
 590 -75 590 -75 580.5 -76 c 128,-1,62
 571 -77 571 -77 563 -77 c 0,0,1
482 584 m 0,63,64
 489 594 489 594 497.5 601.5 c 128,-1,65
 506 609 506 609 513.5 615 c 128,-1,66
 521 621 521 621 525.5 626 c 128,-1,67
 530 631 530 631 530 636 c 0,68,69
 530 640 530 640 525 640 c 0,70,71
 518 640 518 640 507 633 c 128,-1,72
 496 626 496 626 486 616 c 128,-1,73
 476 606 476 606 469 594.5 c 128,-1,74
 462 583 462 583 462 574 c 0,75,76
 462 572 462 572 464 571 c 128,-1,77
 466 570 466 570 467 570 c 0,78,79
 472 570 472 570 475.5 575 c 128,-1,80
 479 580 479 580 482 584 c 0,63,64
EndSplineSet
EndChar

StartChar: bar.sinh
Encoding: 124 124 38
Width: 973
Flags: W
LayerCount: 2
Fore
SplineSet
488.5 -99 m 256,0,1
 461.5 -99 461.5 -99 450 -80 c 128,-1,2
 438.5 -61 438.5 -61 438.5 -43 c 2,3,-1
 439.5 666 l 2,4,5
 439.5 682 439.5 682 450 694 c 128,-1,6
 460.5 706 460.5 706 480.5 706 c 0,7,8
 504.5 706 504.5 706 518.5 698 c 128,-1,9
 532.5 690 532.5 690 534.5 672 c 2,10,-1
 534.5 -38 l 2,11,12
 534.5 -60 534.5 -60 525 -79.5 c 128,-1,13
 515.5 -99 515.5 -99 488.5 -99 c 256,0,1
466.5 653 m 0,14,15
 466.5 664 466.5 664 469 671.5 c 128,-1,16
 471.5 679 471.5 679 473 683.5 c 128,-1,17
 474.5 688 474.5 688 474.5 690 c 128,-1,18
 474.5 692 474.5 692 469.5 692 c 0,19,20
 463.5 692 463.5 692 460 686.5 c 128,-1,21
 456.5 681 456.5 681 454.5 673.5 c 128,-1,22
 452.5 666 452.5 666 452 658.5 c 128,-1,23
 451.5 651 451.5 651 451.5 646 c 0,24,25
 451.5 633 451.5 633 454.5 622.5 c 128,-1,26
 457.5 612 457.5 612 463.5 612 c 0,27,28
 466.5 612 466.5 612 467 616.5 c 128,-1,29
 467.5 621 467.5 621 467.5 628 c 128,-1,30
 467.5 635 467.5 635 467 642 c 128,-1,31
 466.5 649 466.5 649 466.5 653 c 0,14,15
EndSplineSet
EndChar

StartChar: braceright.sinh
Encoding: 125 125 39
Width: 973
Flags: W
LayerCount: 2
Fore
SplineSet
412.5 -74 m 0,0,1
 405.5 -74 405.5 -74 396.5 -72.5 c 128,-1,2
 387.5 -71 387.5 -71 379 -67 c 128,-1,3
 370.5 -63 370.5 -63 364.5 -57 c 128,-1,4
 358.5 -51 358.5 -51 358.5 -42 c 0,5,6
 358.5 -34 358.5 -34 363.5 -29.5 c 128,-1,7
 368.5 -25 368.5 -25 375 -23 c 128,-1,8
 381.5 -21 381.5 -21 389.5 -21 c 128,-1,9
 397.5 -21 397.5 -21 403.5 -21 c 0,10,11
 430.5 -21 430.5 -21 442.5 -12.5 c 128,-1,12
 454.5 -4 454.5 -4 459 10.5 c 128,-1,13
 463.5 25 463.5 25 463.5 43 c 128,-1,14
 463.5 61 463.5 61 465.5 80 c 0,15,16
 467.5 97 467.5 97 469.5 122.5 c 128,-1,17
 471.5 148 471.5 148 477 175 c 128,-1,18
 482.5 202 482.5 202 491 226.5 c 128,-1,19
 499.5 251 499.5 251 512.5 264 c 0,20,21
 514.5 267 514.5 267 522.5 271.5 c 128,-1,22
 530.5 276 530.5 276 530.5 280 c 0,23,24
 530.5 286 530.5 286 519 289.5 c 128,-1,25
 507.5 293 507.5 293 503.5 296 c 0,26,27
 487.5 306 487.5 306 477 334 c 128,-1,28
 466.5 362 466.5 362 461 395 c 128,-1,29
 455.5 428 455.5 428 453 459 c 128,-1,30
 450.5 490 450.5 490 449.5 505 c 0,31,32
 448.5 514 448.5 514 449 529 c 128,-1,33
 449.5 544 449.5 544 448 558 c 128,-1,34
 446.5 572 446.5 572 443 583 c 128,-1,35
 439.5 594 439.5 594 430.5 596 c 0,36,37
 412.5 601 412.5 601 394.5 599 c 0,38,39
 365.5 597 365.5 597 353 605.5 c 128,-1,40
 340.5 614 340.5 614 340.5 631 c 0,41,42
 340.5 653 340.5 653 363 660.5 c 128,-1,43
 385.5 668 385.5 668 418.5 663 c 0,44,45
 454.5 659 454.5 659 478 642.5 c 128,-1,46
 501.5 626 501.5 626 515.5 603 c 128,-1,47
 529.5 580 529.5 580 536 553.5 c 128,-1,48
 542.5 527 542.5 527 544.5 502 c 0,49,50
 546.5 472 546.5 472 547.5 443 c 128,-1,51
 548.5 414 548.5 414 553 389 c 128,-1,52
 557.5 364 557.5 364 568 344.5 c 128,-1,53
 578.5 325 578.5 325 599.5 315 c 0,54,55
 608.5 311 608.5 311 620.5 301.5 c 128,-1,56
 632.5 292 632.5 292 632.5 281 c 0,57,58
 632.5 273 632.5 273 626.5 267.5 c 128,-1,59
 620.5 262 620.5 262 614.5 257 c 0,60,61
 594.5 242 594.5 242 585.5 227.5 c 128,-1,62
 576.5 213 576.5 213 573 197.5 c 128,-1,63
 569.5 182 569.5 182 569.5 164.5 c 128,-1,64
 569.5 147 569.5 147 568.5 126 c 0,65,66
 566.5 87 566.5 87 563 51 c 128,-1,67
 559.5 15 559.5 15 545 -12.5 c 128,-1,68
 530.5 -40 530.5 -40 499.5 -57 c 128,-1,69
 468.5 -74 468.5 -74 412.5 -74 c 0,0,1
365.5 616 m 0,70,71
 368.5 616 368.5 616 372 620.5 c 128,-1,72
 375.5 625 375.5 625 378 630.5 c 128,-1,73
 380.5 636 380.5 636 382 641.5 c 128,-1,74
 383.5 647 383.5 647 383.5 649 c 0,75,76
 383.5 656 383.5 656 376.5 656 c 0,77,78
 370.5 656 370.5 656 366.5 652 c 128,-1,79
 362.5 648 362.5 648 360 643 c 128,-1,80
 357.5 638 357.5 638 356.5 632.5 c 128,-1,81
 355.5 627 355.5 627 356.5 625 c 0,82,83
 359.5 616 359.5 616 365.5 616 c 0,70,71
EndSplineSet
EndChar

StartChar: asciitilde.sinh
Encoding: 126 126 40
Width: 973
Flags: W
LayerCount: 2
Fore
SplineSet
470 319 m 0,0,1
 434 335 434 335 410.5 340.5 c 128,-1,2
 387 346 387 346 365 346 c 0,3,4
 337 346 337 346 306 329 c 128,-1,5
 275 312 275 312 251 287 c 1,6,-1
 251 365 l 1,7,8
 275 391 275 391 305 404.5 c 128,-1,9
 335 418 335 418 371 418 c 0,10,11
 400 418 400 418 428.5 412 c 128,-1,12
 457 406 457 406 503 386 c 0,13,14
 539 370 539 370 562.5 364.5 c 128,-1,15
 586 359 586 359 607 359 c 0,16,17
 636 359 636 359 667 376 c 128,-1,18
 698 393 698 393 722 418 c 1,19,-1
 722 341 l 1,20,21
 698 315 698 315 668 301 c 128,-1,22
 638 287 638 287 602 287 c 0,23,24
 574 287 574 287 544.5 293.5 c 128,-1,25
 515 300 515 300 470 319 c 0,0,1
EndSplineSet
EndChar

StartChar: A
Encoding: 65 65 41
Width: 973
Flags: W
LayerCount: 2
Fore
SplineSet
442 -8 m 0,0,1
 375 -8 375 -8 337.5 71 c 128,-1,2
 300 150 300 150 300 291 c 0,3,4
 300 444 300 444 344 530 c 128,-1,5
 388 616 388 616 468 621 c 0,6,7
 497 623 497 623 515.5 614.5 c 128,-1,8
 534 606 534 606 546 595 c 128,-1,9
 558 584 558 584 564 575 c 128,-1,10
 570 566 570 566 573 566 c 256,11,12
 576 566 576 566 577 575 c 128,-1,13
 578 584 578 584 582 595 c 128,-1,14
 586 606 586 606 594.5 615 c 128,-1,15
 603 624 603 624 622 624 c 256,16,17
 641 624 641 624 654 615 c 128,-1,18
 667 606 667 606 667 592 c 2,19,-1
 667 204 l 2,20,21
 667 163 667 163 670 126.5 c 128,-1,22
 673 90 673 90 673 71 c 0,23,24
 673 36 673 36 659.5 14 c 128,-1,25
 646 -8 646 -8 625 -8 c 0,26,27
 601 -8 601 -8 586 19 c 128,-1,28
 571 46 571 46 571 88 c 0,29,30
 571 114 571 114 566 114 c 0,31,32
 562 114 562 114 555 95 c 128,-1,33
 548 76 548 76 534.5 53 c 128,-1,34
 521 30 521 30 499 11 c 128,-1,35
 477 -8 477 -8 442 -8 c 0,0,1
596 557 m 0,36,37
 600 557 600 557 601.5 563.5 c 128,-1,38
 603 570 603 570 605 577 c 0,39,40
 608 587 608 587 611 594 c 128,-1,41
 614 601 614 601 614 606 c 256,42,43
 614 611 614 611 610 611 c 0,44,45
 605 611 605 611 597 601 c 128,-1,46
 589 591 589 591 589 575 c 0,47,48
 589 567 589 567 591 562 c 128,-1,49
 593 557 593 557 596 557 c 0,36,37
466 90 m 0,50,51
 480 90 480 90 496 117 c 128,-1,52
 512 144 512 144 525.5 185.5 c 128,-1,53
 539 227 539 227 548 275.5 c 128,-1,54
 557 324 557 324 557 366 c 0,55,56
 557 399 557 399 551.5 428.5 c 128,-1,57
 546 458 546 458 536 480.5 c 128,-1,58
 526 503 526 503 513.5 516 c 128,-1,59
 501 529 501 529 487 529 c 0,60,61
 471 529 471 529 456 511.5 c 128,-1,62
 441 494 441 494 430.5 463.5 c 128,-1,63
 420 433 420 433 413.5 392.5 c 128,-1,64
 407 352 407 352 407 306 c 0,65,66
 407 265 407 265 412 226 c 128,-1,67
 417 187 417 187 425.5 157 c 128,-1,68
 434 127 434 127 444.5 108.5 c 128,-1,69
 455 90 455 90 466 90 c 0,50,51
394 33 m 0,70,71
 398 33 398 33 400.5 36.5 c 128,-1,72
 403 40 403 40 402 43 c 256,73,74
 401 46 401 46 396.5 51.5 c 128,-1,75
 392 57 392 57 386 64.5 c 128,-1,76
 380 72 380 72 374.5 80.5 c 128,-1,77
 369 89 369 89 367 97 c 0,78,79
 366 101 366 101 364.5 107.5 c 128,-1,80
 363 114 363 114 361 120.5 c 128,-1,81
 359 127 359 127 357 131.5 c 128,-1,82
 355 136 355 136 352 136 c 0,83,84
 347 136 347 136 347 122.5 c 128,-1,85
 347 109 347 109 354 89 c 0,86,87
 362 69 362 69 374 51 c 128,-1,88
 386 33 386 33 394 33 c 0,70,71
623 22 m 256,89,90
 623 25 623 25 619.5 29 c 128,-1,91
 616 33 616 33 611.5 38 c 128,-1,92
 607 43 607 43 603.5 49.5 c 128,-1,93
 600 56 600 56 600 63 c 0,94,95
 600 66 600 66 599 69 c 0,96,97
 597 74 597 74 593 74 c 0,98,99
 586 74 586 74 586 62 c 0,100,101
 586 46 586 46 595 29.5 c 128,-1,102
 604 13 604 13 613 13 c 0,103,104
 617 13 617 13 620 16 c 128,-1,105
 623 19 623 19 623 22 c 256,89,90
419 17 m 256,106,107
 422 17 422 17 425.5 21 c 128,-1,108
 429 25 429 25 430.5 29.5 c 128,-1,109
 432 34 432 34 430.5 38 c 128,-1,110
 429 42 429 42 423 42 c 0,111,112
 411 42 411 42 411 30 c 0,113,114
 411 25 411 25 413.5 21 c 128,-1,115
 416 17 416 17 419 17 c 256,106,107
EndSplineSet

EndChar

StartChar: B
Encoding: 66 66 42
Width: 973
Flags: W
LayerCount: 2
Fore
SplineSet
551.5 546 m 0,0,1
 511.5 546 511.5 546 483 574 c 128,-1,2
 454.5 602 454.5 602 454.5 646 c 0,3,4
 454.5 670 454.5 670 463 691.5 c 128,-1,5
 471.5 713 471.5 713 486.5 728.5 c 128,-1,6
 501.5 744 501.5 744 522.5 753.5 c 128,-1,7
 543.5 763 543.5 763 568.5 763 c 0,8,9
 588.5 763 588.5 763 605.5 754.5 c 128,-1,10
 622.5 746 622.5 746 634.5 731 c 128,-1,11
 646.5 716 646.5 716 653 697 c 128,-1,12
 659.5 678 659.5 678 659.5 657 c 0,13,14
 659.5 630 659.5 630 651 609.5 c 128,-1,15
 642.5 589 642.5 589 627.5 575 c 128,-1,16
 612.5 561 612.5 561 593 553.5 c 128,-1,17
 573.5 546 573.5 546 551.5 546 c 0,0,1
514.5 719 m 0,18,19
 521.5 726 521.5 726 523 731 c 128,-1,20
 524.5 736 524.5 736 522.5 736 c 0,21,22
 514.5 736 514.5 736 505.5 728.5 c 128,-1,23
 496.5 721 496.5 721 489 710.5 c 128,-1,24
 481.5 700 481.5 700 476.5 688 c 128,-1,25
 471.5 676 471.5 676 471.5 666 c 0,26,27
 471.5 664 471.5 664 473 658 c 128,-1,28
 474.5 652 474.5 652 477.5 652 c 0,29,30
 481.5 652 481.5 652 487.5 674 c 0,31,32
 490.5 688 490.5 688 498.5 699.5 c 128,-1,33
 506.5 711 506.5 711 514.5 719 c 0,18,19
555.5 603 m 0,34,35
 567.5 603 567.5 603 584 617 c 128,-1,36
 600.5 631 600.5 631 600.5 657 c 0,37,38
 600.5 677 600.5 677 590 690.5 c 128,-1,39
 579.5 704 579.5 704 562.5 704 c 256,40,41
 545.5 704 545.5 704 531.5 690.5 c 128,-1,42
 517.5 677 517.5 677 517.5 653 c 256,43,44
 517.5 629 517.5 629 528.5 616 c 128,-1,45
 539.5 603 539.5 603 555.5 603 c 0,34,35
358.5 655 m 0,46,47
 338.5 655 338.5 655 321.5 640 c 128,-1,48
 304.5 625 304.5 625 304.5 586 c 2,49,-1
 304.5 91 l 2,50,51
 304.5 70 304.5 70 313 53 c 128,-1,52
 321.5 36 321.5 36 336 24.5 c 128,-1,53
 350.5 13 350.5 13 369 7 c 128,-1,54
 387.5 1 387.5 1 407.5 1 c 2,55,-1
 466.5 1 l 2,56,57
 497.5 1 497.5 1 533 13 c 128,-1,58
 568.5 25 568.5 25 598.5 51 c 128,-1,59
 628.5 77 628.5 77 648.5 119 c 128,-1,60
 668.5 161 668.5 161 668.5 220 c 256,61,62
 668.5 279 668.5 279 649 325.5 c 128,-1,63
 629.5 372 629.5 372 600.5 403.5 c 128,-1,64
 571.5 435 571.5 435 537.5 451.5 c 128,-1,65
 503.5 468 503.5 468 473.5 468 c 2,66,-1
 444.5 468 l 2,67,68
 435.5 468 435.5 468 427 472 c 128,-1,69
 418.5 476 418.5 476 418.5 485 c 2,70,-1
 418.5 590 l 2,71,72
 418.5 608 418.5 608 413 620 c 128,-1,73
 407.5 632 407.5 632 398.5 640 c 128,-1,74
 389.5 648 389.5 648 379 651.5 c 128,-1,75
 368.5 655 368.5 655 358.5 655 c 0,46,47
462.5 379 m 2,76,77
 479.5 379 479.5 379 495.5 371 c 128,-1,78
 511.5 363 511.5 363 525 345.5 c 128,-1,79
 538.5 328 538.5 328 546.5 300 c 128,-1,80
 554.5 272 554.5 272 554.5 232 c 0,81,82
 554.5 189 554.5 189 546.5 160.5 c 128,-1,83
 538.5 132 538.5 132 525.5 115.5 c 128,-1,84
 512.5 99 512.5 99 496.5 92 c 128,-1,85
 480.5 85 480.5 85 465.5 85 c 2,86,-1
 443.5 85 l 2,87,88
 418.5 85 418.5 85 418.5 119 c 2,89,-1
 418.5 356 l 2,90,91
 418.5 379 418.5 379 449.5 379 c 2,92,-1
 462.5 379 l 2,76,77
344.5 620 m 256,93,94
 339.5 615 339.5 615 336 602 c 128,-1,95
 332.5 589 332.5 589 332.5 550.5 c 128,-1,96
 332.5 512 332.5 512 325.5 512 c 0,97,98
 320.5 512 320.5 512 319 520.5 c 128,-1,99
 317.5 529 317.5 529 317.5 541 c 0,100,101
 317.5 603 317.5 603 324.5 619 c 128,-1,102
 331.5 635 331.5 635 341.5 635 c 0,103,104
 343.5 635 343.5 635 346.5 633 c 128,-1,105
 349.5 631 349.5 631 349.5 629 c 0,106,107
 349.5 625 349.5 625 344.5 620 c 256,93,94
EndSplineSet
EndChar

StartChar: C
Encoding: 67 67 43
Width: 973
Flags: W
LayerCount: 2
Fore
SplineSet
532.5 584 m 0
 492.5 584 492.5 584 464 612 c 0
 435.5 640 435.5 640 435.5 684 c 0
 435.5 708 435.5 708 444 729.5 c 0
 452.5 751 452.5 751 467.5 766.5 c 0
 482.5 782 482.5 782 503.5 791.5 c 0
 524.5 801 524.5 801 549.5 801 c 0
 569.5 801 569.5 801 586.5 792.5 c 0
 603.5 784 603.5 784 615.5 769 c 0
 627.5 754 627.5 754 634 735 c 0
 640.5 716 640.5 716 640.5 695 c 0
 640.5 668 640.5 668 632 647.5 c 0
 623.5 627 623.5 627 608.5 613 c 0
 593.5 599 593.5 599 574 591.5 c 0
 554.5 584 554.5 584 532.5 584 c 0
495.5 757 m 0
 502.5 764 502.5 764 504 769 c 0
 505.5 774 505.5 774 503.5 774 c 0
 495.5 774 495.5 774 486.5 766.5 c 0
 477.5 759 477.5 759 470 748.5 c 0
 462.5 738 462.5 738 457.5 726 c 0
 452.5 714 452.5 714 452.5 704 c 0
 452.5 702 452.5 702 454 696 c 0
 455.5 690 455.5 690 458.5 690 c 0
 462.5 690 462.5 690 468.5 712 c 0
 471.5 726 471.5 726 479.5 737.5 c 0
 487.5 749 487.5 749 495.5 757 c 0
536.5 641 m 0
 548.5 641 548.5 641 565 655 c 0
 581.5 669 581.5 669 581.5 695 c 0
 581.5 715 581.5 715 571 728.5 c 0
 560.5 742 560.5 742 543.5 742 c 256
 526.5 742 526.5 742 512.5 728.5 c 0
 498.5 715 498.5 715 498.5 691 c 256
 498.5 667 498.5 667 509.5 654 c 0
 520.5 641 520.5 641 536.5 641 c 0
EndSplineSet
Refer: 69 99 N 1 0 0 1 0 -15 2
EndChar

StartChar: D
Encoding: 68 68 44
Width: 973
Flags: W
LayerCount: 2
Fore
SplineSet
387 0 m 2,0,1
 369 0 369 0 352.5 4 c 128,-1,2
 336 8 336 8 323.5 18 c 128,-1,3
 311 28 311 28 303.5 45 c 128,-1,4
 296 62 296 62 296 88 c 2,5,-1
 296 516 l 2,6,7
 296 543 296 543 305.5 562.5 c 128,-1,8
 315 582 315 582 330.5 594.5 c 128,-1,9
 346 607 346 607 367 612.5 c 128,-1,10
 388 618 388 618 411 618 c 2,11,-1
 456 618 l 2,12,13
 499 618 499 618 539 598.5 c 128,-1,14
 579 579 579 579 609.5 541.5 c 128,-1,15
 640 504 640 504 658.5 449.5 c 128,-1,16
 677 395 677 395 677 326 c 0,17,18
 677 253 677 253 658 192.5 c 128,-1,19
 639 132 639 132 607 89.5 c 128,-1,20
 575 47 575 47 532 23.5 c 128,-1,21
 489 0 489 0 442 0 c 2,22,-1
 387 0 l 2,0,1
437 96 m 2,23,24
 463 96 463 96 486 112.5 c 128,-1,25
 509 129 509 129 525.5 159.5 c 128,-1,26
 542 190 542 190 551.5 233 c 128,-1,27
 561 276 561 276 561 329 c 0,28,29
 561 424 561 424 531 472 c 128,-1,30
 501 520 501 520 453 520 c 2,31,-1
 438 520 l 2,32,33
 421 520 421 520 415.5 512.5 c 128,-1,34
 410 505 410 505 410 480 c 2,35,-1
 410 132 l 2,36,37
 410 112 410 112 413.5 104 c 128,-1,38
 417 96 417 96 424 96 c 2,39,-1
 437 96 l 2,23,24
327 83 m 0,40,41
 331 83 331 83 332.5 93.5 c 128,-1,42
 334 104 334 104 334 117.5 c 128,-1,43
 334 131 334 131 333.5 143.5 c 128,-1,44
 333 156 333 156 333 161 c 0,45,46
 333 216 333 216 327 216 c 0,47,48
 324 216 324 216 321 203.5 c 128,-1,49
 318 191 318 191 318 161 c 0,50,51
 318 116 318 116 318.5 99.5 c 128,-1,52
 319 83 319 83 327 83 c 0,40,41
326 69 m 0,53,54
 319 69 319 69 319 58 c 0,55,56
 319 40 319 40 327 40 c 0,57,58
 330 40 330 40 332 46 c 128,-1,59
 334 52 334 52 334 58 c 0,60,61
 334 69 334 69 326 69 c 0,53,54
EndSplineSet

EndChar

StartChar: E
Encoding: 69 69 45
Width: 973
Flags: W
LayerCount: 2
Fore
SplineSet
497 -4 m 0,0,1
 459 -4 459 -4 427.5 1.5 c 128,-1,2
 396 7 396 7 373 21 c 128,-1,3
 350 35 350 35 337.5 58.5 c 128,-1,4
 325 82 325 82 325 118 c 2,5,-1
 325 527 l 2,6,7
 325 553 325 553 332.5 570.5 c 128,-1,8
 340 588 340 588 351.5 598 c 128,-1,9
 363 608 363 608 376.5 612 c 128,-1,10
 390 616 390 616 403 616 c 2,11,-1
 598 616 l 2,12,13
 616 616 616 616 625 602 c 128,-1,14
 634 588 634 588 634 571 c 256,15,16
 634 554 634 554 626 537.5 c 128,-1,17
 618 521 618 521 602 520 c 2,18,-1
 461 516 l 2,19,20
 451 516 451 516 445 509 c 128,-1,21
 439 502 439 502 439 492 c 2,22,-1
 439 400 l 2,23,24
 439 370 439 370 461 370 c 2,25,-1
 580 371 l 2,26,27
 600 371 600 371 606.5 355 c 128,-1,28
 613 339 613 339 613 319 c 0,29,30
 613 306 613 306 607 293 c 128,-1,31
 601 280 601 280 581 279 c 2,32,-1
 466 275 l 2,33,34
 450 274 450 274 444.5 267 c 128,-1,35
 439 260 439 260 439 244 c 2,36,-1
 439 178 l 2,37,38
 439 157 439 157 440 140.5 c 128,-1,39
 441 124 441 124 447 112.5 c 128,-1,40
 453 101 453 101 466.5 95 c 128,-1,41
 480 89 480 89 505 89 c 0,42,43
 522 89 522 89 538.5 93.5 c 128,-1,44
 555 98 555 98 570.5 104 c 128,-1,45
 586 110 586 110 599 114.5 c 128,-1,46
 612 119 612 119 622 119 c 0,47,48
 629 119 629 119 634 113.5 c 128,-1,49
 639 108 639 108 642 99.5 c 128,-1,50
 645 91 645 91 646.5 82 c 128,-1,51
 648 73 648 73 648 65 c 0,52,53
 648 45 648 45 630 31.5 c 128,-1,54
 612 18 612 18 587.5 10 c 128,-1,55
 563 2 563 2 537.5 -1 c 128,-1,56
 512 -4 512 -4 497 -4 c 0,0,1
389 60 m 0,57,58
 377 76 377 76 368 91.5 c 128,-1,59
 359 107 359 107 357 122 c 0,60,61
 354 136 354 136 348 135 c 0,62,63
 340 135 340 135 343 117 c 0,64,65
 344 108 344 108 348.5 95 c 128,-1,66
 353 82 353 82 359 71 c 128,-1,67
 365 60 365 60 373 52.5 c 128,-1,68
 381 45 381 45 390 46 c 0,69,70
 398 48 398 48 389 60 c 0,57,58
EndSplineSet

EndChar

StartChar: F
Encoding: 70 70 46
Width: 973
Flags: W
LayerCount: 2
Fore
SplineSet
398 0 m 0,0,1
 371 0 371 0 353.5 9.5 c 128,-1,2
 336 19 336 19 336 49 c 2,3,-1
 336 543 l 2,4,5
 336 582 336 582 364.5 599.5 c 128,-1,6
 393 617 393 617 438 617 c 2,7,-1
 608 616 l 2,8,9
 619 616 619 616 628 604.5 c 128,-1,10
 637 593 637 593 637 579 c 0,11,12
 637 572 637 572 635.5 561.5 c 128,-1,13
 634 551 634 551 631 541.5 c 128,-1,14
 628 532 628 532 623.5 525.5 c 128,-1,15
 619 519 619 519 613 519 c 2,16,-1
 476 520 l 2,17,18
 450 520 450 520 450 494 c 2,19,-1
 450 345 l 2,20,21
 450 335 450 335 456.5 330.5 c 128,-1,22
 463 326 463 326 473 326 c 2,23,-1
 579 329 l 2,24,25
 587 329 587 329 593 324 c 128,-1,26
 599 319 599 319 604 310.5 c 128,-1,27
 609 302 609 302 611.5 293 c 128,-1,28
 614 284 614 284 614 276 c 0,29,30
 614 237 614 237 576 236 c 2,31,-1
 470 233 l 2,32,33
 462 233 462 233 456 227 c 128,-1,34
 450 221 450 221 450 213 c 2,35,-1
 450 48 l 2,36,37
 450 32 450 32 445.5 22.5 c 128,-1,38
 441 13 441 13 433.5 8 c 128,-1,39
 426 3 426 3 416.5 1.5 c 128,-1,40
 407 0 407 0 398 0 c 0,0,1
386 26 m 0,41,42
 385 31 385 31 376.5 42 c 128,-1,43
 368 53 368 53 366 78 c 0,44,45
 364 91 364 91 360.5 94 c 128,-1,46
 357 97 357 97 355 97 c 256,47,48
 353 97 353 97 351.5 91 c 128,-1,49
 350 85 350 85 352 75 c 0,50,51
 352 70 352 70 354 60.5 c 128,-1,52
 356 51 356 51 359.5 41.5 c 128,-1,53
 363 32 363 32 368 25 c 128,-1,54
 373 18 373 18 380 19 c 0,55,56
 386 19 386 19 386 26 c 0,41,42
EndSplineSet

EndChar

StartChar: G
Encoding: 71 71 47
Width: 973
Flags: W
LayerCount: 2
Fore
SplineSet
516.5 621 m 0,0,1
 476.5 621 476.5 621 448 649 c 128,-1,2
 419.5 677 419.5 677 419.5 721 c 0,3,4
 419.5 745 419.5 745 428 766.5 c 128,-1,5
 436.5 788 436.5 788 451.5 803.5 c 128,-1,6
 466.5 819 466.5 819 487.5 828.5 c 128,-1,7
 508.5 838 508.5 838 533.5 838 c 0,8,9
 553.5 838 553.5 838 570.5 829.5 c 128,-1,10
 587.5 821 587.5 821 599.5 806 c 128,-1,11
 611.5 791 611.5 791 618 772 c 128,-1,12
 624.5 753 624.5 753 624.5 732 c 0,13,14
 624.5 705 624.5 705 616 684.5 c 128,-1,15
 607.5 664 607.5 664 592.5 650 c 128,-1,16
 577.5 636 577.5 636 558 628.5 c 128,-1,17
 538.5 621 538.5 621 516.5 621 c 0,0,1
479.5 794 m 0,18,19
 486.5 801 486.5 801 488 806 c 128,-1,20
 489.5 811 489.5 811 487.5 811 c 0,21,22
 479.5 811 479.5 811 470.5 803.5 c 128,-1,23
 461.5 796 461.5 796 454 785.5 c 128,-1,24
 446.5 775 446.5 775 441.5 763 c 128,-1,25
 436.5 751 436.5 751 436.5 741 c 0,26,27
 436.5 739 436.5 739 438 733 c 128,-1,28
 439.5 727 439.5 727 442.5 727 c 0,29,30
 446.5 727 446.5 727 452.5 749 c 0,31,32
 455.5 763 455.5 763 463.5 774.5 c 128,-1,33
 471.5 786 471.5 786 479.5 794 c 0,18,19
520.5 678 m 0,34,35
 532.5 678 532.5 678 549 692 c 128,-1,36
 565.5 706 565.5 706 565.5 732 c 0,37,38
 565.5 752 565.5 752 555 765.5 c 128,-1,39
 544.5 779 544.5 779 527.5 779 c 256,40,41
 510.5 779 510.5 779 496.5 765.5 c 128,-1,42
 482.5 752 482.5 752 482.5 728 c 256,43,44
 482.5 704 482.5 704 493.5 691 c 128,-1,45
 504.5 678 504.5 678 520.5 678 c 0,34,35
485.5 -37 m 0,46,47
 422.5 -37 422.5 -37 382 -4 c 128,-1,48
 341.5 29 341.5 29 318.5 79 c 128,-1,49
 295.5 129 295.5 129 287 187 c 128,-1,50
 278.5 245 278.5 245 278.5 296 c 0,51,52
 278.5 352 278.5 352 292 405.5 c 128,-1,53
 305.5 459 305.5 459 334 500.5 c 128,-1,54
 362.5 542 362.5 542 408 567.5 c 128,-1,55
 453.5 593 453.5 593 517.5 593 c 0,56,57
 544.5 593 544.5 593 574 587 c 128,-1,58
 603.5 581 603.5 581 628 564.5 c 128,-1,59
 652.5 548 652.5 548 669 520 c 128,-1,60
 685.5 492 685.5 492 685.5 448 c 0,61,62
 685.5 432 685.5 432 679 422.5 c 128,-1,63
 672.5 413 672.5 413 663 407.5 c 128,-1,64
 653.5 402 653.5 402 643.5 400.5 c 128,-1,65
 633.5 399 633.5 399 627.5 399 c 0,66,67
 613.5 399 613.5 399 601 409 c 128,-1,68
 588.5 419 588.5 419 588.5 448 c 0,69,70
 588.5 471 588.5 471 580.5 483 c 128,-1,71
 572.5 495 572.5 495 561.5 500.5 c 128,-1,72
 550.5 506 550.5 506 540 507 c 128,-1,73
 529.5 508 529.5 508 523.5 508 c 0,74,75
 497.5 508 497.5 508 474.5 492.5 c 128,-1,76
 451.5 477 451.5 477 434 448 c 128,-1,77
 416.5 419 416.5 419 406.5 377 c 128,-1,78
 396.5 335 396.5 335 396.5 282 c 0,79,80
 396.5 253 396.5 253 400 213 c 128,-1,81
 403.5 173 403.5 173 415.5 137 c 128,-1,82
 427.5 101 427.5 101 449.5 75.5 c 128,-1,83
 471.5 50 471.5 50 507.5 50 c 0,84,85
 530.5 50 530.5 50 547.5 65 c 128,-1,86
 564.5 80 564.5 80 576 102 c 128,-1,87
 587.5 124 587.5 124 593.5 148.5 c 128,-1,88
 599.5 173 599.5 173 598.5 192 c 0,89,90
 597.5 208 597.5 208 579 209.5 c 128,-1,91
 560.5 211 560.5 211 537.5 211 c 2,92,-1
 475.5 211 l 2,93,94
 469.5 211 469.5 211 464.5 217 c 128,-1,95
 459.5 223 459.5 223 456.5 231.5 c 128,-1,96
 453.5 240 453.5 240 451.5 249 c 128,-1,97
 449.5 258 449.5 258 449.5 264 c 0,98,99
 449.5 280 449.5 280 460 292.5 c 128,-1,100
 470.5 305 470.5 305 493.5 305 c 2,101,-1
 618.5 304 l 2,102,103
 631.5 304 631.5 304 645 298.5 c 128,-1,104
 658.5 293 658.5 293 669 282.5 c 128,-1,105
 679.5 272 679.5 272 686.5 255.5 c 128,-1,106
 693.5 239 693.5 239 693.5 216 c 0,107,108
 693.5 181 693.5 181 694 151 c 128,-1,109
 694.5 121 694.5 121 694.5 77 c 0,110,111
 694.5 43 694.5 43 692 22 c 128,-1,112
 689.5 1 689.5 1 683.5 -11 c 128,-1,113
 677.5 -23 677.5 -23 669 -27.5 c 128,-1,114
 660.5 -32 660.5 -32 648.5 -32 c 0,115,116
 631.5 -32 631.5 -32 623.5 -19.5 c 128,-1,117
 615.5 -7 615.5 -7 612 8 c 128,-1,118
 608.5 23 608.5 23 607.5 35.5 c 128,-1,119
 606.5 48 606.5 48 603.5 48 c 256,120,121
 600.5 48 600.5 48 594.5 34.5 c 128,-1,122
 588.5 21 588.5 21 575.5 5.5 c 128,-1,123
 562.5 -10 562.5 -10 541.5 -23.5 c 128,-1,124
 520.5 -37 520.5 -37 485.5 -37 c 0,46,47
390.5 44 m 0,125,126
 390.5 49 390.5 49 374.5 72 c 0,127,128
 367.5 83 367.5 83 360.5 97.5 c 128,-1,129
 353.5 112 353.5 112 348.5 126 c 128,-1,130
 343.5 140 343.5 140 340.5 152 c 128,-1,131
 337.5 164 337.5 164 338.5 168 c 0,132,133
 339.5 173 339.5 173 336.5 175.5 c 128,-1,134
 333.5 178 333.5 178 332.5 178 c 0,135,136
 324.5 178 324.5 178 322.5 167 c 256,137,138
 320.5 156 320.5 156 326 135 c 128,-1,139
 331.5 114 331.5 114 341 93 c 128,-1,140
 350.5 72 350.5 72 362 56 c 128,-1,141
 373.5 40 373.5 40 382.5 39 c 0,142,143
 389.5 37 389.5 37 390.5 44 c 0,125,126
653.5 -7 m 0,144,145
 653.5 1 653.5 1 645.5 6.5 c 128,-1,146
 637.5 12 637.5 12 636.5 24 c 0,147,148
 636.5 27 636.5 27 636 35 c 128,-1,149
 635.5 43 635.5 43 630.5 43 c 256,150,151
 625.5 43 625.5 43 624.5 36.5 c 128,-1,152
 623.5 30 623.5 30 623.5 25 c 256,153,154
 623.5 20 623.5 20 625 12.5 c 128,-1,155
 626.5 5 626.5 5 629.5 -1.5 c 128,-1,156
 632.5 -8 632.5 -8 636.5 -13 c 128,-1,157
 640.5 -18 640.5 -18 645.5 -18 c 256,158,159
 650.5 -18 650.5 -18 652 -14 c 128,-1,160
 653.5 -10 653.5 -10 653.5 -7 c 0,144,145
410.5 27 m 0,161,162
 411.5 30 411.5 30 409 32.5 c 128,-1,163
 406.5 35 406.5 35 404.5 35 c 0,164,165
 400.5 36 400.5 36 399 33 c 128,-1,166
 397.5 30 397.5 30 396.5 28 c 0,167,168
 395.5 23 395.5 23 398 21.5 c 128,-1,169
 400.5 20 400.5 20 402.5 20 c 0,170,171
 408.5 20 408.5 20 410.5 27 c 0,161,162
EndSplineSet
EndChar

StartChar: H
Encoding: 72 72 48
Width: 973
Flags: W
LayerCount: 2
Fore
SplineSet
605.5 0 m 256,0,1
 588.5 0 588.5 0 578.5 9.5 c 128,-1,2
 568.5 19 568.5 19 563.5 33 c 128,-1,3
 558.5 47 558.5 47 557 63 c 128,-1,4
 555.5 79 555.5 79 555.5 92 c 2,5,-1
 555.5 238 l 2,6,7
 555.5 242 555.5 242 555.5 247 c 128,-1,8
 555.5 252 555.5 252 554.5 256.5 c 128,-1,9
 553.5 261 553.5 261 550.5 263.5 c 128,-1,10
 547.5 266 547.5 266 542.5 264 c 2,11,-1
 435.5 233 l 2,12,13
 426.5 231 426.5 231 422 229 c 128,-1,14
 417.5 227 417.5 227 417.5 217 c 2,15,-1
 417.5 105 l 2,16,17
 417.5 93 417.5 93 415.5 75 c 128,-1,18
 413.5 57 413.5 57 408 40.5 c 128,-1,19
 402.5 24 402.5 24 392.5 12 c 128,-1,20
 382.5 0 382.5 0 365.5 0 c 0,21,22
 344.5 0 344.5 0 332.5 10.5 c 128,-1,23
 320.5 21 320.5 21 314.5 37 c 128,-1,24
 308.5 53 308.5 53 307 71 c 128,-1,25
 305.5 89 305.5 89 305.5 105 c 2,26,-1
 305.5 542 l 2,27,28
 305.5 567 305.5 567 320 589.5 c 128,-1,29
 334.5 612 334.5 612 362.5 612 c 0,30,31
 376.5 612 376.5 612 387 605.5 c 128,-1,32
 397.5 599 397.5 599 404.5 588.5 c 128,-1,33
 411.5 578 411.5 578 414.5 565 c 128,-1,34
 417.5 552 417.5 552 417.5 540 c 2,35,-1
 417.5 339 l 2,36,37
 417.5 332 417.5 332 419.5 324.5 c 128,-1,38
 421.5 317 421.5 317 430.5 319 c 2,39,-1
 544.5 349 l 2,40,41
 553.5 351 553.5 351 554.5 356 c 128,-1,42
 555.5 361 555.5 361 555.5 368 c 2,43,-1
 555.5 540 l 2,44,45
 555.5 551 555.5 551 557 564 c 128,-1,46
 558.5 577 558.5 577 563.5 588.5 c 128,-1,47
 568.5 600 568.5 600 577.5 608 c 128,-1,48
 586.5 616 586.5 616 600.5 616 c 0,49,50
 633.5 616 633.5 616 650.5 591.5 c 128,-1,51
 667.5 567 667.5 567 667.5 537 c 2,52,-1
 667.5 91 l 2,53,54
 667.5 78 667.5 78 664 62 c 128,-1,55
 660.5 46 660.5 46 653 32 c 128,-1,56
 645.5 18 645.5 18 634 9 c 128,-1,57
 622.5 0 622.5 0 605.5 0 c 256,0,1
576.5 552 m 256,58,59
 579.5 552 579.5 552 584 558 c 128,-1,60
 588.5 564 588.5 564 592.5 571.5 c 128,-1,61
 596.5 579 596.5 579 599 586.5 c 128,-1,62
 601.5 594 601.5 594 601.5 597 c 256,63,64
 601.5 600 601.5 600 597.5 600 c 0,65,66
 585.5 600 585.5 600 578.5 586 c 128,-1,67
 571.5 572 571.5 572 571.5 562 c 0,68,69
 571.5 560 571.5 560 572.5 556 c 128,-1,70
 573.5 552 573.5 552 576.5 552 c 256,58,59
347.5 30 m 1,71,72
 346.5 36 346.5 36 344.5 40.5 c 128,-1,73
 342.5 45 342.5 45 340 50.5 c 128,-1,74
 337.5 56 337.5 56 336 64.5 c 128,-1,75
 334.5 73 334.5 73 334.5 86 c 0,76,77
 334.5 90 334.5 90 333.5 96.5 c 128,-1,78
 332.5 103 332.5 103 327.5 103 c 0,79,80
 323.5 103 323.5 103 322.5 96 c 128,-1,81
 321.5 89 321.5 89 321.5 86 c 0,82,83
 321.5 82 321.5 82 322.5 72 c 128,-1,84
 323.5 62 323.5 62 325.5 52 c 128,-1,85
 327.5 42 327.5 42 331.5 34.5 c 128,-1,86
 335.5 27 335.5 27 341.5 27 c 2,87,-1
 347.5 30 l 1,71,72
596.5 20 m 0,88,89
 596.5 22 596.5 22 595.5 23 c 128,-1,90
 594.5 24 594.5 24 593.5 26 c 0,91,92
 586.5 35 586.5 35 582.5 50.5 c 128,-1,93
 578.5 66 578.5 66 578.5 77 c 1,94,-1
 576.5 81 l 1,95,96
 571.5 81 571.5 81 570.5 71 c 128,-1,97
 569.5 61 569.5 61 569.5 58 c 0,98,99
 569.5 47 569.5 47 574 32 c 128,-1,100
 578.5 17 578.5 17 593.5 17 c 0,101,102
 596.5 17 596.5 17 596.5 20 c 0,88,89
EndSplineSet
EndChar

StartChar: I
Encoding: 73 73 49
Width: 973
Flags: W
LayerCount: 2
Fore
SplineSet
353.5 484 m 1,0,-1
 463.5 792 l 1,1,-1
 513.5 792 l 1,2,-1
 619.5 484 l 1,3,-1
 541.5 484 l 1,4,-1
 489.5 699 l 1,5,-1
 431.5 484 l 1,6,-1
 353.5 484 l 1,0,-1
481.5 -4 m 256,7,8
 457.5 -4 457.5 -4 444.5 6.5 c 128,-1,9
 431.5 17 431.5 17 431.5 32 c 2,10,-1
 431.5 387 l 2,11,12
 431.5 396 431.5 396 434 408 c 128,-1,13
 436.5 420 436.5 420 442 430 c 128,-1,14
 447.5 440 447.5 440 457 447 c 128,-1,15
 466.5 454 466.5 454 481.5 454 c 256,16,17
 496.5 454 496.5 454 507 448 c 128,-1,18
 517.5 442 517.5 442 524 433 c 128,-1,19
 530.5 424 530.5 424 534 413 c 128,-1,20
 537.5 402 537.5 402 537.5 392 c 2,21,-1
 537.5 32 l 2,22,23
 537.5 16 537.5 16 521.5 6 c 128,-1,24
 505.5 -4 505.5 -4 481.5 -4 c 256,7,8
449.5 359 m 0,25,26
 452.5 359 452.5 359 453.5 365 c 128,-1,27
 454.5 371 454.5 371 454.5 379.5 c 128,-1,28
 454.5 388 454.5 388 455 397.5 c 128,-1,29
 455.5 407 455.5 407 457.5 413 c 0,30,31
 458.5 417 458.5 417 460.5 424 c 128,-1,32
 462.5 431 462.5 431 459.5 431 c 0,33,34
 454.5 431 454.5 431 451 425.5 c 128,-1,35
 447.5 420 447.5 420 445 412.5 c 128,-1,36
 442.5 405 442.5 405 441.5 396.5 c 128,-1,37
 440.5 388 440.5 388 440.5 383 c 0,38,39
 440.5 376 440.5 376 442.5 367.5 c 128,-1,40
 444.5 359 444.5 359 449.5 359 c 0,25,26
EndSplineSet
EndChar

StartChar: J
Encoding: 74 74 50
Width: 973
Flags: W
LayerCount: 2
Fore
SplineSet
489.5 -8 m 0,0,1
 444.5 -8 444.5 -8 412.5 4.5 c 128,-1,2
 380.5 17 380.5 17 360.5 38.5 c 128,-1,3
 340.5 60 340.5 60 331.5 88.5 c 128,-1,4
 322.5 117 322.5 117 322.5 149 c 0,5,6
 322.5 203 322.5 203 335.5 221.5 c 128,-1,7
 348.5 240 348.5 240 364.5 240 c 0,8,9
 372.5 240 372.5 240 381.5 238 c 128,-1,10
 390.5 236 390.5 236 398.5 230.5 c 128,-1,11
 406.5 225 406.5 225 411.5 215 c 128,-1,12
 416.5 205 416.5 205 416.5 188 c 0,13,14
 416.5 172 416.5 172 418 153 c 128,-1,15
 419.5 134 419.5 134 425 118 c 128,-1,16
 430.5 102 430.5 102 441.5 91.5 c 128,-1,17
 452.5 81 452.5 81 472.5 81 c 0,18,19
 490.5 81 490.5 81 502.5 86 c 128,-1,20
 514.5 91 514.5 91 522 104.5 c 128,-1,21
 529.5 118 529.5 118 532.5 141 c 128,-1,22
 535.5 164 535.5 164 535.5 199 c 0,23,24
 535.5 237 535.5 237 536 290 c 128,-1,25
 536.5 343 536.5 343 536.5 412 c 2,26,-1
 536.5 517 l 2,27,28
 536.5 525 536.5 525 529 530.5 c 128,-1,29
 521.5 536 521.5 536 513.5 536 c 2,30,-1
 472.5 536 l 2,31,32
 418.5 536 418.5 536 396 546 c 128,-1,33
 373.5 556 373.5 556 373.5 579 c 0,34,35
 373.5 594 373.5 594 381.5 601.5 c 128,-1,36
 389.5 609 389.5 609 407.5 612 c 128,-1,37
 425.5 615 425.5 615 454.5 615.5 c 128,-1,38
 483.5 616 483.5 616 525.5 616 c 0,39,40
 585.5 616 585.5 616 615 609 c 128,-1,41
 644.5 602 644.5 602 649.5 584 c 0,42,43
 650.5 581 650.5 581 650.5 558.5 c 128,-1,44
 650.5 536 650.5 536 650.5 502.5 c 128,-1,45
 650.5 469 650.5 469 650 429.5 c 128,-1,46
 649.5 390 649.5 390 649.5 353 c 0,47,48
 648.5 289 648.5 289 648.5 247 c 128,-1,49
 648.5 205 648.5 205 648 177 c 128,-1,50
 647.5 149 647.5 149 645 129.5 c 128,-1,51
 642.5 110 642.5 110 637.5 90 c 0,52,53
 630.5 65 630.5 65 614.5 46.5 c 128,-1,54
 598.5 28 598.5 28 577.5 16 c 128,-1,55
 556.5 4 556.5 4 533.5 -2 c 128,-1,56
 510.5 -8 510.5 -8 489.5 -8 c 0,0,1
429.5 594 m 0,57,58
 431.5 599 431.5 599 427.5 600 c 0,59,60
 420.5 602 420.5 602 407 598 c 128,-1,61
 393.5 594 393.5 594 391.5 587 c 0,62,63
 390.5 584 390.5 584 391.5 580.5 c 128,-1,64
 392.5 577 392.5 577 394.5 576 c 0,65,66
 402.5 574 402.5 574 415 581 c 128,-1,67
 427.5 588 427.5 588 429.5 594 c 0,57,58
343.5 144 m 0,68,69
 348.5 145 348.5 145 350 157 c 128,-1,70
 351.5 169 351.5 169 352.5 173 c 0,71,72
 354.5 183 354.5 183 357 194 c 128,-1,73
 359.5 205 359.5 205 366.5 214 c 0,74,75
 371.5 219 371.5 219 370.5 223 c 0,76,77
 370.5 225 370.5 225 368.5 226.5 c 128,-1,78
 366.5 228 366.5 228 364.5 227 c 0,79,80
 355.5 226 355.5 226 349.5 217 c 128,-1,81
 343.5 208 343.5 208 340.5 197 c 128,-1,82
 337.5 186 337.5 186 336.5 176 c 128,-1,83
 335.5 166 335.5 166 335.5 163 c 0,84,85
 336.5 155 336.5 155 338.5 149 c 128,-1,86
 340.5 143 340.5 143 343.5 144 c 0,68,69
EndSplineSet
EndChar

StartChar: K
Encoding: 75 75 51
Width: 973
Flags: W
LayerCount: 2
Fore
SplineSet
438 575 m 0,0,1
 398 575 398 575 369.5 603 c 128,-1,2
 341 631 341 631 341 675 c 0,3,4
 341 699 341 699 349.5 720.5 c 128,-1,5
 358 742 358 742 373 757.5 c 128,-1,6
 388 773 388 773 409 782.5 c 128,-1,7
 430 792 430 792 455 792 c 0,8,9
 475 792 475 792 492 783.5 c 128,-1,10
 509 775 509 775 521 760 c 128,-1,11
 533 745 533 745 539.5 726 c 128,-1,12
 546 707 546 707 546 686 c 0,13,14
 546 659 546 659 537.5 638.5 c 128,-1,15
 529 618 529 618 514 604 c 128,-1,16
 499 590 499 590 479.5 582.5 c 128,-1,17
 460 575 460 575 438 575 c 0,0,1
401 748 m 0,18,19
 408 755 408 755 409.5 760 c 128,-1,20
 411 765 411 765 409 765 c 0,21,22
 401 765 401 765 392 757.5 c 128,-1,23
 383 750 383 750 375.5 739.5 c 128,-1,24
 368 729 368 729 363 717 c 128,-1,25
 358 705 358 705 358 695 c 0,26,27
 358 693 358 693 359.5 687 c 128,-1,28
 361 681 361 681 364 681 c 0,29,30
 368 681 368 681 374 703 c 0,31,32
 377 717 377 717 385 728.5 c 128,-1,33
 393 740 393 740 401 748 c 0,18,19
442 632 m 0,34,35
 454 632 454 632 470.5 646 c 128,-1,36
 487 660 487 660 487 686 c 0,37,38
 487 706 487 706 476.5 719.5 c 128,-1,39
 466 733 466 733 449 733 c 256,40,41
 432 733 432 733 418 719.5 c 128,-1,42
 404 706 404 706 404 682 c 256,43,44
 404 658 404 658 415 645 c 128,-1,45
 426 632 426 632 442 632 c 0,34,35
353 0 m 0,46,47
 332 0 332 0 322 11 c 128,-1,48
 312 22 312 22 308.5 38.5 c 128,-1,49
 305 55 305 55 305 73 c 128,-1,50
 305 91 305 91 305 105 c 2,51,-1
 305 204 l 1,52,-1
 304 402 l 1,53,-1
 304 428 l 2,54,55
 304 455 304 455 306 476 c 128,-1,56
 308 497 308 497 314 512 c 128,-1,57
 320 527 320 527 331.5 535 c 128,-1,58
 343 543 343 543 363 543 c 0,59,60
 386 543 386 543 403.5 524.5 c 128,-1,61
 421 506 421 506 421 476 c 0,62,63
 421 471 421 471 420.5 456 c 128,-1,64
 420 441 420 441 420 421 c 2,65,-1
 420 429 l 1,66,-1
 420 410 l 2,67,68
 420 391 420 391 421.5 379 c 128,-1,69
 423 367 423 367 425 367 c 0,70,71
 429 367 429 367 440.5 385.5 c 128,-1,72
 452 404 452 404 467.5 431.5 c 128,-1,73
 483 459 483 459 501 491.5 c 128,-1,74
 519 524 519 524 537 551.5 c 128,-1,75
 555 579 555 579 571.5 597.5 c 128,-1,76
 588 616 588 616 599 616 c 0,77,78
 608 616 608 616 619 613 c 128,-1,79
 630 610 630 610 639 604 c 128,-1,80
 648 598 648 598 654 589 c 128,-1,81
 660 580 660 580 660 567 c 0,82,83
 660 559 660 559 649 537.5 c 128,-1,84
 638 516 638 516 622 489 c 128,-1,85
 606 462 606 462 587 432 c 128,-1,86
 568 402 568 402 552 376.5 c 128,-1,87
 536 351 536 351 525 333.5 c 128,-1,88
 514 316 514 316 514 313 c 0,89,90
 514 309 514 309 525.5 290 c 128,-1,91
 537 271 537 271 554 245 c 128,-1,92
 571 219 571 219 591.5 188.5 c 128,-1,93
 612 158 612 158 629 130 c 128,-1,94
 646 102 646 102 657.5 80 c 128,-1,95
 669 58 669 58 669 48 c 0,96,97
 669 35 669 35 660.5 26 c 128,-1,98
 652 17 652 17 640 11 c 128,-1,99
 628 5 628 5 616 2 c 128,-1,100
 604 -1 604 -1 596 -1 c 0,101,102
 582 -1 582 -1 567 17.5 c 128,-1,103
 552 36 552 36 540 57 c 0,104,105
 536 64 536 64 527.5 80.5 c 128,-1,106
 519 97 519 97 507.5 118 c 128,-1,107
 496 139 496 139 483.5 161.5 c 128,-1,108
 471 184 471 184 459.5 203 c 128,-1,109
 448 222 448 222 439.5 234 c 128,-1,110
 431 246 431 246 427 246 c 0,111,112
 419 246 419 246 419 234.5 c 128,-1,113
 419 223 419 223 419 215 c 2,114,-1
 419 164 l 1,115,-1
 420 125 l 1,116,-1
 420 102 l 2,117,118
 420 51 420 51 404 25.5 c 128,-1,119
 388 0 388 0 353 0 c 0,46,47
323 488 m 0,120,121
 328 487 328 487 332.5 491 c 128,-1,122
 337 495 337 495 340.5 500.5 c 128,-1,123
 344 506 344 506 347 512.5 c 128,-1,124
 350 519 350 519 351 523 c 0,125,126
 352 526 352 526 349 528.5 c 128,-1,127
 346 531 346 531 343 531 c 0,128,129
 339 531 339 531 335 526 c 128,-1,130
 331 521 331 521 327.5 514.5 c 128,-1,131
 324 508 324 508 322 501.5 c 128,-1,132
 320 495 320 495 320 492 c 0,133,134
 320 488 320 488 323 488 c 0,120,121
573 558 m 0,135,136
 576 558 576 558 582 562.5 c 128,-1,137
 588 567 588 567 594 573 c 128,-1,138
 600 579 600 579 604 585.5 c 128,-1,139
 608 592 608 592 607 596 c 0,140,141
 607 600 607 600 603 600 c 0,142,143
 600 601 600 601 593.5 596.5 c 128,-1,144
 587 592 587 592 580.5 585.5 c 128,-1,145
 574 579 574 579 569.5 573 c 128,-1,146
 565 567 565 567 566 564 c 0,147,148
 568 559 568 559 573 558 c 0,135,136
338 70 m 0,149,150
 338 74 338 74 338 84.5 c 128,-1,151
 338 95 338 95 337 106 c 128,-1,152
 336 117 336 117 334 125.5 c 128,-1,153
 332 134 332 134 328 134 c 0,154,155
 325 134 325 134 322.5 129 c 128,-1,156
 320 124 320 124 319 117 c 128,-1,157
 318 110 318 110 317.5 103.5 c 128,-1,158
 317 97 317 97 317 95 c 0,159,160
 317 91 317 91 317 82.5 c 128,-1,161
 317 74 317 74 318.5 65 c 128,-1,162
 320 56 320 56 323 49.5 c 128,-1,163
 326 43 326 43 332 43 c 0,164,165
 334 43 334 43 335.5 47 c 128,-1,166
 337 51 337 51 337.5 55.5 c 128,-1,167
 338 60 338 60 338 64.5 c 128,-1,168
 338 69 338 69 338 70 c 0,149,150
599 21 m 0,169,170
 599 24 599 24 596 30.5 c 128,-1,171
 593 37 593 37 588.5 43 c 128,-1,172
 584 49 584 49 579 54 c 128,-1,173
 574 59 574 59 571 59 c 0,174,175
 569 59 569 59 568 55.5 c 128,-1,176
 567 52 567 52 567 50 c 0,177,178
 567 47 567 47 569.5 41 c 128,-1,179
 572 35 572 35 575.5 29 c 128,-1,180
 579 23 579 23 584 19 c 128,-1,181
 589 15 589 15 593 15 c 0,182,183
 599 15 599 15 599 21 c 0,169,170
348 25 m 0,184,185
 350 29 350 29 347 32.5 c 128,-1,186
 344 36 344 36 340 36 c 0,187,188
 335 36 335 36 332.5 32.5 c 128,-1,189
 330 29 330 29 332 25 c 0,190,191
 334 17 334 17 340 17 c 256,192,193
 346 17 346 17 348 25 c 0,184,185
EndSplineSet
EndChar

StartChar: L
Encoding: 76 76 52
Width: 973
Flags: W
LayerCount: 2
Fore
SplineSet
504.5 569 m 0,0,1
 464.5 569 464.5 569 436 597 c 128,-1,2
 407.5 625 407.5 625 407.5 669 c 0,3,4
 407.5 693 407.5 693 416 714.5 c 128,-1,5
 424.5 736 424.5 736 439.5 751.5 c 128,-1,6
 454.5 767 454.5 767 475.5 776.5 c 128,-1,7
 496.5 786 496.5 786 521.5 786 c 0,8,9
 541.5 786 541.5 786 558.5 777.5 c 128,-1,10
 575.5 769 575.5 769 587.5 754 c 128,-1,11
 599.5 739 599.5 739 606 720 c 128,-1,12
 612.5 701 612.5 701 612.5 680 c 0,13,14
 612.5 653 612.5 653 604 632.5 c 128,-1,15
 595.5 612 595.5 612 580.5 598 c 128,-1,16
 565.5 584 565.5 584 546 576.5 c 128,-1,17
 526.5 569 526.5 569 504.5 569 c 0,0,1
467.5 742 m 0,18,19
 474.5 749 474.5 749 476 754 c 128,-1,20
 477.5 759 477.5 759 475.5 759 c 0,21,22
 467.5 759 467.5 759 458.5 751.5 c 128,-1,23
 449.5 744 449.5 744 442 733.5 c 128,-1,24
 434.5 723 434.5 723 429.5 711 c 128,-1,25
 424.5 699 424.5 699 424.5 689 c 0,26,27
 424.5 687 424.5 687 426 681 c 128,-1,28
 427.5 675 427.5 675 430.5 675 c 0,29,30
 434.5 675 434.5 675 440.5 697 c 0,31,32
 443.5 711 443.5 711 451.5 722.5 c 128,-1,33
 459.5 734 459.5 734 467.5 742 c 0,18,19
508.5 626 m 0,34,35
 520.5 626 520.5 626 537 640 c 128,-1,36
 553.5 654 553.5 654 553.5 680 c 0,37,38
 553.5 700 553.5 700 543 713.5 c 128,-1,39
 532.5 727 532.5 727 515.5 727 c 256,40,41
 498.5 727 498.5 727 484.5 713.5 c 128,-1,42
 470.5 700 470.5 700 470.5 676 c 256,43,44
 470.5 652 470.5 652 481.5 639 c 128,-1,45
 492.5 626 492.5 626 508.5 626 c 0,34,35
377.5 0 m 2,46,47
 366.5 0 366.5 0 358 8 c 128,-1,48
 349.5 16 349.5 16 349.5 27 c 2,49,-1
 349.5 492 l 2,50,51
 349.5 503 349.5 503 351 514 c 128,-1,52
 352.5 525 352.5 525 358.5 534 c 128,-1,53
 364.5 543 364.5 543 376 549 c 128,-1,54
 387.5 555 387.5 555 407.5 555 c 0,55,56
 430.5 555 430.5 555 447 537 c 128,-1,57
 463.5 519 463.5 519 463.5 499 c 2,58,-1
 463.5 121 l 2,59,60
 463.5 103 463.5 103 470.5 98.5 c 128,-1,61
 477.5 94 477.5 94 486.5 94 c 0,62,63
 503.5 94 503.5 94 517 94.5 c 128,-1,64
 530.5 95 530.5 95 543 95.5 c 128,-1,65
 555.5 96 555.5 96 569 96.5 c 128,-1,66
 582.5 97 582.5 97 599.5 97 c 0,67,68
 613.5 97 613.5 97 618.5 82.5 c 128,-1,69
 623.5 68 623.5 68 623.5 54 c 0,70,71
 623.5 34 623.5 34 611 16.5 c 128,-1,72
 598.5 -1 598.5 -1 584.5 -1 c 2,73,-1
 537.5 -1 l 1,74,-1
 454.5 0 l 1,75,-1
 377.5 0 l 2,46,47
367.5 488 m 0,76,77
 370.5 488 370.5 488 375 494.5 c 128,-1,78
 379.5 501 379.5 501 384 510 c 128,-1,79
 388.5 519 388.5 519 392 527 c 128,-1,80
 395.5 535 395.5 535 395.5 538 c 0,81,82
 395.5 543 395.5 543 387.5 543 c 0,83,84
 382.5 543 382.5 543 377.5 536.5 c 128,-1,85
 372.5 530 372.5 530 369 522 c 128,-1,86
 365.5 514 365.5 514 363.5 506 c 128,-1,87
 361.5 498 361.5 498 362.5 494 c 0,88,89
 362.5 488 362.5 488 367.5 488 c 0,76,77
378.5 59 m 0,90,91
 383.5 59 383.5 59 385.5 70 c 128,-1,92
 387.5 81 387.5 81 388.5 96.5 c 128,-1,93
 389.5 112 389.5 112 389 128.5 c 128,-1,94
 388.5 145 388.5 145 388.5 155 c 0,95,96
 388.5 159 388.5 159 388 165 c 128,-1,97
 387.5 171 387.5 171 386 177 c 128,-1,98
 384.5 183 384.5 183 382 187 c 128,-1,99
 379.5 191 379.5 191 374.5 191 c 0,100,101
 371.5 191 371.5 191 370 182.5 c 128,-1,102
 368.5 174 368.5 174 367.5 163 c 128,-1,103
 366.5 152 366.5 152 366.5 142.5 c 128,-1,104
 366.5 133 366.5 133 366.5 130 c 256,105,106
 366.5 127 366.5 127 367 115.5 c 128,-1,107
 367.5 104 367.5 104 369 91.5 c 128,-1,108
 370.5 79 370.5 79 372.5 69 c 128,-1,109
 374.5 59 374.5 59 378.5 59 c 0,90,91
395.5 30 m 0,110,111
 395.5 41 395.5 41 388.5 41 c 0,112,113
 378.5 41 378.5 41 378.5 30 c 0,114,115
 378.5 22 378.5 22 386.5 22 c 0,116,117
 389.5 22 389.5 22 392.5 24 c 128,-1,118
 395.5 26 395.5 26 395.5 30 c 0,110,111
EndSplineSet
EndChar

StartChar: M
Encoding: 77 77 53
Width: 973
Flags: W
LayerCount: 2
Fore
SplineSet
510 599 m 0,0,1
 470 599 470 599 441.5 627 c 128,-1,2
 413 655 413 655 413 699 c 0,3,4
 413 723 413 723 421.5 744.5 c 128,-1,5
 430 766 430 766 445 781.5 c 128,-1,6
 460 797 460 797 481 806.5 c 128,-1,7
 502 816 502 816 527 816 c 0,8,9
 547 816 547 816 564 807.5 c 128,-1,10
 581 799 581 799 593 784 c 128,-1,11
 605 769 605 769 611.5 750 c 128,-1,12
 618 731 618 731 618 710 c 0,13,14
 618 683 618 683 609.5 662.5 c 128,-1,15
 601 642 601 642 586 628 c 128,-1,16
 571 614 571 614 551.5 606.5 c 128,-1,17
 532 599 532 599 510 599 c 0,0,1
473 772 m 0,18,19
 480 779 480 779 481.5 784 c 128,-1,20
 483 789 483 789 481 789 c 0,21,22
 473 789 473 789 464 781.5 c 128,-1,23
 455 774 455 774 447.5 763.5 c 128,-1,24
 440 753 440 753 435 741 c 128,-1,25
 430 729 430 729 430 719 c 0,26,27
 430 717 430 717 431.5 711 c 128,-1,28
 433 705 433 705 436 705 c 0,29,30
 440 705 440 705 446 727 c 0,31,32
 449 741 449 741 457 752.5 c 128,-1,33
 465 764 465 764 473 772 c 0,18,19
514 656 m 0,34,35
 526 656 526 656 542.5 670 c 128,-1,36
 559 684 559 684 559 710 c 0,37,38
 559 730 559 730 548.5 743.5 c 128,-1,39
 538 757 538 757 521 757 c 256,40,41
 504 757 504 757 490 743.5 c 128,-1,42
 476 730 476 730 476 706 c 256,43,44
 476 682 476 682 487 669 c 128,-1,45
 498 656 498 656 514 656 c 0,34,35
262 0 m 0,46,47
 247 0 247 0 238 5.5 c 128,-1,48
 229 11 229 11 224.5 20 c 128,-1,49
 220 29 220 29 218.5 40.5 c 128,-1,50
 217 52 217 52 217 65 c 2,51,-1
 217 496 l 2,52,53
 217 507 217 507 217.5 520 c 128,-1,54
 218 533 218 533 222 544 c 128,-1,55
 226 555 226 555 235 562.5 c 128,-1,56
 244 570 244 570 260 570 c 0,57,58
 280 570 280 570 290 555.5 c 128,-1,59
 300 541 300 541 304.5 523 c 128,-1,60
 309 505 309 505 310 490.5 c 128,-1,61
 311 476 311 476 313 476 c 256,62,63
 315 476 315 476 319 491.5 c 128,-1,64
 323 507 323 507 333.5 525 c 128,-1,65
 344 543 344 543 363 558.5 c 128,-1,66
 382 574 382 574 415 574 c 0,67,68
 443 574 443 574 461 559 c 128,-1,69
 479 544 479 544 490 525.5 c 128,-1,70
 501 507 501 507 507 492 c 128,-1,71
 513 477 513 477 516 477 c 256,72,73
 519 477 519 477 524.5 492 c 128,-1,74
 530 507 530 507 541 525.5 c 128,-1,75
 552 544 552 544 571.5 559 c 128,-1,76
 591 574 591 574 623 574 c 0,77,78
 664 574 664 574 690 554 c 128,-1,79
 716 534 716 534 730.5 498.5 c 128,-1,80
 745 463 745 463 750.5 414.5 c 128,-1,81
 756 366 756 366 756 310 c 2,82,-1
 756 27 l 2,83,84
 756 13 756 13 737 6.5 c 128,-1,85
 718 0 718 0 698 0 c 256,86,87
 678 0 678 0 667 5.5 c 128,-1,88
 656 11 656 11 656 26 c 2,89,-1
 656 301 l 2,90,91
 656 313 656 313 656 341.5 c 128,-1,92
 656 370 656 370 651.5 400 c 128,-1,93
 647 430 647 430 636.5 452.5 c 128,-1,94
 626 475 626 475 605 475 c 0,95,96
 587 475 587 475 575.5 461 c 128,-1,97
 564 447 564 447 557 422.5 c 128,-1,98
 550 398 550 398 546.5 363.5 c 128,-1,99
 543 329 543 329 541 287 c 0,100,101
 538 238 538 238 537 211 c 128,-1,102
 536 184 536 184 536.5 141.5 c 128,-1,103
 537 99 537 99 537.5 69.5 c 128,-1,104
 538 40 538 40 538 31 c 0,105,106
 538 17 538 17 521.5 8.5 c 128,-1,107
 505 0 505 0 481 0 c 256,108,109
 457 0 457 0 447 7 c 128,-1,110
 437 14 437 14 437 38 c 2,111,-1
 437 301 l 2,112,113
 437 312 437 312 437 341 c 128,-1,114
 437 370 437 370 433 400 c 128,-1,115
 429 430 429 430 419 453 c 128,-1,116
 409 476 409 476 389 476 c 0,117,118
 371 476 371 476 358.5 460.5 c 128,-1,119
 346 445 346 445 338 421 c 128,-1,120
 330 397 330 397 325.5 367 c 128,-1,121
 321 337 321 337 319 309 c 128,-1,122
 317 281 317 281 316.5 257 c 128,-1,123
 316 233 316 233 316 221 c 2,124,-1
 316 45 l 2,125,126
 316 26 316 26 300 13 c 128,-1,127
 284 0 284 0 262 0 c 0,46,47
241 476 m 0,128,129
 247 477 247 477 247.5 487.5 c 128,-1,130
 248 498 248 498 248 506 c 0,131,132
 248 513 248 513 250 521.5 c 128,-1,133
 252 530 252 530 253.5 537 c 128,-1,134
 255 544 255 544 255 549 c 128,-1,135
 255 554 255 554 251 554 c 0,136,137
 244 554 244 554 239.5 547.5 c 128,-1,138
 235 541 235 541 233 532 c 128,-1,139
 231 523 231 523 230 515 c 128,-1,140
 229 507 229 507 229 504 c 0,141,142
 229 496 229 496 231 485.5 c 128,-1,143
 233 475 233 475 241 476 c 0,128,129
472 23 m 0,144,145
 472 33 472 33 465.5 36.5 c 128,-1,146
 459 40 459 40 459 51 c 0,147,148
 459 53 459 53 459 58.5 c 128,-1,149
 459 64 459 64 458.5 69.5 c 128,-1,150
 458 75 458 75 456 79.5 c 128,-1,151
 454 84 454 84 451 84 c 0,152,153
 449 84 449 84 448 79.5 c 128,-1,154
 447 75 447 75 446.5 69 c 128,-1,155
 446 63 446 63 446 57.5 c 128,-1,156
 446 52 446 52 446 50 c 0,157,158
 446 38 446 38 449.5 24.5 c 128,-1,159
 453 11 453 11 463 11 c 0,160,161
 472 11 472 11 472 23 c 0,144,145
688 24 m 0,162,163
 688 34 688 34 682.5 41.5 c 128,-1,164
 677 49 677 49 677 60 c 0,165,166
 677 64 677 64 676.5 74 c 128,-1,167
 676 84 676 84 670 84 c 0,168,169
 665 84 665 84 664.5 73 c 128,-1,170
 664 62 664 62 664 59 c 256,171,172
 664 56 664 56 664.5 48 c 128,-1,173
 665 40 665 40 667 32.5 c 128,-1,174
 669 25 669 25 672 19 c 128,-1,175
 675 13 675 13 680 13 c 0,176,177
 684 13 684 13 686 17.5 c 128,-1,178
 688 22 688 22 688 24 c 0,162,163
260 24 m 0,179,180
 260 35 260 35 255.5 36 c 128,-1,181
 251 37 251 37 246 44 c 0,182,183
 245 46 245 46 244.5 51.5 c 128,-1,184
 244 57 244 57 244 62.5 c 128,-1,185
 244 68 244 68 242.5 72.5 c 128,-1,186
 241 77 241 77 238 77 c 0,187,188
 233 77 233 77 232.5 67.5 c 128,-1,189
 232 58 232 58 232 51 c 0,190,191
 232 47 232 47 233 41 c 128,-1,192
 234 35 234 35 236.5 29 c 128,-1,193
 239 23 239 23 242.5 18.5 c 128,-1,194
 246 14 246 14 251 14 c 0,195,196
 260 14 260 14 260 24 c 0,179,180
EndSplineSet
EndChar

StartChar: N
Encoding: 78 78 54
Width: 973
Flags: W
LayerCount: 2
Fore
SplineSet
466 558 m 4,0,1
 426 558 426 558 397.5 586 c 132,-1,2
 369 614 369 614 369 658 c 4,3,4
 369 682 369 682 377.5 703.5 c 132,-1,5
 386 725 386 725 401 740.5 c 132,-1,6
 416 756 416 756 437 765.5 c 132,-1,7
 458 775 458 775 483 775 c 4,8,9
 503 775 503 775 520 766.5 c 132,-1,10
 537 758 537 758 549 743 c 132,-1,11
 561 728 561 728 567.5 709 c 132,-1,12
 574 690 574 690 574 669 c 4,13,14
 574 642 574 642 565.5 621.5 c 132,-1,15
 557 601 557 601 542 587 c 132,-1,16
 527 573 527 573 507.5 565.5 c 132,-1,17
 488 558 488 558 466 558 c 4,0,1
429 731 m 4,18,19
 436 738 436 738 437.5 743 c 132,-1,20
 439 748 439 748 437 748 c 4,21,22
 429 748 429 748 420 740.5 c 132,-1,23
 411 733 411 733 403.5 722.5 c 132,-1,24
 396 712 396 712 391 700 c 132,-1,25
 386 688 386 688 386 678 c 4,26,27
 386 676 386 676 387.5 670 c 132,-1,28
 389 664 389 664 392 664 c 4,29,30
 396 664 396 664 402 686 c 4,31,32
 405 700 405 700 413 711.5 c 132,-1,33
 421 723 421 723 429 731 c 4,18,19
470 615 m 4,34,35
 482 615 482 615 498.5 629 c 132,-1,36
 515 643 515 643 515 669 c 4,37,38
 515 689 515 689 504.5 702.5 c 132,-1,39
 494 716 494 716 477 716 c 260,40,41
 460 716 460 716 446 702.5 c 132,-1,42
 432 689 432 689 432 665 c 260,43,44
 432 641 432 641 443 628 c 132,-1,45
 454 615 454 615 470 615 c 4,34,35
358 0 m 0,46,47
 333 0 333 0 323 14.5 c 128,-1,48
 313 29 313 29 313 65 c 2,49,-1
 313 422 l 2,50,51
 313 466 313 466 322.5 481 c 128,-1,52
 332 496 332 496 361 496 c 0,53,54
 380 496 380 496 398 486.5 c 128,-1,55
 416 477 416 477 416 451 c 2,56,-1
 416 437 l 2,57,58
 416 397 416 397 420 397 c 256,59,60
 424 397 424 397 429 413 c 128,-1,61
 434 429 434 429 446 448.5 c 128,-1,62
 458 468 458 468 480 484 c 128,-1,63
 502 500 502 500 538 500 c 0,64,65
 602 500 602 500 631 437 c 128,-1,66
 660 374 660 374 660 236 c 2,67,-1
 660 31 l 2,68,69
 660 0 660 0 604 0 c 0,70,71
 577 0 577 0 565 11.5 c 128,-1,72
 553 23 553 23 553 34 c 2,73,-1
 553 227 l 2,74,75
 553 279 553 279 550 311 c 128,-1,76
 547 343 547 343 541 361 c 128,-1,77
 535 379 535 379 525.5 385.5 c 128,-1,78
 516 392 516 392 502 392 c 0,79,80
 481 392 481 392 465.5 372.5 c 128,-1,81
 450 353 450 353 440 320 c 128,-1,82
 430 287 430 287 425.5 242.5 c 128,-1,83
 421 198 421 198 421 147 c 2,84,-1
 421 45 l 2,85,86
 421 30 421 30 413.5 21 c 128,-1,87
 406 12 406 12 396 7.5 c 128,-1,88
 386 3 386 3 375.5 1.5 c 128,-1,89
 365 0 365 0 358 0 c 0,46,47
333 395 m 0,90,91
 336 395 336 395 338 407 c 128,-1,92
 340 419 340 419 342 434 c 128,-1,93
 344 449 344 449 345 461.5 c 128,-1,94
 346 474 346 474 346 475 c 0,95,96
 346 477 346 477 345.5 480 c 128,-1,97
 345 483 345 483 343 483 c 0,98,99
 338 483 338 483 334.5 475.5 c 128,-1,100
 331 468 331 468 329 458.5 c 128,-1,101
 327 449 327 449 326 439.5 c 128,-1,102
 325 430 325 430 325 427 c 0,103,104
 325 419 325 419 327 407 c 128,-1,105
 329 395 329 395 333 395 c 0,90,91
590 29 m 0,106,107
 590 35 590 35 588 38 c 128,-1,108
 586 41 586 41 583.5 43 c 128,-1,109
 581 45 581 45 579 49 c 128,-1,110
 577 53 577 53 577 60 c 0,111,112
 577 76 577 76 575.5 80 c 128,-1,113
 574 84 574 84 569 84 c 256,114,115
 564 84 564 84 562.5 76.5 c 128,-1,116
 561 69 561 69 561 59 c 0,117,118
 561 39 561 39 567 27 c 128,-1,119
 573 15 573 15 581 15 c 0,120,121
 584 15 584 15 587 18.5 c 128,-1,122
 590 22 590 22 590 29 c 0,106,107
357 26 m 0,123,124
 357 31 357 31 354.5 33.5 c 128,-1,125
 352 36 352 36 349 38.5 c 128,-1,126
 346 41 346 41 343.5 45 c 128,-1,127
 341 49 341 49 341 56 c 0,128,129
 341 77 341 77 334 77 c 0,130,131
 332 77 332 77 330 69.5 c 128,-1,132
 328 62 328 62 328 51 c 0,133,134
 328 36 328 36 334.5 24 c 128,-1,135
 341 12 341 12 349 12 c 0,136,137
 351 12 351 12 354 16 c 128,-1,138
 357 20 357 20 357 26 c 0,123,124
EndSplineSet
EndChar

StartChar: O
Encoding: 79 79 55
Width: 973
Flags: W
LayerCount: 2
Fore
SplineSet
360 341.5 m 0,0,1
 347 346 347 346 338.5 355 c 128,-1,2
 330 364 330 364 327.5 374 c 128,-1,3
 325 384 325 384 328.5 394.5 c 0,4,5
 333 406 333 406 342 411.5 c 0,6,7
 347 414 347 414 354.5 416.5 c 0,8,9
 362 418 362 418 375.5 420 c 128,-1,10
 389 422 389 422 409 422 c 0,11,12
 469 422 469 422 500 422.5 c 0,13,14
 572 422 572 422 597 421 c 128,-1,15
 622 420 622 420 634.5 414.5 c 0,16,17
 647 410 647 410 650 400.5 c 0,18,19
 653 392 653 392 653 376.5 c 0,20,21
 653 364 653 364 647.5 357 c 128,-1,22
 642 350 642 350 628 345 c 128,-1,23
 614 340 614 340 590 338.5 c 0,24,25
 566 336 566 336 500 336.5 c 0,26,27
 422 336 422 336 393.5 338 c 128,-1,28
 365 340 365 340 360 341.5 c 0,0,1
368 402.5 m 0,29,30
 368 404 368 404 365.5 406 c 0,31,32
 364 407 364 407 359 404.5 c 128,-1,33
 354 402 354 402 351.5 392.5 c 0,34,35
 349 384 349 384 349 376.5 c 256,36,37
 349 370 349 370 351 369.5 c 0,38,39
 354 370 354 370 359 382.5 c 0,40,41
 365 396 365 396 365 396.5 c 0,42,43
 368 399 368 399 368 402.5 c 0,29,30
358 180.5 m 0,44,45
 339 184 339 184 329.5 198 c 128,-1,46
 320 212 320 212 327 226.5 c 0,47,48
 332 236 332 236 339.5 240.5 c 0,49,50
 347 246 347 246 362.5 248 c 0,51,52
 386 251 386 251 403 251 c 0,53,54
 467 251 467 251 520.5 251.5 c 128,-1,55
 574 252 574 252 599.5 250 c 128,-1,56
 625 248 625 248 639 245 c 128,-1,57
 653 242 653 242 658.5 235 c 128,-1,58
 664 228 664 228 664 217.5 c 0,59,60
 664 204 664 204 658 195.5 c 0,61,62
 652 186 652 186 636.5 181.5 c 0,63,64
 621 176 621 176 595 174 c 0,65,66
 558 171 558 171 501 171.5 c 0,67,68
 423 172 423 172 394.5 175 c 128,-1,69
 366 178 366 178 358 180.5 c 0,44,45
361 229.5 m 0,70,71
 361 232 361 232 358 232.5 c 256,72,73
 355 232 355 232 354 231.5 c 0,74,75
 352 230 352 230 349 226 c 128,-1,76
 346 222 346 222 346 214.5 c 0,77,78
 346 206 346 206 347.5 204.5 c 0,79,80
 349 204 349 204 354 208.5 c 0,81,82
 358 212 358 212 359.5 218.5 c 0,83,84
 361 224 361 224 361 229.5 c 0,70,71
484 -10 m 0,85,86
 412 -10 412 -10 358.5 17.5 c 128,-1,87
 305 45 305 45 270 88.5 c 128,-1,88
 235 132 235 132 217.5 186 c 128,-1,89
 200 240 200 240 200 294 c 0,90,91
 200 360 200 360 220 416 c 128,-1,92
 240 472 240 472 277.5 512.5 c 128,-1,93
 315 553 315 553 369 576 c 128,-1,94
 423 599 423 599 490 599 c 0,95,96
 552 599 552 599 604 576.5 c 128,-1,97
 656 554 656 554 693.5 514.5 c 128,-1,98
 731 475 731 475 752 420.5 c 128,-1,99
 773 366 773 366 773 303 c 0,100,101
 773 239 773 239 751.5 182 c 128,-1,102
 730 125 730 125 691.5 82.5 c 128,-1,103
 653 40 653 40 600 15 c 128,-1,104
 547 -10 547 -10 484 -10 c 0,85,86
486 67 m 0,105,106
 587 67 587 67 638.5 130.5 c 128,-1,107
 690 194 690 194 690 303 c 0,108,109
 690 347 690 347 676.5 387.5 c 128,-1,110
 663 428 663 428 637 459 c 128,-1,111
 611 490 611 490 574 508.5 c 128,-1,112
 537 527 537 527 490 527 c 0,113,114
 445 527 445 527 407.5 509 c 128,-1,115
 370 491 370 491 343 461 c 128,-1,116
 316 431 316 431 301 391 c 128,-1,117
 286 351 286 351 286 306 c 256,118,119
 286 261 286 261 299.5 218 c 128,-1,120
 313 175 313 175 338.5 141.5 c 128,-1,121
 364 108 364 108 401 87.5 c 128,-1,122
 438 67 438 67 486 67 c 0,105,106
EndSplineSet

EndChar

StartChar: P
Encoding: 80 80 56
Width: 973
Flags: W
LayerCount: 2
Fore
SplineSet
358.5 -14 m 0,0,1
 338.5 -14 338.5 -14 321.5 1 c 128,-1,2
 304.5 16 304.5 16 304.5 69 c 2,3,-1
 304.5 526 l 2,4,5
 304.5 547 304.5 547 313 564 c 128,-1,6
 321.5 581 321.5 581 336 592.5 c 128,-1,7
 350.5 604 350.5 604 369 610 c 128,-1,8
 387.5 616 387.5 616 407.5 616 c 2,9,-1
 466.5 616 l 2,10,11
 497.5 616 497.5 616 533 604 c 128,-1,12
 568.5 592 568.5 592 598.5 566 c 128,-1,13
 628.5 540 628.5 540 648.5 498 c 128,-1,14
 668.5 456 668.5 456 668.5 397 c 256,15,16
 668.5 338 668.5 338 649 291.5 c 128,-1,17
 629.5 245 629.5 245 600.5 213.5 c 128,-1,18
 571.5 182 571.5 182 537.5 165.5 c 128,-1,19
 503.5 149 503.5 149 473.5 149 c 2,20,-1
 444.5 149 l 2,21,22
 435.5 149 435.5 149 427 145 c 128,-1,23
 418.5 141 418.5 141 418.5 132 c 2,24,-1
 418.5 65 l 2,25,26
 418.5 33 418.5 33 413 21 c 128,-1,27
 407.5 9 407.5 9 398.5 1 c 128,-1,28
 389.5 -7 389.5 -7 379 -10.5 c 128,-1,29
 368.5 -14 368.5 -14 358.5 -14 c 0,0,1
462.5 238 m 2,30,31
 479.5 238 479.5 238 495.5 246 c 128,-1,32
 511.5 254 511.5 254 525 271.5 c 128,-1,33
 538.5 289 538.5 289 546.5 317 c 128,-1,34
 554.5 345 554.5 345 554.5 385 c 0,35,36
 554.5 428 554.5 428 546.5 456.5 c 128,-1,37
 538.5 485 538.5 485 525.5 501.5 c 128,-1,38
 512.5 518 512.5 518 496.5 525 c 128,-1,39
 480.5 532 480.5 532 465.5 532 c 2,40,-1
 443.5 532 l 2,41,42
 418.5 532 418.5 532 418.5 498 c 2,43,-1
 418.5 261 l 2,44,45
 418.5 238 418.5 238 449.5 238 c 2,46,-1
 462.5 238 l 2,30,31
344.5 21 m 256,47,48
 339.5 26 339.5 26 336 39 c 128,-1,49
 332.5 52 332.5 52 332.5 78.5 c 128,-1,50
 332.5 105 332.5 105 325.5 105 c 0,51,52
 320.5 105 320.5 105 319 96.5 c 128,-1,53
 317.5 88 317.5 88 317.5 76 c 0,54,55
 317.5 38 317.5 38 324.5 22 c 128,-1,56
 331.5 6 331.5 6 341.5 6 c 0,57,58
 343.5 6 343.5 6 346.5 8 c 128,-1,59
 349.5 10 349.5 10 349.5 12 c 0,60,61
 349.5 16 349.5 16 344.5 21 c 256,47,48
EndSplineSet

EndChar

StartChar: Q
Encoding: 81 81 57
Width: 973
Flags: W
LayerCount: 2
Fore
SplineSet
492.5 616 m 0,0,1
 451.5 616 451.5 616 418.5 601 c 2,2,3
 418.5 601 418.5 601 385.5 585 c 1,4,-1
 341.5 537 l 1,5,6
 309.5 492 309.5 492 293.5 432.5 c 128,-1,7
 277.5 373 277.5 373 277.5 311 c 0,8,9
 277.5 255 277.5 255 289.5 196.5 c 128,-1,10
 301.5 138 301.5 138 327.5 90.5 c 128,-1,11
 353.5 43 353.5 43 394.5 12.5 c 128,-1,12
 435.5 -18 435.5 -18 493.5 -18 c 0,13,14
 530.5 -18 530.5 -18 561.5 -4 c 1,15,16
 569.5 -22 569.5 -22 582 -40.5 c 128,-1,17
 594.5 -59 594.5 -59 617.5 -59 c 0,18,19
 624.5 -59 624.5 -59 633 -56.5 c 128,-1,20
 641.5 -54 641.5 -54 649 -49.5 c 128,-1,21
 656.5 -45 656.5 -45 661.5 -39 c 128,-1,22
 666.5 -33 666.5 -33 666.5 -26 c 0,23,24
 666.5 -18 666.5 -18 657.5 8.5 c 128,-1,25
 648.5 35 648.5 35 636.5 65 c 1,26,27
 666.5 112 666.5 112 681 177.5 c 128,-1,28
 695.5 243 695.5 243 695.5 316 c 0,29,30
 695.5 371 695.5 371 683.5 425 c 128,-1,31
 671.5 479 671.5 479 647 521.5 c 128,-1,32
 622.5 564 622.5 564 584 590 c 128,-1,33
 545.5 616 545.5 616 492.5 616 c 0,0,1
340.5 139 m 0,34,35
 343.5 139 343.5 139 347.5 133.5 c 128,-1,36
 351.5 128 351.5 128 356 119.5 c 128,-1,37
 360.5 111 360.5 111 366 102 c 128,-1,38
 371.5 93 371.5 93 376.5 86 c 0,39,40
 398.5 57 398.5 57 418 40 c 128,-1,41
 437.5 23 437.5 23 437.5 18 c 0,42,43
 437.5 15 437.5 15 432.5 14 c 0,44,45
 420.5 14 420.5 14 404 28 c 128,-1,46
 387.5 42 387.5 42 372.5 61.5 c 128,-1,47
 357.5 81 357.5 81 347 101.5 c 128,-1,48
 336.5 122 336.5 122 336.5 134 c 0,49,50
 336.5 139 336.5 139 340.5 139 c 0,34,35
397.5 395 m 1,51,52
 413.5 354 413.5 354 430.5 312 c 128,-1,53
 447.5 270 447.5 270 464 229.5 c 128,-1,54
 480.5 189 480.5 189 496 151 c 128,-1,55
 511.5 113 511.5 113 524.5 81 c 1,56,57
 511.5 74 511.5 74 493.5 74 c 0,58,59
 462.5 74 462.5 74 442.5 102 c 128,-1,60
 422.5 130 422.5 130 411 168.5 c 128,-1,61
 399.5 207 399.5 207 395.5 247 c 128,-1,62
 391.5 287 391.5 287 391.5 311 c 0,63,64
 391.5 327 391.5 327 393 349 c 128,-1,65
 394.5 371 394.5 371 397.5 395 c 1,51,52
341.5 161 m 256,66,67
 341.5 153 341.5 153 334.5 151 c 0,68,69
 331.5 151 331.5 151 326.5 154.5 c 128,-1,70
 321.5 158 321.5 158 321.5 166 c 0,71,72
 321.5 175 321.5 175 329.5 175 c 0,73,74
 332.5 175 332.5 175 337 172 c 128,-1,75
 341.5 169 341.5 169 341.5 161 c 256,66,67
492.5 536 m 0,76,77
 522.5 536 522.5 536 541 513.5 c 128,-1,78
 559.5 491 559.5 491 570 457.5 c 128,-1,79
 580.5 424 580.5 424 584.5 384 c 128,-1,80
 588.5 344 588.5 344 588.5 308 c 0,81,82
 588.5 282 588.5 282 587.5 254 c 128,-1,83
 586.5 226 586.5 226 582.5 198 c 1,84,85
 572.5 224 572.5 224 557.5 262.5 c 128,-1,86
 542.5 301 542.5 301 525 344.5 c 128,-1,87
 507.5 388 507.5 388 489 434.5 c 128,-1,88
 470.5 481 470.5 481 452.5 523 c 1,89,90
 470.5 536 470.5 536 492.5 536 c 0,76,77
EndSplineSet

EndChar

StartChar: R
Encoding: 82 82 58
Width: 973
Flags: W
LayerCount: 2
Fore
SplineSet
468 584 m 4,0,1
 428 584 428 584 399.5 612 c 132,-1,2
 371 640 371 640 371 684 c 4,3,4
 371 708 371 708 379.5 729.5 c 132,-1,5
 388 751 388 751 403 766.5 c 132,-1,6
 418 782 418 782 439 791.5 c 132,-1,7
 460 801 460 801 485 801 c 4,8,9
 505 801 505 801 522 792.5 c 132,-1,10
 539 784 539 784 551 769 c 132,-1,11
 563 754 563 754 569.5 735 c 132,-1,12
 576 716 576 716 576 695 c 4,13,14
 576 668 576 668 567.5 647.5 c 132,-1,15
 559 627 559 627 544 613 c 132,-1,16
 529 599 529 599 509.5 591.5 c 132,-1,17
 490 584 490 584 468 584 c 4,0,1
431 757 m 4,18,19
 438 764 438 764 439.5 769 c 132,-1,20
 441 774 441 774 439 774 c 4,21,22
 431 774 431 774 422 766.5 c 132,-1,23
 413 759 413 759 405.5 748.5 c 132,-1,24
 398 738 398 738 393 726 c 132,-1,25
 388 714 388 714 388 704 c 4,26,27
 388 702 388 702 389.5 696 c 132,-1,28
 391 690 391 690 394 690 c 4,29,30
 398 690 398 690 404 712 c 4,31,32
 407 726 407 726 415 737.5 c 132,-1,33
 423 749 423 749 431 757 c 4,18,19
472 641 m 4,34,35
 484 641 484 641 500.5 655 c 132,-1,36
 517 669 517 669 517 695 c 4,37,38
 517 715 517 715 506.5 728.5 c 132,-1,39
 496 742 496 742 479 742 c 260,40,41
 462 742 462 742 448 728.5 c 132,-1,42
 434 715 434 715 434 691 c 260,43,44
 434 667 434 667 445 654 c 132,-1,45
 456 641 456 641 472 641 c 4,34,35
412 0 m 0,46,47
 387 0 387 0 377 17 c 128,-1,48
 367 34 367 34 367 64 c 2,49,-1
 367 451 l 2,50,51
 367 505 367 505 378 525 c 128,-1,52
 389 545 389 545 415 545 c 0,53,54
 438 545 438 545 451.5 526.5 c 128,-1,55
 465 508 465 508 465 473 c 0,56,57
 465 462 465 462 465 456.5 c 128,-1,58
 465 451 465 451 468 451 c 0,59,60
 470 451 470 451 470.5 454 c 128,-1,61
 471 457 471 457 473 461 c 0,62,63
 476 468 476 468 481.5 482 c 128,-1,64
 487 496 487 496 497.5 510 c 128,-1,65
 508 524 508 524 524 534.5 c 128,-1,66
 540 545 540 545 562 545 c 0,67,68
 582 545 582 545 594 533 c 128,-1,69
 606 521 606 521 606 502 c 0,70,71
 606 482 606 482 597.5 464.5 c 128,-1,72
 589 447 589 447 569 447 c 256,73,74
 549 447 549 447 531.5 428.5 c 128,-1,75
 514 410 514 410 501.5 381.5 c 128,-1,76
 489 353 489 353 481.5 319 c 128,-1,77
 474 285 474 285 474 254 c 2,78,-1
 474 55 l 2,79,80
 474 25 474 25 454 12.5 c 128,-1,81
 434 0 434 0 412 0 c 0,46,47
394 503 m 256,82,83
 395 507 395 507 396.5 511.5 c 128,-1,84
 398 516 398 516 399 520 c 128,-1,85
 400 524 400 524 399.5 526.5 c 128,-1,86
 399 529 399 529 395 529 c 0,87,88
 390 529 390 529 385 518.5 c 128,-1,89
 380 508 380 508 380 497 c 0,90,91
 380 476 380 476 387 476 c 0,92,93
 392 476 392 476 392.5 487.5 c 128,-1,94
 393 499 393 499 394 503 c 256,82,83
394 50 m 0,95,96
 391 62 391 62 389.5 71.5 c 128,-1,97
 388 81 388 81 385 81 c 0,98,99
 380 81 380 81 380 64 c 0,100,101
 380 46 380 46 385 32 c 128,-1,102
 390 18 390 18 397 18 c 0,103,104
 399 18 399 18 401.5 19 c 128,-1,105
 404 20 404 20 404 25 c 0,106,107
 404 28 404 28 400 34 c 128,-1,108
 396 40 396 40 394 50 c 0,95,96
EndSplineSet
EndChar

StartChar: S
Encoding: 83 83 59
Width: 973
Flags: W
LayerCount: 2
Fore
SplineSet
496.5 622.5 m 4,0,1
 456.5 622.5 456.5 622.5 428 650.5 c 132,-1,2
 399.5 678.5 399.5 678.5 399.5 722.5 c 4,3,4
 399.5 746.5 399.5 746.5 408 768 c 132,-1,5
 416.5 789.5 416.5 789.5 431.5 805 c 132,-1,6
 446.5 820.5 446.5 820.5 467.5 830 c 132,-1,7
 488.5 839.5 488.5 839.5 513.5 839.5 c 4,8,9
 533.5 839.5 533.5 839.5 550.5 831 c 132,-1,10
 567.5 822.5 567.5 822.5 579.5 807.5 c 132,-1,11
 591.5 792.5 591.5 792.5 598 773.5 c 132,-1,12
 604.5 754.5 604.5 754.5 604.5 733.5 c 4,13,14
 604.5 706.5 604.5 706.5 596 686 c 132,-1,15
 587.5 665.5 587.5 665.5 572.5 651.5 c 132,-1,16
 557.5 637.5 557.5 637.5 538 630 c 132,-1,17
 518.5 622.5 518.5 622.5 496.5 622.5 c 4,0,1
459.5 795.5 m 4,18,19
 466.5 802.5 466.5 802.5 468 807.5 c 132,-1,20
 469.5 812.5 469.5 812.5 467.5 812.5 c 4,21,22
 459.5 812.5 459.5 812.5 450.5 805 c 132,-1,23
 441.5 797.5 441.5 797.5 434 787 c 132,-1,24
 426.5 776.5 426.5 776.5 421.5 764.5 c 132,-1,25
 416.5 752.5 416.5 752.5 416.5 742.5 c 4,26,27
 416.5 740.5 416.5 740.5 418 734.5 c 132,-1,28
 419.5 728.5 419.5 728.5 422.5 728.5 c 4,29,30
 426.5 728.5 426.5 728.5 432.5 750.5 c 4,31,32
 435.5 764.5 435.5 764.5 443.5 776 c 132,-1,33
 451.5 787.5 451.5 787.5 459.5 795.5 c 4,18,19
500.5 679.5 m 4,34,35
 512.5 679.5 512.5 679.5 529 693.5 c 132,-1,36
 545.5 707.5 545.5 707.5 545.5 733.5 c 4,37,38
 545.5 753.5 545.5 753.5 535 767 c 132,-1,39
 524.5 780.5 524.5 780.5 507.5 780.5 c 260,40,41
 490.5 780.5 490.5 780.5 476.5 767 c 132,-1,42
 462.5 753.5 462.5 753.5 462.5 729.5 c 260,43,44
 462.5 705.5 462.5 705.5 473.5 692.5 c 132,-1,45
 484.5 679.5 484.5 679.5 500.5 679.5 c 4,34,35
489.5 -46 m 4,46,47
 458.5 -46 458.5 -46 427.5 -32.5 c 132,-1,48
 396.5 -19 396.5 -19 372 6 c 132,-1,49
 347.5 31 347.5 31 332.5 68 c 132,-1,50
 317.5 105 317.5 105 317.5 151 c 4,51,52
 317.5 182 317.5 182 335.5 202 c 132,-1,53
 353.5 222 353.5 222 380.5 220 c 4,54,55
 397.5 219 397.5 219 405 207.5 c 132,-1,56
 412.5 196 412.5 196 412.5 170 c 4,57,58
 412.5 152 412.5 152 417 129 c 132,-1,59
 421.5 106 421.5 106 430.5 86 c 132,-1,60
 439.5 66 439.5 66 452 52.5 c 132,-1,61
 464.5 39 464.5 39 479.5 39 c 4,62,63
 543.5 39 543.5 39 543.5 104 c 4,64,65
 543.5 125 543.5 125 537 143 c 132,-1,66
 530.5 161 530.5 161 520 176 c 132,-1,67
 509.5 191 509.5 191 496.5 205 c 132,-1,68
 483.5 219 483.5 219 469.5 232 c 4,69,70
 397.5 304 397.5 304 367 352 c 132,-1,71
 336.5 400 336.5 400 336.5 440 c 4,72,73
 336.5 509 336.5 509 379 548 c 132,-1,74
 421.5 587 421.5 587 495.5 587 c 4,75,76
 529.5 587 529.5 587 557.5 572 c 132,-1,77
 585.5 557 585.5 557 606 533 c 132,-1,78
 626.5 509 626.5 509 637.5 479.5 c 132,-1,79
 648.5 450 648.5 450 648.5 422 c 4,80,81
 648.5 392 648.5 392 631 367.5 c 132,-1,82
 613.5 343 613.5 343 587.5 343 c 4,83,84
 575.5 343 575.5 343 561.5 353 c 132,-1,85
 547.5 363 547.5 363 547.5 380 c 4,86,87
 547.5 439 547.5 439 530.5 466.5 c 132,-1,88
 513.5 494 513.5 494 491.5 494 c 4,89,90
 449.5 494 449.5 494 449.5 446 c 4,91,92
 449.5 431 449.5 431 453.5 416.5 c 132,-1,93
 457.5 402 457.5 402 468 385 c 132,-1,94
 478.5 368 478.5 368 496 347.5 c 132,-1,95
 513.5 327 513.5 327 540.5 300 c 4,96,97
 573.5 267 573.5 267 595.5 241 c 132,-1,98
 617.5 215 617.5 215 631 193 c 132,-1,99
 644.5 171 644.5 171 650 152 c 132,-1,100
 655.5 133 655.5 133 655.5 114 c 4,101,102
 655.5 79 655.5 79 643 49.5 c 132,-1,103
 630.5 20 630.5 20 608.5 -1 c 132,-1,104
 586.5 -22 586.5 -22 556 -34 c 132,-1,105
 525.5 -46 525.5 -46 489.5 -46 c 4,46,47
394.5 506 m 4,106,107
 398.5 513 398.5 513 405.5 522.5 c 132,-1,108
 412.5 532 412.5 532 420.5 538 c 4,109,110
 428.5 543 428.5 543 431 549.5 c 132,-1,111
 433.5 556 433.5 556 430.5 556 c 4,112,113
 424.5 557 424.5 557 414.5 549.5 c 132,-1,114
 404.5 542 404.5 542 395.5 531 c 132,-1,115
 386.5 520 386.5 520 379.5 508 c 132,-1,116
 372.5 496 372.5 496 371.5 487 c 4,117,118
 371.5 481 371.5 481 377.5 481 c 4,119,120
 382.5 480 382.5 480 385.5 488 c 132,-1,121
 388.5 496 388.5 496 394.5 506 c 4,106,107
378.5 461 m 4,122,123
 378.5 468 378.5 468 372.5 468 c 4,124,125
 369.5 468 369.5 468 367 465 c 132,-1,126
 364.5 462 364.5 462 364.5 460 c 4,127,128
 364.5 455 364.5 455 371.5 454 c 4,129,130
 376.5 454 376.5 454 378.5 461 c 4,122,123
354.5 153 m 260,131,132
 359.5 167 359.5 167 365 176 c 132,-1,133
 370.5 185 370.5 185 371.5 193 c 4,134,135
 371.5 198 371.5 198 368.5 198 c 4,136,137
 360.5 199 360.5 199 353.5 192.5 c 132,-1,138
 346.5 186 346.5 186 342 176 c 132,-1,139
 337.5 166 337.5 166 336.5 153.5 c 132,-1,140
 335.5 141 335.5 141 339.5 129 c 4,141,142
 343.5 119 343.5 119 347.5 119 c 4,143,144
 352.5 119 352.5 119 351 129 c 132,-1,145
 349.5 139 349.5 139 354.5 153 c 260,131,132
EndSplineSet
EndChar

StartChar: T
Encoding: 84 84 60
Width: 973
Flags: W
LayerCount: 2
Fore
SplineSet
478 0 m 0,0,1
 470 0 470 0 461 3 c 128,-1,2
 452 6 452 6 444 11 c 128,-1,3
 436 16 436 16 430.5 23.5 c 128,-1,4
 425 31 425 31 425 40 c 2,5,-1
 425 525 l 1,6,7
 413 525 413 525 373 525 c 128,-1,8
 333 525 333 525 316.5 529 c 128,-1,9
 300 533 300 533 288.5 542.5 c 128,-1,10
 277 552 277 552 277 570 c 0,11,12
 277 592 277 592 291 604 c 128,-1,13
 305 616 305 616 326 616 c 2,14,-1
 663 616 l 2,15,16
 679 616 679 616 687.5 602 c 128,-1,17
 696 588 696 588 696 574 c 0,18,19
 696 556 696 556 687.5 546.5 c 128,-1,20
 679 537 679 537 666 532 c 128,-1,21
 653 527 653 527 606 526 c 128,-1,22
 559 525 559 525 546 525 c 2,23,-1
 538 525 l 1,24,-1
 538 47 l 2,25,26
 538 24 538 24 518 12 c 128,-1,27
 498 0 498 0 478 0 c 0,0,1
300 553 m 256,28,29
 305 553 305 553 305 560 c 0,30,31
 305 568 305 568 308 578.5 c 128,-1,32
 311 589 311 589 317 598 c 0,33,34
 320 603 320 603 312 603 c 0,35,36
 303 603 303 603 297 591.5 c 128,-1,37
 291 580 291 580 291 569 c 0,38,39
 291 565 291 565 293 559 c 128,-1,40
 295 553 295 553 300 553 c 256,28,29
459 23 m 0,41,42
 468 23 468 23 468 32 c 0,43,44
 468 36 468 36 464 37 c 0,45,46
 458 39 458 39 455.5 49.5 c 128,-1,47
 453 60 453 60 453 65 c 0,48,49
 453 67 453 67 453.5 73 c 128,-1,50
 454 79 454 79 454 85 c 128,-1,51
 454 91 454 91 453 95.5 c 128,-1,52
 452 100 452 100 448 100 c 256,53,54
 444 100 444 100 442 96 c 128,-1,55
 440 92 440 92 439 86.5 c 128,-1,56
 438 81 438 81 437.5 75.5 c 128,-1,57
 437 70 437 70 437 68 c 0,58,59
 437 64 437 64 438 56 c 128,-1,60
 439 48 439 48 441.5 41 c 128,-1,61
 444 34 444 34 448.5 28.5 c 128,-1,62
 453 23 453 23 459 23 c 0,41,42
EndSplineSet

EndChar

StartChar: U
Encoding: 85 85 61
Width: 973
Flags: W
LayerCount: 2
Fore
SplineSet
484 -4 m 0,0,1
 439 -4 439 -4 402.5 12.5 c 128,-1,2
 366 29 366 29 341 58.5 c 128,-1,3
 316 88 316 88 302.5 129.5 c 128,-1,4
 289 171 289 171 289 221 c 2,5,-1
 289 530 l 2,6,7
 289 540 289 540 291 555 c 128,-1,8
 293 570 293 570 299 583.5 c 128,-1,9
 305 597 305 597 315.5 606.5 c 128,-1,10
 326 616 326 616 342 616 c 0,11,12
 375 616 375 616 389 599 c 128,-1,13
 403 582 403 582 403 528 c 2,14,-1
 403 228 l 2,15,16
 403 204 403 204 403 179.5 c 128,-1,17
 403 155 403 155 410.5 135.5 c 128,-1,18
 418 116 418 116 435.5 103.5 c 128,-1,19
 453 91 453 91 488 91 c 0,20,21
 521 91 521 91 538 110 c 128,-1,22
 555 129 555 129 562.5 157.5 c 128,-1,23
 570 186 570 186 570.5 220 c 128,-1,24
 571 254 571 254 571 284 c 2,25,-1
 571 531 l 2,26,27
 571 541 571 541 573 556 c 128,-1,28
 575 571 575 571 580.5 584.5 c 128,-1,29
 586 598 586 598 595.5 608 c 128,-1,30
 605 618 605 618 621 618 c 0,31,32
 652 618 652 618 668 597.5 c 128,-1,33
 684 577 684 577 684 532 c 2,34,-1
 684 246 l 2,35,36
 684 189 684 189 671.5 143 c 128,-1,37
 659 97 659 97 633.5 64.5 c 128,-1,38
 608 32 608 32 571 14 c 128,-1,39
 534 -4 534 -4 484 -4 c 0,0,1
599 556 m 0,40,41
 599 560 599 560 602 568 c 128,-1,42
 605 576 605 576 612 584 c 0,43,44
 620 595 620 595 620.5 599 c 128,-1,45
 621 603 621 603 612 603 c 0,46,47
 607 603 607 603 602.5 598 c 128,-1,48
 598 593 598 593 595 588 c 0,49,50
 593 583 593 583 589.5 575 c 128,-1,51
 586 567 586 567 585 558 c 0,52,53
 585 553 585 553 586 548.5 c 128,-1,54
 587 544 587 544 592 544 c 256,55,56
 597 544 597 544 598 547.5 c 128,-1,57
 599 551 599 551 599 556 c 0,40,41
331 570 m 0,58,59
 335 579 335 579 340.5 585 c 128,-1,60
 346 591 346 591 346 598 c 0,61,62
 346 603 346 603 343 603 c 256,63,64
 340 603 340 603 334 600.5 c 128,-1,65
 328 598 328 598 323 590 c 0,66,67
 308 569 308 569 306 552 c 128,-1,68
 304 535 304 535 310 535 c 0,69,70
 315 535 315 535 320.5 545.5 c 128,-1,71
 326 556 326 556 331 570 c 0,58,59
400 48 m 0,72,73
 400 51 400 51 392.5 57 c 128,-1,74
 385 63 385 63 377 72 c 0,75,76
 369 80 369 80 358.5 93.5 c 128,-1,77
 348 107 348 107 341 122 c 0,78,79
 336 132 336 132 331.5 136 c 128,-1,80
 327 140 327 140 325 140 c 0,81,82
 321 140 321 140 321 133 c 0,83,84
 321 125 321 125 329 109.5 c 128,-1,85
 337 94 337 94 348 79 c 128,-1,86
 359 64 359 64 371.5 53 c 128,-1,87
 384 42 384 42 394 42 c 0,88,89
 400 42 400 42 400 48 c 0,72,73
423 39 m 0,90,91
 423 40 423 40 420.5 43 c 128,-1,92
 418 46 418 46 415 46 c 0,93,94
 410 45 410 45 408 42 c 128,-1,95
 406 39 406 39 406 37 c 0,96,97
 407 34 407 34 408 31.5 c 128,-1,98
 409 29 409 29 414 30 c 0,99,100
 423 30 423 30 423 39 c 0,90,91
EndSplineSet
EndChar

StartChar: V
Encoding: 86 86 62
Width: 973
Flags: W
LayerCount: 2
Fore
SplineSet
525 103 m 1,0,-1
 454 103 l 1,1,-1
 454 783 l 1,2,-1
 525 783 l 1,3,-1
 525 103 l 1,0,-1
442 0 m 1,4,-1
 216 545 l 1,5,-1
 216 599 l 1,6,-1
 757 599 l 1,7,-1
 757 544 l 1,8,-1
 532 0 l 1,9,-1
 442 0 l 1,4,-1
488 98 m 1,10,-1
 661 520 l 1,11,-1
 315 520 l 1,12,-1
 488 98 l 1,10,-1
EndSplineSet
EndChar

StartChar: W
Encoding: 87 87 63
Width: 973
Flags: W
LayerCount: 2
Fore
SplineSet
788.517578125 609.5 m 0,0,1
 788.017578125 578 788.017578125 578 767.517578125 568.5 c 0,2,3
 746.017578125 558 746.017578125 558 722.517578125 557.5 c 0,4,5
 687.017578125 557 687.017578125 557 477.517578125 556 c 128,-1,6
 268.017578125 555 268.017578125 555 237.517578125 555.5 c 4,7,8
 216.017578125 556 216.017578125 556 200.017578125 566 c 4,9,10
 185.017578125 575 185.017578125 575 184.517578125 599.5 c 4,11,12
 184.017578125 614 184.017578125 614 190.517578125 622 c 4,13,14
 196.017578125 630 196.017578125 630 205.517578125 635.5 c 4,15,16
 214.017578125 640 214.017578125 640 226.017578125 642.5 c 4,17,18
 238.017578125 644 238.017578125 644 248.517578125 644.5 c 4,19,20
 280.017578125 645 280.017578125 645 494.017578125 646 c 128,-1,21
 708.017578125 647 708.017578125 647 742.517578125 646.5 c 0,22,23
 760.017578125 646 760.017578125 646 774.017578125 639 c 128,-1,24
 788.017578125 632 788.017578125 632 788.517578125 609.5 c 0,0,1
202.517578125 580.5 m 4,25,26
 207.017578125 580 207.017578125 580 211.017578125 586 c 132,-1,27
 215.017578125 592 215.017578125 592 219.017578125 598 c 132,-1,28
 223.017578125 604 223.017578125 604 225.017578125 611 c 132,-1,29
 227.017578125 618 227.017578125 618 227.517578125 619.5 c 4,30,31
 227.017578125 624 227.017578125 624 227.017578125 627 c 132,-1,32
 227.017578125 630 227.017578125 630 221.517578125 630.5 c 4,33,34
 209.017578125 630 209.017578125 630 202.017578125 617 c 4,35,36
 196.017578125 607 196.017578125 607 195.517578125 593.5 c 4,37,38
 195.017578125 586 195.017578125 586 198.017578125 583 c 132,-1,39
 201.017578125 580 201.017578125 580 202.517578125 580.5 c 4,25,26
588.017578125 0 m 0,40,41
 565.017578125 0 565.017578125 0 548.517578125 6 c 128,-1,42
 532.017578125 12 532.017578125 12 520.517578125 23.5 c 128,-1,43
 509.017578125 35 509.017578125 35 501.017578125 51 c 0,44,45
 489.017578125 75 489.017578125 75 486.017578125 87 c 0,46,47
 485.017578125 91 485.017578125 91 484.017578125 97 c 128,-1,48
 483.017578125 103 483.017578125 103 481.517578125 109 c 128,-1,49
 480.017578125 115 480.017578125 115 478.517578125 119 c 128,-1,50
 477.017578125 123 477.017578125 123 475.017578125 123 c 256,51,52
 473.017578125 123 473.017578125 123 471.017578125 115.5 c 128,-1,53
 469.017578125 108 469.017578125 108 465.017578125 97 c 0,54,55
 455.017578125 71 455.017578125 71 446.017578125 52.5 c 128,-1,56
 437.017578125 34 437.017578125 34 425.517578125 22.5 c 128,-1,57
 414.017578125 11 414.017578125 11 400.017578125 5.5 c 128,-1,58
 386.017578125 0 386.017578125 0 366.017578125 0 c 0,59,60
 326.017578125 0 326.017578125 0 296.517578125 13.5 c 128,-1,61
 267.017578125 27 267.017578125 27 248.017578125 51.5 c 128,-1,62
 229.017578125 76 229.017578125 76 220.017578125 109.5 c 128,-1,63
 211.017578125 143 211.017578125 143 211.017578125 183 c 2,64,-1
 211.017578125 462 l 2,65,66
 211.017578125 472 211.017578125 472 214.017578125 485.5 c 128,-1,67
 217.017578125 499 217.017578125 499 224.017578125 511 c 128,-1,68
 231.017578125 523 231.017578125 523 242.517578125 531.5 c 128,-1,69
 254.017578125 540 254.017578125 540 272.017578125 540 c 0,70,71
 301.017578125 540 301.017578125 540 312.017578125 519.5 c 0,72,73
 322.900390625 499.21875 322.900390625 499.21875 323.017578125 467 c 2,74,-1
 324.017578125 193 l 2,75,76
 324.017578125 183 324.017578125 183 326.017578125 166.5 c 128,-1,77
 328.017578125 150 328.017578125 150 332.517578125 134 c 128,-1,78
 337.017578125 118 337.017578125 118 346.017578125 106.5 c 128,-1,79
 355.017578125 95 355.017578125 95 368.017578125 95 c 0,80,81
 391.017578125 95 391.017578125 95 404.517578125 129 c 128,-1,82
 418.017578125 163 418.017578125 163 425.017578125 219 c 128,-1,83
 432.017578125 275 432.017578125 275 433.517578125 308.5 c 128,-1,84
 435.017578125 342 435.017578125 342 435.017578125 418 c 0,85,86
 435.017578125 482 435.017578125 482 445.017578125 506.5 c 128,-1,87
 455.017578125 531 455.017578125 531 485.017578125 531 c 0,88,89
 499.017578125 531 499.017578125 531 508.017578125 526 c 128,-1,90
 517.017578125 521 517.017578125 521 523.017578125 505 c 128,-1,91
 529.017578125 489 529.017578125 489 531.517578125 459 c 128,-1,92
 534.017578125 429 534.017578125 429 534.017578125 379 c 0,93,94
 534.017578125 300 534.017578125 300 534.017578125 285.5 c 128,-1,95
 534.017578125 271 534.017578125 271 535.517578125 236.5 c 128,-1,96
 537.017578125 202 537.017578125 202 539.517578125 181.5 c 128,-1,97
 542.017578125 161 542.017578125 161 547.017578125 146 c 0,98,99
 556.017578125 117 556.017578125 117 566.017578125 105.5 c 128,-1,100
 576.017578125 94 576.017578125 94 589.017578125 94 c 0,101,102
 648.017578125 94 648.017578125 94 648.017578125 239 c 2,103,-1
 648.017578125 479 l 2,104,105
 648.017578125 490 648.017578125 490 650.017578125 501 c 128,-1,106
 652.017578125 512 652.017578125 512 657.517578125 520.5 c 128,-1,107
 663.017578125 529 663.017578125 529 673.017578125 534.5 c 128,-1,108
 683.017578125 540 683.017578125 540 698.017578125 540 c 0,109,110
 730.017578125 540 730.017578125 540 744.517578125 522.5 c 128,-1,111
 759.017578125 505 759.017578125 505 759.017578125 479 c 2,112,-1
 759.017578125 220 l 2,113,114
 759.017578125 178 759.017578125 178 747.517578125 138.5 c 128,-1,115
 736.017578125 99 736.017578125 99 714.517578125 68 c 128,-1,116
 693.017578125 37 693.017578125 37 661.017578125 18.5 c 128,-1,117
 629.017578125 0 629.017578125 0 588.017578125 0 c 0,40,41
236.017578125 455 m 0,118,119
 243.017578125 455 243.017578125 455 245.517578125 462 c 128,-1,120
 248.017578125 469 248.017578125 469 249.017578125 474 c 0,121,122
 251.017578125 488 251.017578125 488 260.017578125 497.5 c 0,123,124
 275.017578125 513 275.017578125 513 275.017578125 519 c 0,125,126
 275.017578125 521 275.017578125 521 273.017578125 524 c 128,-1,127
 271.017578125 527 271.017578125 527 268.017578125 527 c 0,128,129
 262.017578125 527 262.017578125 527 255.017578125 520.5 c 128,-1,130
 248.017578125 514 248.017578125 514 242.017578125 505 c 128,-1,131
 236.017578125 496 236.017578125 496 232.517578125 485.5 c 128,-1,132
 229.017578125 475 229.017578125 475 229.017578125 467 c 0,133,134
 229.017578125 463 229.017578125 463 230.017578125 459 c 128,-1,135
 231.017578125 455 231.017578125 455 236.017578125 455 c 0,118,119
681.017578125 473 m 0,136,137
 681.017578125 483 681.017578125 483 684.017578125 491 c 128,-1,138
 687.017578125 499 687.017578125 499 691.017578125 506 c 0,139,140
 696.017578125 514 696.017578125 514 695.017578125 519 c 128,-1,141
 694.017578125 524 694.017578125 524 691.017578125 524 c 0,142,143
 686.017578125 524 686.017578125 524 679.517578125 520.5 c 128,-1,144
 673.017578125 517 673.017578125 517 669.017578125 507 c 0,145,146
 664.017578125 491 664.017578125 491 665.517578125 476 c 128,-1,147
 667.017578125 461 667.017578125 461 675.017578125 461 c 0,148,149
 677.017578125 461 677.017578125 461 679.017578125 464.5 c 128,-1,150
 681.017578125 468 681.017578125 468 681.017578125 473 c 0,136,137
462.017578125 467 m 0,151,152
 462.017578125 468 462.017578125 468 464.017578125 477.5 c 128,-1,153
 466.017578125 487 466.017578125 487 469.017578125 493 c 0,154,155
 476.017578125 506 476.017578125 506 478.017578125 511 c 128,-1,156
 480.017578125 516 480.017578125 516 477.017578125 516 c 0,157,158
 475.017578125 516 475.017578125 516 469.517578125 514 c 128,-1,159
 464.017578125 512 464.017578125 512 459.017578125 505 c 0,160,161
 448.017578125 490 448.017578125 490 448.517578125 473 c 128,-1,162
 449.017578125 456 449.017578125 456 457.017578125 456 c 0,163,164
 462.017578125 456 462.017578125 456 462.017578125 467 c 0,151,152
313.017578125 37 m 0,165,166
 312.017578125 42 312.017578125 42 299.017578125 51 c 128,-1,167
 286.017578125 60 286.017578125 60 280.017578125 67 c 0,168,169
 269.017578125 78 269.017578125 78 264.517578125 89 c 128,-1,170
 260.017578125 100 260.017578125 100 255.017578125 99 c 0,171,172
 251.017578125 99 251.017578125 99 251.517578125 92 c 128,-1,173
 252.017578125 85 252.017578125 85 256.517578125 75 c 128,-1,174
 261.017578125 65 261.017578125 65 270.017578125 54 c 128,-1,175
 279.017578125 43 279.017578125 43 292.017578125 34 c 0,176,177
 301.017578125 27 301.017578125 27 308.017578125 29 c 0,178,179
 313.017578125 29 313.017578125 29 313.017578125 37 c 0,165,166
579.017578125 22 m 0,180,181
 579.017578125 26 579.017578125 26 575.517578125 27 c 128,-1,182
 572.017578125 28 572.017578125 28 569.017578125 28 c 0,183,184
 564.017578125 29 564.017578125 29 554.017578125 38 c 128,-1,185
 544.017578125 47 544.017578125 47 538.017578125 57 c 0,186,187
 528.017578125 72 528.017578125 72 520.017578125 74 c 0,188,189
 517.017578125 74 517.017578125 74 517.017578125 69 c 0,190,191
 517.017578125 67 517.017578125 67 520.517578125 59 c 128,-1,192
 524.017578125 51 524.017578125 51 531.017578125 42 c 128,-1,193
 538.017578125 33 538.017578125 33 547.517578125 25.5 c 128,-1,194
 557.017578125 18 557.017578125 18 568.017578125 17 c 0,195,196
 572.017578125 17 572.017578125 17 575.017578125 17 c 128,-1,197
 578.017578125 17 578.017578125 17 579.017578125 22 c 0,180,181
EndSplineSet
EndChar

StartChar: X
Encoding: 88 88 64
Width: 973
Flags: W
LayerCount: 2
Fore
SplineSet
573.034179688 174.834960938 m 0,0,1
 582.638671875 166.602539062 582.638671875 166.602539062 596.290039062 152.40234375 c 128,-1,2
 609.94140625 138.202148438 609.94140625 138.202148438 622.581054688 125.494140625 c 128,-1,3
 635.220703125 112.786132812 635.220703125 112.786132812 645.475585938 104.829101562 c 128,-1,4
 655.731445312 96.87109375 655.731445312 96.87109375 658.543945312 101.124023438 c 0,5,6
 660.225585938 102.598632812 660.225585938 102.598632812 662.111328125 107.229492188 c 128,-1,7
 663.998046875 111.860351562 663.998046875 111.860351562 660.5 116.524414062 c 0,8,9
 657.549804688 119.885742188 657.549804688 119.885742188 647.5 131 c 128,-1,10
 637.450195312 142.112304688 637.450195312 142.112304688 625.547851562 153.98046875 c 128,-1,11
 613.646484375 165.84765625 613.646484375 165.84765625 602.104492188 175.94921875 c 128,-1,12
 590.561523438 186.05078125 590.561523438 186.05078125 585.005859375 188.313476562 c 0,13,14
 578.5234375 190.955078125 578.5234375 190.955078125 573.840820312 184.764648438 c 128,-1,15
 569.159179688 178.573242188 569.159179688 178.573242188 573.034179688 174.834960938 c 0,0,1
315.953125 485.340820312 m 0,16,17
 325.557617188 477.108398438 325.557617188 477.108398438 339.208984375 462.908203125 c 128,-1,18
 352.860351562 448.708007812 352.860351562 448.708007812 365.5 436 c 128,-1,19
 378.139648438 423.291992188 378.139648438 423.291992188 388.39453125 415.334960938 c 128,-1,20
 398.650390625 407.376953125 398.650390625 407.376953125 401.462890625 411.629882812 c 0,21,22
 403.14453125 413.104492188 403.14453125 413.104492188 405.030273438 417.735351562 c 128,-1,23
 406.916992188 422.366210938 406.916992188 422.366210938 403.418945312 427.030273438 c 0,24,25
 400.46875 430.391601562 400.46875 430.391601562 390.418945312 441.505859375 c 128,-1,26
 380.369140625 452.618164062 380.369140625 452.618164062 368.466796875 464.486328125 c 128,-1,27
 356.565429688 476.353515625 356.565429688 476.353515625 345.0234375 486.455078125 c 128,-1,28
 333.48046875 496.556640625 333.48046875 496.556640625 327.924804688 498.819335938 c 0,29,30
 321.442382812 501.4609375 321.442382812 501.4609375 316.759765625 495.270507812 c 128,-1,31
 312.078125 489.079101562 312.078125 489.079101562 315.953125 485.340820312 c 0,16,17
578.504882812 411.383789062 m 0,32,33
 587.44921875 420.328125 587.44921875 420.328125 602.654296875 432.850585938 c 128,-1,34
 617.860351562 445.372070312 617.860351562 445.372070312 631.5 457 c 128,-1,35
 645.139648438 468.627929688 645.139648438 468.627929688 653.860351562 478.2421875 c 128,-1,36
 662.581054688 487.857421875 662.581054688 487.857421875 658.556640625 490.98828125 c 0,37,38
 657.21484375 492.77734375 657.21484375 492.77734375 652.7421875 495.012695312 c 128,-1,39
 648.270507812 497.249023438 648.270507812 497.249023438 643.3515625 494.119140625 c 0,40,41
 639.7734375 491.435546875 639.7734375 491.435546875 627.921875 482.267578125 c 128,-1,42
 616.071289062 473.099609375 616.071289062 473.099609375 603.325195312 462.142578125 c 128,-1,43
 590.580078125 451.186523438 590.580078125 451.186523438 579.623046875 440.453125 c 128,-1,44
 568.666015625 429.719726562 568.666015625 429.719726562 565.983398438 424.353515625 c 0,45,46
 562.852539062 418.092773438 562.852539062 418.092773438 568.666015625 412.94921875 c 128,-1,47
 574.48046875 407.806640625 574.48046875 407.806640625 578.504882812 411.383789062 c 0,32,33
304.504882812 123.383789062 m 0,48,49
 313.44921875 132.328125 313.44921875 132.328125 328.654296875 144.850585938 c 128,-1,50
 343.860351562 157.372070312 343.860351562 157.372070312 357.5 169 c 128,-1,51
 371.139648438 180.627929688 371.139648438 180.627929688 379.860351562 190.2421875 c 128,-1,52
 388.581054688 199.857421875 388.581054688 199.857421875 384.556640625 202.98828125 c 0,53,54
 383.21484375 204.77734375 383.21484375 204.77734375 378.7421875 207.012695312 c 128,-1,55
 374.270507812 209.249023438 374.270507812 209.249023438 369.3515625 206.119140625 c 0,56,57
 365.7734375 203.435546875 365.7734375 203.435546875 353.921875 194.267578125 c 128,-1,58
 342.071289062 185.099609375 342.071289062 185.099609375 329.325195312 174.142578125 c 128,-1,59
 316.580078125 163.186523438 316.580078125 163.186523438 305.623046875 152.453125 c 128,-1,60
 294.666015625 141.719726562 294.666015625 141.719726562 291.983398438 136.353515625 c 0,61,62
 288.852539062 130.092773438 288.852539062 130.092773438 294.666015625 124.94921875 c 128,-1,63
 300.48046875 119.806640625 300.48046875 119.806640625 304.504882812 123.383789062 c 0,48,49
304.504882812 123.383789062 m 0,64,65
 313.44921875 132.328125 313.44921875 132.328125 328.654296875 144.850585938 c 128,-1,66
 343.860351562 157.372070312 343.860351562 157.372070312 357.5 169 c 128,-1,67
 371.139648438 180.627929688 371.139648438 180.627929688 379.860351562 190.2421875 c 128,-1,68
 388.581054688 199.857421875 388.581054688 199.857421875 384.556640625 202.98828125 c 0,69,70
 383.21484375 204.77734375 383.21484375 204.77734375 378.7421875 207.012695312 c 128,-1,71
 374.270507812 209.249023438 374.270507812 209.249023438 369.3515625 206.119140625 c 0,72,73
 365.7734375 203.435546875 365.7734375 203.435546875 353.921875 194.267578125 c 128,-1,74
 342.071289062 185.099609375 342.071289062 185.099609375 329.325195312 174.142578125 c 128,-1,75
 316.580078125 163.186523438 316.580078125 163.186523438 305.623046875 152.453125 c 128,-1,76
 294.666015625 141.719726562 294.666015625 141.719726562 291.983398438 136.353515625 c 0,77,78
 288.852539062 130.092773438 288.852539062 130.092773438 294.666015625 124.94921875 c 128,-1,79
 300.48046875 119.806640625 300.48046875 119.806640625 304.504882812 123.383789062 c 0,64,65
325.5 71 m 1,80,-1
 256.5 140 l 1,81,-1
 417.5 301 l 1,82,-1
 256.5 462 l 1,83,-1
 325.5 531 l 1,84,-1
 486.5 370 l 1,85,-1
 647.5 531 l 1,86,-1
 716.5 462 l 1,87,-1
 555.5 301 l 1,88,-1
 716.5 140 l 1,89,-1
 647.5 71 l 1,90,-1
 486.5 232 l 1,91,-1
 325.5 71 l 1,80,-1
EndSplineSet
EndChar

StartChar: Y
Encoding: 89 89 65
Width: 973
Flags: W
LayerCount: 2
Fore
SplineSet
486.86328125 0 m 0,0,1
 460.86328125 0 460.86328125 0 447.36328125 16.5 c 128,-1,2
 433.86328125 33 433.86328125 33 433.86328125 52 c 2,3,-1
 433.86328125 191 l 2,4,5
 433.86328125 204 433.86328125 204 432.36328125 214.5 c 128,-1,6
 430.86328125 225 430.86328125 225 427.36328125 236 c 128,-1,7
 423.86328125 247 423.86328125 247 417.86328125 260.5 c 128,-1,8
 411.86328125 274 411.86328125 274 402.86328125 294 c 2,9,-1
 283.86328125 556 l 2,10,11
 280.86328125 563 280.86328125 563 283.36328125 573.5 c 128,-1,12
 285.86328125 584 285.86328125 584 293.36328125 593.5 c 128,-1,13
 300.86328125 603 300.86328125 603 312.86328125 609.5 c 128,-1,14
 324.86328125 616 324.86328125 616 340.86328125 616 c 0,15,16
 349.86328125 616 349.86328125 616 358.36328125 611.5 c 128,-1,17
 366.86328125 607 366.86328125 607 371.86328125 595 c 2,18,-1
 464.86328125 377 l 2,19,20
 469.86328125 366 469.86328125 366 476.36328125 354 c 128,-1,21
 482.86328125 342 482.86328125 342 488.86328125 342 c 256,22,23
 494.86328125 342 494.86328125 342 500.86328125 351.5 c 128,-1,24
 506.86328125 361 506.86328125 361 513.86328125 377 c 2,25,-1
 613.86328125 600 l 2,26,27
 618.86328125 611 618.86328125 611 628.86328125 613.5 c 128,-1,28
 638.86328125 616 638.86328125 616 645.86328125 616 c 0,29,30
 658.86328125 616 658.86328125 616 668.36328125 609 c 128,-1,31
 677.86328125 602 677.86328125 602 683.36328125 592 c 128,-1,32
 688.86328125 582 688.86328125 582 690.36328125 571 c 128,-1,33
 691.86328125 560 691.86328125 560 687.86328125 552 c 2,34,-1
 562.86328125 281 l 2,35,36
 555.86328125 266 555.86328125 266 551.86328125 255.5 c 128,-1,37
 547.86328125 245 547.86328125 245 546.36328125 234 c 128,-1,38
 544.86328125 223 544.86328125 223 544.36328125 209.5 c 128,-1,39
 543.86328125 196 543.86328125 196 543.86328125 174 c 2,40,-1
 543.86328125 52 l 2,41,42
 543.86328125 37 543.86328125 37 538.36328125 27 c 128,-1,43
 532.86328125 17 532.86328125 17 524.36328125 11 c 128,-1,44
 515.86328125 5 515.86328125 5 505.86328125 2.5 c 128,-1,45
 495.86328125 0 495.86328125 0 486.86328125 0 c 0,0,1
314.86328125 551 m 0,46,47
 312.86328125 559 312.86328125 559 313.36328125 564.5 c 128,-1,48
 313.86328125 570 313.86328125 570 312.86328125 575 c 256,49,50
 311.86328125 580 311.86328125 580 309.86328125 584 c 128,-1,51
 307.86328125 588 307.86328125 588 305.86328125 587 c 0,52,53
 294.86328125 582 294.86328125 582 296.36328125 568 c 128,-1,54
 297.86328125 554 297.86328125 554 300.86328125 546 c 0,55,56
 305.86328125 535 305.86328125 535 312.86328125 537 c 0,57,58
 316.86328125 539 316.86328125 539 316.86328125 543 c 128,-1,59
 316.86328125 547 316.86328125 547 314.86328125 551 c 0,46,47
470.86328125 33 m 0,60,61
 468.86328125 37 468.86328125 37 465.36328125 47 c 128,-1,62
 461.86328125 57 461.86328125 57 459.86328125 74 c 0,63,64
 458.86328125 97 458.86328125 97 454.86328125 97 c 0,65,66
 453.86328125 97 453.86328125 97 451.86328125 93.5 c 128,-1,67
 449.86328125 90 449.86328125 90 448.86328125 81 c 0,68,69
 446.86328125 49 446.86328125 49 454.36328125 35 c 128,-1,70
 461.86328125 21 461.86328125 21 470.86328125 21 c 0,71,72
 474.86328125 21 474.86328125 21 473.86328125 24.5 c 128,-1,73
 472.86328125 28 472.86328125 28 470.86328125 33 c 0,60,61
EndSplineSet

EndChar

StartChar: Z
Encoding: 90 90 66
Width: 973
Flags: W
LayerCount: 2
Fore
SplineSet
386 0 m 2,0,1
 375 0 375 0 362.5 2.5 c 128,-1,2
 350 5 350 5 340 11.5 c 128,-1,3
 330 18 330 18 323.5 28.5 c 128,-1,4
 317 39 317 39 317 55 c 0,5,6
 317 65 317 65 318.5 76 c 128,-1,7
 320 87 320 87 328 102 c 2,8,-1
 409 262 l 1,9,-1
 385 262 l 2,10,11
 370 262 370 262 362 273 c 128,-1,12
 354 284 354 284 354 301 c 256,13,14
 354 318 354 318 360.5 328 c 128,-1,15
 367 338 367 338 385 338 c 2,16,-1
 447 338 l 1,17,-1
 536 513 l 2,18,19
 539 519 539 519 539 525 c 0,20,21
 538 531 538 531 528 531 c 2,22,-1
 350 533 l 2,23,24
 337 533 337 533 328.5 543.5 c 128,-1,25
 320 554 320 554 320 569 c 0,26,27
 320 598 320 598 334.5 608 c 128,-1,28
 349 618 349 618 368 618 c 2,29,-1
 614 616 l 2,30,31
 626 616 626 616 634 609.5 c 128,-1,32
 642 603 642 603 646.5 593.5 c 128,-1,33
 651 584 651 584 653 572 c 128,-1,34
 655 560 655 560 655 548 c 0,35,36
 655 518 655 518 640 488 c 2,37,-1
 561 338 l 1,38,-1
 591 338 l 2,39,40
 609 338 609 338 616.5 329.5 c 128,-1,41
 624 321 624 321 624 307 c 0,42,43
 624 287 624 287 617.5 274.5 c 128,-1,44
 611 262 611 262 595 262 c 2,45,-1
 521 262 l 1,46,-1
 466 158 l 2,47,48
 454 135 454 135 447.5 121.5 c 128,-1,49
 441 108 441 108 441 100 c 0,50,51
 441 87 441 87 469 87 c 2,52,-1
 617 86 l 2,53,54
 637 86 637 86 646.5 72 c 128,-1,55
 656 58 656 58 656 35 c 0,56,57
 656 21 656 21 646.5 10.5 c 128,-1,58
 637 0 637 0 629 0 c 2,59,-1
 386 0 l 2,0,1
350 574 m 0,60,61
 352 578 352 578 356 585 c 128,-1,62
 360 592 360 592 359 595 c 0,63,64
 359 597 359 597 355.5 599.5 c 128,-1,65
 352 602 352 602 350 602 c 0,66,67
 339 600 339 600 336 586 c 128,-1,68
 333 572 333 572 335 560 c 0,69,70
 335 558 335 558 337 555 c 128,-1,71
 339 552 339 552 341 552 c 0,72,73
 345 553 345 553 347 562.5 c 128,-1,74
 349 572 349 572 350 574 c 0,60,61
377 306 m 0,75,76
 377 311 377 311 380 318.5 c 128,-1,77
 383 326 383 326 378 326 c 256,78,79
 373 326 373 326 368 318.5 c 128,-1,80
 363 311 363 311 363 300 c 0,81,82
 363 293 363 293 365.5 285.5 c 128,-1,83
 368 278 368 278 373 278 c 256,84,85
 378 278 378 278 377.5 287.5 c 128,-1,86
 377 297 377 297 377 306 c 0,75,76
343 49 m 0,87,88
 347 49 347 49 351 57.5 c 128,-1,89
 355 66 355 66 359 77.5 c 128,-1,90
 363 89 363 89 365.5 100.5 c 128,-1,91
 368 112 368 112 368 117 c 0,92,93
 368 121 368 121 364 121 c 0,94,95
 359 121 359 121 354 114 c 128,-1,96
 349 107 349 107 344.5 99 c 128,-1,97
 340 91 340 91 337 82.5 c 128,-1,98
 334 74 334 74 334 71 c 0,99,100
 333 63 333 63 335.5 56 c 128,-1,101
 338 49 338 49 343 49 c 0,87,88
358 27 m 0,102,103
 358 34 358 34 353 34 c 0,104,105
 344 34 344 34 344 25 c 0,106,107
 344 19 344 19 349 19 c 0,108,109
 352 19 352 19 355 21.5 c 128,-1,110
 358 24 358 24 358 27 c 0,102,103
EndSplineSet
EndChar

StartChar: a
Encoding: 97 97 67
Width: 973
Flags: W
LayerCount: 2
Fore
SplineSet
492.5 621 m 0,0,1
 524.5 621 524.5 621 545.5 611 c 128,-1,2
 566.5 601 566.5 601 574.5 587 c 0,3,4
 580.5 575 580.5 575 592 534 c 128,-1,5
 603.5 493 603.5 493 617 437 c 128,-1,6
 630.5 381 630.5 381 645 318 c 128,-1,7
 659.5 255 659.5 255 671.5 199 c 128,-1,8
 683.5 143 683.5 143 691 101.5 c 128,-1,9
 698.5 60 698.5 60 698.5 48 c 0,10,11
 698.5 28 698.5 28 677.5 12.5 c 128,-1,12
 656.5 -3 656.5 -3 632.5 -3 c 256,13,14
 608.5 -3 608.5 -3 599.5 11 c 0,15,16
 595.5 17 595.5 17 589.5 32 c 128,-1,17
 583.5 47 583.5 47 577.5 67 c 128,-1,18
 571.5 87 571.5 87 566 109 c 128,-1,19
 560.5 131 560.5 131 556.5 152 c 0,20,21
 552.5 172 552.5 172 545 176.5 c 128,-1,22
 537.5 181 537.5 181 527.5 181 c 0,23,24
 498.5 181 498.5 181 476.5 181.5 c 128,-1,25
 454.5 182 454.5 182 443.5 182 c 0,26,27
 423.5 182 423.5 182 414 177.5 c 128,-1,28
 404.5 173 404.5 173 401.5 162 c 2,29,-1
 375.5 62 l 2,30,31
 367.5 33 367.5 33 350 15.5 c 128,-1,32
 332.5 -2 332.5 -2 310.5 -2 c 0,33,34
 274.5 -2 274.5 -2 274.5 48 c 0,35,36
 274.5 65 274.5 65 278.5 95.5 c 128,-1,37
 282.5 126 282.5 126 289 164.5 c 128,-1,38
 295.5 203 295.5 203 305 246.5 c 128,-1,39
 314.5 290 314.5 290 325 334.5 c 128,-1,40
 335.5 379 335.5 379 346.5 421 c 128,-1,41
 357.5 463 357.5 463 368.5 497 c 0,42,43
 380.5 535 380.5 535 393 559 c 128,-1,44
 405.5 583 405.5 583 419.5 597 c 128,-1,45
 433.5 611 433.5 611 451 616 c 128,-1,46
 468.5 621 468.5 621 492.5 621 c 0,0,1
431.5 561 m 0,47,48
 442.5 574 442.5 574 451.5 585.5 c 128,-1,49
 460.5 597 460.5 597 453.5 598 c 0,50,51
 437.5 601 437.5 601 421.5 579 c 0,52,53
 410.5 562 410.5 562 405.5 543 c 128,-1,54
 400.5 524 400.5 524 408.5 522 c 0,55,56
 410.5 522 410.5 522 412.5 525.5 c 128,-1,57
 414.5 529 414.5 529 416.5 535 c 128,-1,58
 418.5 541 418.5 541 422 548 c 128,-1,59
 425.5 555 425.5 555 431.5 561 c 0,47,48
447.5 377 m 0,60,61
 436.5 320 436.5 320 433 298.5 c 128,-1,62
 429.5 277 429.5 277 438.5 277 c 2,63,-1
 526.5 277 l 2,64,65
 534.5 277 534.5 277 530.5 296.5 c 128,-1,66
 526.5 316 526.5 316 518.5 357 c 0,67,68
 516.5 368 516.5 368 513.5 393.5 c 128,-1,69
 510.5 419 510.5 419 506 445 c 128,-1,70
 501.5 471 501.5 471 496.5 491.5 c 128,-1,71
 491.5 512 491.5 512 485.5 512 c 0,72,73
 480.5 512 480.5 512 474.5 494 c 128,-1,74
 468.5 476 468.5 476 463 452.5 c 128,-1,75
 457.5 429 457.5 429 453.5 407 c 128,-1,76
 449.5 385 449.5 385 447.5 377 c 0,60,61
306.5 63 m 0,77,78
 308.5 75 308.5 75 306.5 82 c 128,-1,79
 304.5 89 304.5 89 300.5 90 c 0,80,81
 298.5 90 298.5 90 296 87.5 c 128,-1,82
 293.5 85 293.5 85 291.5 77 c 0,83,84
 287.5 57 287.5 57 290.5 38.5 c 128,-1,85
 293.5 20 293.5 20 301.5 18 c 0,86,87
 311.5 16 311.5 16 305.5 33 c 0,88,89
 303.5 39 303.5 39 304 46.5 c 128,-1,90
 304.5 54 304.5 54 306.5 63 c 0,77,78
611.5 64 m 0,91,92
 604.5 78 604.5 78 602.5 83 c 128,-1,93
 600.5 88 600.5 88 598.5 88 c 0,94,95
 595.5 88 595.5 88 593.5 78 c 0,96,97
 593.5 74 593.5 74 596 63.5 c 128,-1,98
 598.5 53 598.5 53 602.5 42.5 c 128,-1,99
 606.5 32 606.5 32 612 24 c 128,-1,100
 617.5 16 617.5 16 622.5 16 c 0,101,102
 625.5 16 625.5 16 625.5 21 c 128,-1,103
 625.5 26 625.5 26 623 34 c 128,-1,104
 620.5 42 620.5 42 617.5 50 c 128,-1,105
 614.5 58 614.5 58 611.5 64 c 0,91,92
EndSplineSet
EndChar

StartChar: b
Encoding: 98 98 68
Width: 973
Flags: W
LayerCount: 2
Fore
SplineSet
620 -11 m 0,0,1
 584 -11 584 -11 558 -0.5 c 128,-1,2
 532 10 532 10 516 28.5 c 128,-1,3
 500 47 500 47 492.5 70 c 128,-1,4
 485 93 485 93 485 117 c 0,5,6
 485 149 485 149 493.5 175 c 128,-1,7
 502 201 502 201 516 234 c 0,8,9
 528 262 528 262 536.5 289 c 128,-1,10
 545 316 545 316 545 349 c 0,11,12
 545 393 545 393 526 423.5 c 128,-1,13
 507 454 507 454 471.5 470 c 128,-1,14
 436 486 436 486 386 486 c 0,15,16
 319 486 319 486 269 457 c 128,-1,17
 219 428 219 428 191 374.5 c 128,-1,18
 163 321 163 321 163 247 c 0,19,20
 163 215 163 215 168 185 c 128,-1,21
 173 155 173 155 186 129 c 0,22,23
 202 96 202 96 230 76.5 c 128,-1,24
 258 57 258 57 303 57 c 0,25,26
 331 57 331 57 347 64 c 128,-1,27
 363 71 363 71 370 83.5 c 128,-1,28
 377 96 377 96 377 113 c 0,29,30
 377 135 377 135 362 151 c 128,-1,31
 347 167 347 167 315 167 c 0,32,33
 284 167 284 167 256.5 150.5 c 128,-1,34
 229 134 229 134 201 99 c 1,35,-1
 168 152 l 1,36,37
 195 185 195 185 233.5 209.5 c 128,-1,38
 272 234 272 234 321 234 c 0,39,40
 365 234 365 234 393 217 c 128,-1,41
 421 200 421 200 435 173 c 128,-1,42
 449 146 449 146 449 116 c 0,43,44
 449 58 449 58 413.5 23.5 c 128,-1,45
 378 -11 378 -11 304 -11 c 0,46,47
 254 -11 254 -11 214 9 c 128,-1,48
 174 29 174 29 146.5 64.5 c 128,-1,49
 119 100 119 100 104.5 146.5 c 128,-1,50
 90 193 90 193 90 246 c 0,51,52
 90 315 90 315 111 372 c 128,-1,53
 132 429 132 429 171.5 470 c 128,-1,54
 211 511 211 511 266.5 533 c 128,-1,55
 322 555 322 555 390 555 c 0,56,57
 466 555 466 555 516.5 529 c 128,-1,58
 567 503 567 503 593 458.5 c 128,-1,59
 619 414 619 414 619 359 c 0,60,61
 619 318 619 318 608.5 284.5 c 128,-1,62
 598 251 598 251 582 213 c 0,63,64
 570 185 570 185 563 164 c 128,-1,65
 556 143 556 143 556 122 c 0,66,67
 556 90 556 90 574 74 c 128,-1,68
 592 58 592 58 623 58 c 0,69,70
 661 58 661 58 694 79.5 c 128,-1,71
 727 101 727 101 753 142 c 128,-1,72
 779 183 779 183 793.5 242.5 c 128,-1,73
 808 302 808 302 808 379 c 0,74,75
 808 466 808 466 785.5 537 c 128,-1,76
 763 608 763 608 718 659 c 128,-1,77
 673 710 673 710 606 738 c 128,-1,78
 539 766 539 766 450 766 c 0,79,80
 365 766 365 766 287 747 c 128,-1,81
 209 728 209 728 135 686 c 1,82,-1
 101 751 l 1,83,84
 152 778 152 778 207 797 c 128,-1,85
 262 816 262 816 323 826 c 128,-1,86
 384 836 384 836 452 836 c 0,87,88
 558 836 558 836 638.5 803.5 c 128,-1,89
 719 771 719 771 773.5 711 c 128,-1,90
 828 651 828 651 855.5 567 c 128,-1,91
 883 483 883 483 883 381 c 0,92,93
 883 296 883 296 865.5 224 c 128,-1,94
 848 152 848 152 814 99.5 c 128,-1,95
 780 47 780 47 731.5 18 c 128,-1,96
 683 -11 683 -11 620 -11 c 0,0,1
EndSplineSet
EndChar

StartChar: c
Encoding: 99 99 69
Width: 973
Flags: W
LayerCount: 2
Fore
SplineSet
555.5 -10 m 4,0,1
 437.5 -10 437.5 -10 372.5 57 c 132,-1,2
 307.5 124 307.5 124 307.5 245 c 4,3,4
 307.5 325 307.5 325 336.5 380.5 c 132,-1,5
 365.5 436 365.5 436 419.5 465 c 5,6,-1
 260.5 465 l 5,7,-1
 260.5 537 l 5,8,-1
 712.5 537 l 5,9,-1
 712.5 465 l 5,10,-1
 599.5 465 l 6,11,12
 505.5 465 505.5 465 452 411.5 c 132,-1,13
 398.5 358 398.5 358 398.5 252 c 4,14,15
 398.5 165 398.5 165 441.5 114.5 c 132,-1,16
 484.5 64 484.5 64 564.5 64 c 4,17,18
 601.5 64 601.5 64 635.5 73.5 c 132,-1,19
 669.5 83 669.5 83 701.5 99 c 5,20,-1
 701.5 21 l 5,21,22
 672.5 5 672.5 5 637.5 -2.5 c 132,-1,23
 602.5 -10 602.5 -10 555.5 -10 c 4,0,1
EndSplineSet
EndChar

StartChar: d
Encoding: 100 100 70
Width: 973
Flags: W
LayerCount: 2
Fore
SplineSet
640 -11 m 0,0,1
 578 -11 578 -11 540.5 14.5 c 128,-1,2
 503 40 503 40 478 77 c 1,3,4
 458 50 458 50 435.5 30 c 128,-1,5
 413 10 413 10 383 -0.5 c 128,-1,6
 353 -11 353 -11 308 -11 c 0,7,8
 249 -11 249 -11 202.5 14 c 128,-1,9
 156 39 156 39 129.5 87 c 128,-1,10
 103 135 103 135 103 204 c 0,11,12
 103 246 103 246 116.5 284.5 c 128,-1,13
 130 323 130 323 161.5 354.5 c 128,-1,14
 193 386 193 386 245 406 c 1,15,-1
 247 397 l 1,16,17
 213 391 213 391 176 390 c 128,-1,18
 139 389 139 389 110 389 c 2,19,-1
 90 389 l 1,20,-1
 90 455 l 1,21,-1
 406 455 l 1,22,23
 403 502 403 502 377.5 524 c 128,-1,24
 352 546 352 546 314 546 c 0,25,26
 275 546 275 546 256 531 c 128,-1,27
 237 516 237 516 237 489 c 0,28,29
 237 487 237 487 237 484 c 128,-1,30
 237 481 237 481 238 478 c 1,31,-1
 165 474 l 1,32,33
 164 479 164 479 164 485.5 c 128,-1,34
 164 492 164 492 164 496 c 0,35,36
 164 553 164 553 202.5 582.5 c 128,-1,37
 241 612 241 612 308 612 c 0,38,39
 362 612 362 612 400 591.5 c 128,-1,40
 438 571 438 571 457.5 530.5 c 128,-1,41
 477 490 477 490 477 430 c 2,42,-1
 477 389 l 1,43,-1
 442 389 l 2,44,45
 407 389 407 389 370 387 c 128,-1,46
 333 385 333 385 298 375 c 128,-1,47
 263 365 263 365 233 340 c 0,48,49
 207 318 207 318 191.5 285 c 128,-1,50
 176 252 176 252 176 204 c 0,51,52
 176 134 176 134 212.5 97 c 128,-1,53
 249 60 249 60 310 60 c 0,54,55
 348 60 348 60 373.5 70.5 c 128,-1,56
 399 81 399 81 414.5 100.5 c 128,-1,57
 430 120 430 120 437 147.5 c 128,-1,58
 444 175 444 175 444 208 c 2,59,-1
 444 214 l 1,60,-1
 511 214 l 1,61,-1
 511 208 l 2,62,63
 511 176 511 176 517.5 149 c 128,-1,64
 524 122 524 122 538.5 102 c 128,-1,65
 553 82 553 82 577.5 71 c 128,-1,66
 602 60 602 60 638 60 c 0,67,68
 686 60 686 60 724.5 86.5 c 128,-1,69
 763 113 763 113 785.5 175.5 c 128,-1,70
 808 238 808 238 808 345 c 0,71,72
 808 483 808 483 769 576.5 c 128,-1,73
 730 670 730 670 650.5 718 c 128,-1,74
 571 766 571 766 449 766 c 0,75,76
 385 766 385 766 332 756 c 128,-1,77
 279 746 279 746 233 728 c 128,-1,78
 187 710 187 710 143 686 c 1,79,-1
 110 751 l 1,80,81
 181 789 181 789 263.5 812.5 c 128,-1,82
 346 836 346 836 452 836 c 0,83,84
 585 836 585 836 681.5 784 c 128,-1,85
 778 732 778 732 830.5 624 c 128,-1,86
 883 516 883 516 883 348 c 0,87,88
 883 216 883 216 851.5 137 c 128,-1,89
 820 58 820 58 765 23.5 c 128,-1,90
 710 -11 710 -11 640 -11 c 0,0,1
EndSplineSet
EndChar

StartChar: e
Encoding: 101 101 71
Width: 973
Flags: W
LayerCount: 2
Fore
SplineSet
503.33984375 -10 m 0,0,1
 458.33984375 -10 458.33984375 -10 421.83984375 11.5 c 128,-1,2
 385.33984375 33 385.33984375 33 359.33984375 73 c 128,-1,3
 333.33984375 113 333.33984375 113 318.83984375 168.5 c 128,-1,4
 304.33984375 224 304.33984375 224 304.33984375 292 c 0,5,6
 304.33984375 364 304.33984375 364 320.33984375 424.5 c 128,-1,7
 336.33984375 485 336.33984375 485 364.83984375 529.5 c 128,-1,8
 393.33984375 574 393.33984375 574 432.83984375 598.5 c 128,-1,9
 472.33984375 623 472.33984375 623 518.33984375 623 c 0,10,11
 552.33984375 623 552.33984375 623 580.83984375 610 c 128,-1,12
 609.33984375 597 609.33984375 597 629.33984375 573.5 c 128,-1,13
 649.33984375 550 649.33984375 550 659.83984375 518.5 c 128,-1,14
 670.33984375 487 670.33984375 487 668.33984375 450 c 0,15,16
 666.33984375 407 666.33984375 407 648.33984375 366.5 c 128,-1,17
 630.33984375 326 630.33984375 326 600.33984375 295 c 128,-1,18
 570.33984375 264 570.33984375 264 530.83984375 245.5 c 128,-1,19
 491.33984375 227 491.33984375 227 446.33984375 227 c 0,20,21
 429.33984375 227 429.33984375 227 429.33984375 213 c 0,22,23
 429.33984375 149 429.33984375 149 451.83984375 118.5 c 128,-1,24
 474.33984375 88 474.33984375 88 509.33984375 88 c 0,25,26
 535.33984375 88 535.33984375 88 552.83984375 107 c 128,-1,27
 570.33984375 126 570.33984375 126 570.33984375 155 c 0,28,29
 570.33984375 179 570.33984375 179 583.33984375 193.5 c 128,-1,30
 596.33984375 208 596.33984375 208 616.33984375 208 c 0,31,32
 639.33984375 208 639.33984375 208 652.83984375 189.5 c 128,-1,33
 666.33984375 171 666.33984375 171 666.33984375 139 c 0,34,35
 666.33984375 109 666.33984375 109 653.33984375 81.5 c 128,-1,36
 640.33984375 54 640.33984375 54 618.33984375 34 c 128,-1,37
 596.33984375 14 596.33984375 14 566.33984375 2 c 128,-1,38
 536.33984375 -10 536.33984375 -10 503.33984375 -10 c 0,0,1
373.33984375 477 m 0,39,40
 376.33984375 477 376.33984375 477 385.83984375 491.5 c 128,-1,41
 395.33984375 506 395.33984375 506 408.33984375 523.5 c 128,-1,42
 421.33984375 541 421.33984375 541 436.33984375 556.5 c 128,-1,43
 451.33984375 572 451.33984375 572 466.33984375 573 c 0,44,45
 471.33984375 574 471.33984375 574 475.83984375 576.5 c 128,-1,46
 480.33984375 579 480.33984375 579 479.33984375 582 c 0,47,48
 479.33984375 592 479.33984375 592 466.33984375 590 c 0,49,50
 449.33984375 589 449.33984375 589 431.83984375 576 c 128,-1,51
 414.33984375 563 414.33984375 563 399.83984375 545.5 c 128,-1,52
 385.33984375 528 385.33984375 528 376.33984375 510 c 128,-1,53
 367.33984375 492 367.33984375 492 368.33984375 481 c 0,54,55
 370.33984375 474 370.33984375 474 373.33984375 477 c 0,39,40
426.33984375 315 m 0,56,57
 429.33984375 311 429.33984375 311 440.33984375 311 c 0,58,59
 466.33984375 311 466.33984375 311 490.33984375 324 c 128,-1,60
 514.33984375 337 514.33984375 337 532.33984375 357 c 128,-1,61
 550.33984375 377 550.33984375 377 561.33984375 403 c 128,-1,62
 572.33984375 429 572.33984375 429 572.33984375 454 c 0,63,64
 572.33984375 486 572.33984375 486 556.83984375 507 c 128,-1,65
 541.33984375 528 541.33984375 528 518.33984375 528 c 0,66,67
 501.33984375 528 501.33984375 528 486.83984375 513.5 c 128,-1,68
 472.33984375 499 472.33984375 499 460.83984375 477.5 c 128,-1,69
 449.33984375 456 449.33984375 456 441.33984375 429.5 c 128,-1,70
 433.33984375 403 433.33984375 403 428.83984375 379.5 c 128,-1,71
 424.33984375 356 424.33984375 356 423.33984375 338 c 128,-1,72
 422.33984375 320 422.33984375 320 426.33984375 315 c 0,56,57
360.33984375 467 m 0,73,74
 355.33984375 466 355.33984375 466 352.33984375 459.5 c 128,-1,75
 349.33984375 453 349.33984375 453 350.33984375 445 c 0,76,77
 352.33984375 436 352.33984375 436 354.33984375 437 c 0,78,79
 359.33984375 437 359.33984375 437 363.33984375 446 c 128,-1,80
 367.33984375 455 367.33984375 455 365.33984375 462 c 0,81,82
 363.33984375 468 363.33984375 468 360.33984375 467 c 0,73,74
EndSplineSet
EndChar

StartChar: f
Encoding: 102 102 72
Width: 973
Flags: W
LayerCount: 2
Fore
SplineSet
439.5 -11 m 0,0,1
 337.5 -11 337.5 -11 265 20.5 c 128,-1,2
 192.5 52 192.5 52 154.5 111 c 128,-1,3
 116.5 170 116.5 170 116.5 250 c 0,4,5
 116.5 292 116.5 292 132 330.5 c 128,-1,6
 147.5 369 147.5 369 179.5 396 c 0,7,8
 213.5 425 213.5 425 268.5 440 c 128,-1,9
 323.5 455 323.5 455 413.5 455 c 2,10,-1
 449.5 455 l 1,11,12
 447.5 502 447.5 502 421.5 524 c 128,-1,13
 395.5 546 395.5 546 356.5 546 c 256,14,15
 317.5 546 317.5 546 299 531 c 128,-1,16
 280.5 516 280.5 516 280.5 487 c 0,17,18
 280.5 482 280.5 482 281 477 c 128,-1,19
 281.5 472 281.5 472 282.5 466 c 1,20,-1
 211.5 455 l 1,21,22
 210.5 463 210.5 463 209 473 c 128,-1,23
 207.5 483 207.5 483 207.5 496 c 0,24,25
 207.5 553 207.5 553 246 582.5 c 128,-1,26
 284.5 612 284.5 612 351.5 612 c 0,27,28
 405.5 612 405.5 612 443.5 591.5 c 128,-1,29
 481.5 571 481.5 571 501 530.5 c 128,-1,30
 520.5 490 520.5 490 520.5 430 c 2,31,-1
 520.5 389 l 1,32,-1
 410.5 389 l 2,33,34
 362.5 389 362.5 389 328.5 384 c 128,-1,35
 294.5 379 294.5 379 271.5 370 c 128,-1,36
 248.5 361 248.5 361 231.5 347 c 0,37,38
 208.5 328 208.5 328 199 302.5 c 128,-1,39
 189.5 277 189.5 277 189.5 246 c 0,40,41
 189.5 188 189.5 188 219.5 146 c 128,-1,42
 249.5 104 249.5 104 305.5 82 c 128,-1,43
 361.5 60 361.5 60 439.5 60 c 0,44,45
 538.5 60 538.5 60 605 90.5 c 128,-1,46
 671.5 121 671.5 121 710 171.5 c 128,-1,47
 748.5 222 748.5 222 765 282.5 c 128,-1,48
 781.5 343 781.5 343 781.5 404 c 0,49,50
 781.5 489 781.5 489 752.5 555 c 128,-1,51
 723.5 621 723.5 621 668 670.5 c 128,-1,52
 612.5 720 612.5 720 531.5 755 c 0,53,54
 518.5 761 518.5 761 504.5 766 c 128,-1,55
 490.5 771 490.5 771 476.5 776 c 1,56,-1
 500.5 836 l 1,57,58
 574.5 813 574.5 813 632.5 779.5 c 128,-1,59
 690.5 746 690.5 746 732.5 704 c 128,-1,60
 774.5 662 774.5 662 802 613.5 c 128,-1,61
 829.5 565 829.5 565 843 511 c 128,-1,62
 856.5 457 856.5 457 856.5 399 c 0,63,64
 856.5 315 856.5 315 832.5 241 c 128,-1,65
 808.5 167 808.5 167 758 110.5 c 128,-1,66
 707.5 54 707.5 54 628.5 21.5 c 128,-1,67
 549.5 -11 549.5 -11 439.5 -11 c 0,0,1
624.5 523 m 0,68,69
 586.5 523 586.5 523 560 538.5 c 128,-1,70
 533.5 554 533.5 554 520 585.5 c 128,-1,71
 506.5 617 506.5 617 506.5 664 c 0,72,73
 506.5 706 506.5 706 504.5 727 c 128,-1,74
 502.5 748 502.5 748 496.5 758 c 128,-1,75
 490.5 768 490.5 768 478.5 775 c 1,76,-1
 509.5 800 l 1,77,78
 534.5 784 534.5 784 548.5 765.5 c 128,-1,79
 562.5 747 562.5 747 568.5 722.5 c 128,-1,80
 574.5 698 574.5 698 575.5 662 c 0,81,82
 577.5 626 577.5 626 588 607.5 c 128,-1,83
 598.5 589 598.5 589 629.5 589 c 0,84,85
 658.5 589 658.5 589 678.5 605.5 c 128,-1,86
 698.5 622 698.5 622 714.5 661 c 1,87,-1
 756.5 611 l 1,88,89
 743.5 580 743.5 580 709.5 551.5 c 128,-1,90
 675.5 523 675.5 523 624.5 523 c 0,68,69
EndSplineSet
EndChar

StartChar: g
Encoding: 103 103 73
Width: 973
Flags: W
LayerCount: 2
Fore
SplineSet
506 -5 m 0,0,1
 439 -5 439 -5 395 28 c 128,-1,2
 351 61 351 61 325 111 c 128,-1,3
 299 161 299 161 289 219 c 128,-1,4
 279 277 279 277 279 328 c 0,5,6
 279 384 279 384 290.5 437.5 c 128,-1,7
 302 491 302 491 329 532.5 c 128,-1,8
 356 574 356 574 399.5 599.5 c 128,-1,9
 443 625 443 625 507 625 c 0,10,11
 538 625 538 625 566.5 616.5 c 128,-1,12
 595 608 595 608 617 589.5 c 128,-1,13
 639 571 639 571 652 540.5 c 128,-1,14
 665 510 665 510 665 466 c 0,15,16
 665 450 665 450 658.5 440.5 c 128,-1,17
 652 431 652 431 642.5 425.5 c 128,-1,18
 633 420 633 420 623 418.5 c 128,-1,19
 613 417 613 417 607 417 c 0,20,21
 593 417 593 417 580.5 427 c 128,-1,22
 568 437 568 437 568 466 c 0,23,24
 568 511 568 511 547.5 529 c 128,-1,25
 527 547 527 547 498 547 c 0,26,27
 478 547 478 547 459.5 530.5 c 128,-1,28
 441 514 441 514 427 483.5 c 128,-1,29
 413 453 413 453 405 410 c 128,-1,30
 397 367 397 367 397 314 c 0,31,32
 397 285 397 285 400.5 245 c 128,-1,33
 404 205 404 205 416 169 c 128,-1,34
 428 133 428 133 450 107.5 c 128,-1,35
 472 82 472 82 508 82 c 0,36,37
 537 82 537 82 553.5 96.5 c 128,-1,38
 570 111 570 111 577.5 132 c 128,-1,39
 585 153 585 153 586.5 175.5 c 128,-1,40
 588 198 588 198 587 214 c 256,41,42
 586 230 586 230 573.5 231.5 c 128,-1,43
 561 233 561 233 538 233 c 2,44,-1
 487 233 l 2,45,46
 481 233 481 233 476 239 c 128,-1,47
 471 245 471 245 468 253.5 c 128,-1,48
 465 262 465 262 463 271 c 128,-1,49
 461 280 461 280 461 286 c 0,50,51
 461 302 461 302 471.5 314.5 c 128,-1,52
 482 327 482 327 505 327 c 2,53,-1
 613 326 l 2,54,55
 644 326 644 326 669 306 c 128,-1,56
 694 286 694 286 694 249 c 0,57,58
 694 206 694 206 684.5 161 c 128,-1,59
 675 116 675 116 653 79 c 128,-1,60
 631 42 631 42 595 18.5 c 128,-1,61
 559 -5 559 -5 506 -5 c 0,0,1
411 58 m 0,62,63
 411 62 411 62 391 84 c 0,64,65
 382 93 382 93 373 106.5 c 128,-1,66
 364 120 364 120 356.5 133 c 128,-1,67
 349 146 349 146 344.5 157.5 c 128,-1,68
 340 169 340 169 340 173 c 0,69,70
 340 178 340 178 337 179.5 c 128,-1,71
 334 181 334 181 333 181 c 0,72,73
 325 181 325 181 325 170 c 256,74,75
 325 159 325 159 334 139 c 128,-1,76
 343 119 343 119 355.5 99.5 c 128,-1,77
 368 80 368 80 381.5 66 c 128,-1,78
 395 52 395 52 405 52 c 0,79,80
 411 52 411 52 411 58 c 0,62,63
434 45 m 0,81,82
 434 52 434 52 427 52 c 0,83,84
 423 52 423 52 421.5 49 c 128,-1,85
 420 46 420 46 420 44 c 0,86,87
 420 39 420 39 422.5 38 c 128,-1,88
 425 37 425 37 427 37 c 0,89,90
 434 37 434 37 434 45 c 0,81,82
EndSplineSet
EndChar

StartChar: h
Encoding: 104 104 74
Width: 973
Flags: W
LayerCount: 2
Fore
SplineSet
359.009765625 0 m 0,0,1
 334.009765625 0 334.009765625 0 324.009765625 14.5 c 128,-1,2
 314.009765625 29 314.009765625 29 314.009765625 65 c 2,3,-1
 314.009765625 343 l 2,4,5
 314.009765625 434 314.009765625 434 312.009765625 518 c 0,6,7
 311.009765625 616 311.009765625 616 362.009765625 616 c 0,8,9
 381.009765625 616 381.009765625 616 399.009765625 606.5 c 128,-1,10
 417.009765625 597 417.009765625 597 417.009765625 571 c 2,11,-1
 417.009765625 358 l 2,12,13
 417.009765625 318 417.009765625 318 421.009765625 318 c 256,14,15
 425.009765625 318 425.009765625 318 430.009765625 334 c 128,-1,16
 435.009765625 350 435.009765625 350 447.009765625 369.5 c 128,-1,17
 459.009765625 389 459.009765625 389 481.009765625 405 c 128,-1,18
 503.009765625 421 503.009765625 421 539.009765625 421 c 0,19,20
 603.009765625 421 603.009765625 421 632.009765625 358 c 128,-1,21
 661.009765625 295 661.009765625 295 661.009765625 157 c 2,22,-1
 661.009765625 31 l 2,23,24
 661.009765625 0 661.009765625 0 605.009765625 0 c 0,25,26
 578.009765625 0 578.009765625 0 566.009765625 11.5 c 128,-1,27
 554.009765625 23 554.009765625 23 554.009765625 34 c 2,28,-1
 554.009765625 148 l 2,29,30
 554.009765625 200 554.009765625 200 551.009765625 232 c 128,-1,31
 548.009765625 264 548.009765625 264 542.009765625 282 c 128,-1,32
 536.009765625 300 536.009765625 300 526.509765625 306.5 c 128,-1,33
 517.009765625 313 517.009765625 313 503.009765625 313 c 0,34,35
 482.009765625 313 482.009765625 313 466.509765625 293.5 c 128,-1,36
 451.009765625 274 451.009765625 274 441.009765625 241 c 128,-1,37
 431.009765625 208 431.009765625 208 426.509765625 163.5 c 0,38,39
 422.009765625 123 422.009765625 123 422.009765625 121 c 2,40,-1
 422.009765625 45 l 2,41,42
 422.009765625 30 422.009765625 30 414.509765625 21 c 128,-1,43
 407.009765625 12 407.009765625 12 397.009765625 7.5 c 128,-1,44
 387.009765625 3 387.009765625 3 376.509765625 1.5 c 128,-1,45
 366.009765625 0 366.009765625 0 359.009765625 0 c 0,0,1
334.009765625 316 m 0,46,47
 337.009765625 316 337.009765625 316 339.009765625 328 c 128,-1,48
 341.009765625 340 341.009765625 340 343.009765625 355 c 128,-1,49
 345.009765625 370 345.009765625 370 346.009765625 482 c 128,-1,50
 347.009765625 594 347.009765625 594 347.009765625 595 c 0,51,52
 347.009765625 597 347.009765625 597 346.509765625 600 c 128,-1,53
 346.009765625 603 346.009765625 603 344.009765625 603 c 0,54,55
 339.009765625 603 339.009765625 603 335.509765625 595.5 c 128,-1,56
 332.009765625 588 332.009765625 588 330.009765625 479 c 128,-1,57
 328.009765625 370 328.009765625 370 327.009765625 360.5 c 128,-1,58
 326.009765625 351 326.009765625 351 326.009765625 348 c 0,59,60
 326.009765625 340 326.009765625 340 328.009765625 328 c 128,-1,61
 330.009765625 316 330.009765625 316 334.009765625 316 c 0,46,47
591.009765625 29 m 0,62,63
 591.009765625 35 591.009765625 35 589.009765625 38 c 128,-1,64
 587.009765625 41 587.009765625 41 584.509765625 43 c 128,-1,65
 582.009765625 45 582.009765625 45 580.009765625 49 c 128,-1,66
 578.009765625 53 578.009765625 53 578.009765625 60 c 0,67,68
 578.009765625 76 578.009765625 76 576.509765625 80 c 128,-1,69
 575.009765625 84 575.009765625 84 570.009765625 84 c 256,70,71
 565.009765625 84 565.009765625 84 563.509765625 76.5 c 128,-1,72
 562.009765625 69 562.009765625 69 562.009765625 59 c 0,73,74
 562.009765625 39 562.009765625 39 568.009765625 27 c 128,-1,75
 574.009765625 15 574.009765625 15 582.009765625 15 c 0,76,77
 585.009765625 15 585.009765625 15 588.009765625 18.5 c 128,-1,78
 591.009765625 22 591.009765625 22 591.009765625 29 c 0,62,63
358.009765625 26 m 0,79,80
 358.009765625 31 358.009765625 31 355.509765625 33.5 c 128,-1,81
 353.009765625 36 353.009765625 36 350.009765625 38.5 c 128,-1,82
 347.009765625 41 347.009765625 41 344.509765625 45 c 128,-1,83
 342.009765625 49 342.009765625 49 342.009765625 56 c 0,84,85
 342.009765625 77 342.009765625 77 335.009765625 77 c 0,86,87
 333.009765625 77 333.009765625 77 331.009765625 69.5 c 128,-1,88
 329.009765625 62 329.009765625 62 329.009765625 51 c 0,89,90
 329.009765625 36 329.009765625 36 335.509765625 24 c 128,-1,91
 342.009765625 12 342.009765625 12 350.009765625 12 c 0,92,93
 352.009765625 12 352.009765625 12 355.009765625 16 c 128,-1,94
 358.009765625 20 358.009765625 20 358.009765625 26 c 0,79,80
EndSplineSet
EndChar

StartChar: i
Encoding: 105 105 75
Width: 973
Flags: W
LayerCount: 2
Fore
SplineSet
478.174804688 -4 m 256,0,1
 454.174804688 -4 454.174804688 -4 441.174804688 6.5 c 128,-1,2
 428.174804688 17 428.174804688 17 428.174804688 32 c 2,3,-1
 428.174804688 387 l 2,4,5
 428.174804688 396 428.174804688 396 430.674804688 408 c 128,-1,6
 433.174804688 420 433.174804688 420 438.674804688 430 c 128,-1,7
 444.174804688 440 444.174804688 440 453.674804688 447 c 128,-1,8
 463.174804688 454 463.174804688 454 478.174804688 454 c 256,9,10
 493.174804688 454 493.174804688 454 503.674804688 448 c 128,-1,11
 514.174804688 442 514.174804688 442 520.674804688 433 c 128,-1,12
 527.174804688 424 527.174804688 424 530.674804688 413 c 128,-1,13
 534.174804688 402 534.174804688 402 534.174804688 392 c 2,14,-1
 534.174804688 32 l 2,15,16
 534.174804688 16 534.174804688 16 518.174804688 6 c 128,-1,17
 502.174804688 -4 502.174804688 -4 478.174804688 -4 c 256,0,1
446.174804688 357 m 0,18,19
 449.174804688 357 449.174804688 357 450.174804688 363 c 128,-1,20
 451.174804688 369 451.174804688 369 451.174804688 377.5 c 128,-1,21
 451.174804688 386 451.174804688 386 451.674804688 395.5 c 128,-1,22
 452.174804688 405 452.174804688 405 454.174804688 411 c 0,23,24
 455.174804688 415 455.174804688 415 457.174804688 422 c 128,-1,25
 459.174804688 429 459.174804688 429 456.174804688 429 c 0,26,27
 451.174804688 429 451.174804688 429 447.674804688 423.5 c 128,-1,28
 444.174804688 418 444.174804688 418 441.674804688 410.5 c 128,-1,29
 439.174804688 403 439.174804688 403 438.174804688 395.5 c 128,-1,30
 437.174804688 388 437.174804688 388 437.174804688 383 c 0,31,32
 437.174804688 374 437.174804688 374 439.174804688 365.5 c 128,-1,33
 441.174804688 357 441.174804688 357 446.174804688 357 c 0,18,19
481.641601562 523.2265625 m 4,34,35
 446.174804688 523 446.174804688 523 421.176757812 552.055664062 c 132,-1,36
 396.174804688 581 396.174804688 581 396.01953125 626.186523438 c 4,37,38
 396.174804688 651 396.174804688 651 403.522460938 673.033203125 c 4,39,40
 411.174804688 695 411.174804688 695 424.265625 711.12890625 c 4,41,42
 437.174804688 727 437.174804688 727 456.04296875 736.868164062 c 4,43,44
 474.174804688 747 474.174804688 747 496.647460938 746.649414062 c 4,45,46
 514.174804688 747 514.174804688 747 529.306640625 737.8984375 c 4,47,48
 544.174804688 729 544.174804688 729 554.90625 713.702148438 c 4,49,50
 565.174804688 698 565.174804688 698 571.235351562 678.696289062 c 4,51,52
 577.174804688 659 577.174804688 659 576.973632812 637.51171875 c 4,53,54
 577.174804688 610 577.174804688 610 569.469726562 588.606445312 c 4,55,56
 562.174804688 567 562.174804688 567 548.7265625 553.083984375 c 132,-1,57
 535.174804688 539 535.174804688 539 518.2734375 530.948242188 c 4,58,59
 500.174804688 523 500.174804688 523 481.641601562 523.2265625 c 4,34,35
448.981445312 701.34765625 m 4,60,61
 455.174804688 709 455.174804688 709 456.484375 713.702148438 c 4,62,63
 458.174804688 719 458.174804688 719 456.04296875 718.850585938 c 4,64,65
 449.174804688 719 449.174804688 719 441.037109375 711.12890625 c 4,66,67
 433.174804688 703 433.174804688 703 426.47265625 692.595703125 c 4,68,69
 420.174804688 682 420.174804688 682 415.439453125 669.4296875 c 4,70,71
 410.174804688 654 410.174804688 654 411.025390625 646.778320312 c 4,72,73
 411.174804688 645 411.174804688 645 412.348632812 638.541015625 c 4,74,75
 413.174804688 632 413.174804688 632 416.322265625 632.36328125 c 4,76,77
 420.174804688 633 420.174804688 633 425.1484375 655.015625 c 4,78,79
 428.174804688 669 428.174804688 669 434.858398438 681.26953125 c 4,80,81
 441.174804688 693 441.174804688 693 448.981445312 701.34765625 c 4,60,61
485.171875 581.913085938 m 4,82,83
 496.174804688 582 496.174804688 582 510.329101562 596.328125 c 4,84,85
 525.174804688 611 525.174804688 611 524.893554688 637.51171875 c 4,86,87
 525.174804688 658 525.174804688 658 515.625976562 672.002929688 c 132,-1,88
 506.174804688 686 506.174804688 686 491.350585938 685.903320312 c 260,89,90
 476.174804688 686 476.174804688 686 463.987304688 672.002929688 c 4,91,92
 451.174804688 657 451.174804688 657 451.62890625 633.393554688 c 260,93,94
 452.174804688 609 452.174804688 609 461.338867188 595.298828125 c 4,95,96
 471.174804688 582 471.174804688 582 485.171875 581.913085938 c 4,82,83
EndSplineSet


EndChar

StartChar: j
Encoding: 106 106 76
Width: 973
Flags: W
LayerCount: 2
Fore
SplineSet
522.5 559 m 256,0,1
 496.5 559 496.5 559 480.5 574.5 c 128,-1,2
 464.5 590 464.5 590 464.5 616 c 0,3,4
 464.5 643 464.5 643 481 660 c 128,-1,5
 497.5 677 497.5 677 524.5 677 c 256,6,7
 551.5 677 551.5 677 568.5 661.5 c 128,-1,8
 585.5 646 585.5 646 585.5 621 c 0,9,10
 585.5 595 585.5 595 567 577 c 128,-1,11
 548.5 559 548.5 559 522.5 559 c 256,0,1
490.5 618 m 0,12,13
 492.5 627 492.5 627 496 631.5 c 128,-1,14
 499.5 636 499.5 636 503.5 638.5 c 128,-1,15
 507.5 641 507.5 641 510.5 643.5 c 128,-1,16
 513.5 646 513.5 646 513.5 650 c 0,17,18
 513.5 660 513.5 660 503.5 660 c 0,19,20
 491.5 660 491.5 660 483.5 646.5 c 128,-1,21
 475.5 633 475.5 633 475.5 618 c 0,22,23
 475.5 611 475.5 611 477 601.5 c 128,-1,24
 478.5 592 478.5 592 484.5 592 c 0,25,26
 489.5 592 489.5 592 489.5 603.5 c 128,-1,27
 489.5 615 489.5 615 490.5 618 c 0,12,13
577.5 82 m 2,28,29
 577.5 35 577.5 35 571 -3.5 c 128,-1,30
 564.5 -42 564.5 -42 549.5 -69.5 c 128,-1,31
 534.5 -97 534.5 -97 509 -112 c 128,-1,32
 483.5 -127 483.5 -127 444.5 -127 c 0,33,34
 413.5 -127 413.5 -127 400.5 -113.5 c 128,-1,35
 387.5 -100 387.5 -100 387.5 -72 c 0,36,37
 387.5 -56 387.5 -56 392.5 -38.5 c 128,-1,38
 397.5 -21 397.5 -21 411.5 -21 c 0,39,40
 418.5 -21 418.5 -21 425 -23.5 c 128,-1,41
 431.5 -26 431.5 -26 439.5 -26 c 0,42,43
 455.5 -26 455.5 -26 463.5 -3 c 128,-1,44
 471.5 20 471.5 20 471.5 82 c 2,45,-1
 471.5 439 l 2,46,47
 471.5 448 471.5 448 474 460 c 128,-1,48
 476.5 472 476.5 472 482 482 c 128,-1,49
 487.5 492 487.5 492 497 499 c 128,-1,50
 506.5 506 506.5 506 521.5 506 c 256,51,52
 536.5 506 536.5 506 547 500 c 128,-1,53
 557.5 494 557.5 494 564 485 c 128,-1,54
 570.5 476 570.5 476 574 465 c 128,-1,55
 577.5 454 577.5 454 577.5 444 c 2,56,-1
 577.5 82 l 2,28,29
489.5 409 m 0,57,58
 492.5 409 492.5 409 493.5 415 c 128,-1,59
 494.5 421 494.5 421 494.5 429.5 c 128,-1,60
 494.5 438 494.5 438 495 447.5 c 128,-1,61
 495.5 457 495.5 457 497.5 463 c 0,62,63
 498.5 467 498.5 467 500.5 474 c 128,-1,64
 502.5 481 502.5 481 499.5 481 c 0,65,66
 494.5 481 494.5 481 491 475.5 c 128,-1,67
 487.5 470 487.5 470 485 462.5 c 128,-1,68
 482.5 455 482.5 455 481.5 447.5 c 128,-1,69
 480.5 440 480.5 440 480.5 435 c 0,70,71
 480.5 426 480.5 426 482.5 417.5 c 128,-1,72
 484.5 409 484.5 409 489.5 409 c 0,57,58
431.5 -103 m 0,73,74
 431.5 -91 431.5 -91 423 -83 c 128,-1,75
 414.5 -75 414.5 -75 414.5 -66 c 0,76,77
 414.5 -52 414.5 -52 412 -47.5 c 128,-1,78
 409.5 -43 409.5 -43 405.5 -43 c 0,79,80
 402.5 -43 402.5 -43 401 -49.5 c 128,-1,81
 399.5 -56 399.5 -56 399.5 -64 c 0,82,83
 399.5 -83 399.5 -83 406.5 -97 c 128,-1,84
 413.5 -111 413.5 -111 421.5 -111 c 0,85,86
 424.5 -111 424.5 -111 428 -109.5 c 128,-1,87
 431.5 -108 431.5 -108 431.5 -103 c 0,73,74
EndSplineSet


EndChar

StartChar: k
Encoding: 107 107 77
Width: 973
Flags: W
LayerCount: 2
Fore
SplineSet
532.5 -11 m 0,0,1
 478.5 -11 478.5 -11 444 14.5 c 128,-1,2
 409.5 40 409.5 40 388.5 77 c 1,3,4
 363.5 31 363.5 31 330.5 10 c 128,-1,5
 297.5 -11 297.5 -11 248.5 -11 c 0,6,7
 223.5 -11 223.5 -11 196 -3.5 c 128,-1,8
 168.5 4 168.5 4 144 24 c 128,-1,9
 119.5 44 119.5 44 104 79.5 c 128,-1,10
 88.5 115 88.5 115 88.5 170 c 0,11,12
 88.5 181 88.5 181 90 192.5 c 128,-1,13
 91.5 204 91.5 204 93.5 214 c 1,14,-1
 155.5 214 l 1,15,16
 154.5 207 154.5 207 154 200.5 c 128,-1,17
 153.5 194 153.5 194 153.5 187 c 0,18,19
 153.5 151 153.5 151 161.5 122.5 c 128,-1,20
 169.5 94 169.5 94 191.5 77 c 128,-1,21
 213.5 60 213.5 60 253.5 60 c 0,22,23
 287.5 60 287.5 60 310 76 c 128,-1,24
 332.5 92 332.5 92 344 125 c 128,-1,25
 355.5 158 355.5 158 355.5 208 c 2,26,-1
 355.5 214 l 1,27,-1
 422.5 214 l 1,28,-1
 422.5 204 l 2,29,30
 422.5 140 422.5 140 449 100 c 128,-1,31
 475.5 60 475.5 60 527.5 60 c 0,32,33
 566.5 60 566.5 60 589 78 c 128,-1,34
 611.5 96 611.5 96 621 125.5 c 128,-1,35
 630.5 155 630.5 155 630.5 191 c 0,36,37
 630.5 280 630.5 280 576 330 c 128,-1,38
 521.5 380 521.5 380 410.5 380 c 0,39,40
 364.5 380 364.5 380 329.5 376.5 c 128,-1,41
 294.5 373 294.5 373 259 363 c 128,-1,42
 223.5 353 223.5 353 176.5 334 c 1,43,-1
 273.5 415 l 2,44,45
 286.5 424 286.5 424 307.5 431.5 c 128,-1,46
 328.5 439 328.5 439 358 443.5 c 128,-1,47
 387.5 448 387.5 448 424.5 448 c 0,48,49
 509.5 448 509.5 448 572 419 c 128,-1,50
 634.5 390 634.5 390 669 333.5 c 128,-1,51
 703.5 277 703.5 277 703.5 192 c 0,52,53
 703.5 136 703.5 136 684 89.5 c 128,-1,54
 664.5 43 664.5 43 626.5 16 c 128,-1,55
 588.5 -11 588.5 -11 532.5 -11 c 0,0,1
731.5 -3 m 0,56,57
 721.5 -3 721.5 -3 709.5 -2 c 128,-1,58
 697.5 -1 697.5 -1 687.5 0 c 1,59,-1
 691.5 68 l 1,60,61
 698.5 67 698.5 67 706.5 66.5 c 128,-1,62
 714.5 66 714.5 66 722.5 66 c 0,63,64
 767.5 66 767.5 66 799 83.5 c 128,-1,65
 830.5 101 830.5 101 849.5 130.5 c 128,-1,66
 868.5 160 868.5 160 877.5 198.5 c 128,-1,67
 886.5 237 886.5 237 886.5 279 c 0,68,69
 886.5 366 886.5 366 854 424 c 128,-1,70
 821.5 482 821.5 482 762.5 511.5 c 128,-1,71
 703.5 541 703.5 541 623.5 541 c 0,72,73
 555.5 541 555.5 541 497.5 527.5 c 128,-1,74
 439.5 514 439.5 514 389.5 487 c 128,-1,75
 339.5 460 339.5 460 295.5 419 c 2,76,-1
 284.5 410 l 2,77,78
 257.5 383 257.5 383 230 351 c 128,-1,79
 202.5 319 202.5 319 175 283.5 c 128,-1,80
 147.5 248 147.5 248 119.5 208 c 1,81,-1
 100.5 188 l 1,82,-1
 75.5 144 l 1,83,-1
 11.5 180 l 1,84,85
 61.5 251 61.5 251 101 301.5 c 128,-1,86
 140.5 352 140.5 352 175.5 390.5 c 128,-1,87
 210.5 429 210.5 429 246.5 461 c 2,88,-1
 267.5 479 l 2,89,90
 327.5 530 327.5 530 383 559 c 128,-1,91
 438.5 588 438.5 588 498.5 600 c 128,-1,92
 558.5 612 558.5 612 630.5 612 c 0,93,94
 740.5 612 740.5 612 814 570.5 c 128,-1,95
 887.5 529 887.5 529 924.5 454 c 128,-1,96
 961.5 379 961.5 379 961.5 280 c 0,97,98
 961.5 192 961.5 192 932 128.5 c 128,-1,99
 902.5 65 902.5 65 850.5 31 c 128,-1,100
 798.5 -3 798.5 -3 731.5 -3 c 0,56,57
157.5 592 m 0,101,102
 206.5 592 206.5 592 236.5 568 c 128,-1,103
 266.5 544 266.5 544 282 508 c 128,-1,104
 297.5 472 297.5 472 300.5 434 c 1,105,-1
 242.5 398 l 1,106,107
 238.5 432 238.5 432 230 461 c 128,-1,108
 221.5 490 221.5 490 204.5 508 c 128,-1,109
 187.5 526 187.5 526 158.5 526 c 0,110,111
 130.5 526 130.5 526 113 510 c 128,-1,112
 95.5 494 95.5 494 95.5 459 c 0,113,114
 95.5 443 95.5 443 99 429.5 c 128,-1,115
 102.5 416 102.5 416 106.5 403 c 1,116,-1
 36.5 389 l 1,117,118
 30.5 409 30.5 409 27 429.5 c 128,-1,119
 23.5 450 23.5 450 23.5 467 c 0,120,121
 23.5 508 23.5 508 40 535.5 c 128,-1,122
 56.5 563 56.5 563 87 577.5 c 128,-1,123
 117.5 592 117.5 592 157.5 592 c 0,101,102
EndSplineSet
EndChar

StartChar: l
Encoding: 108 108 78
Width: 973
Flags: W
LayerCount: 2
Fore
SplineSet
505.5 -204 m 0,0,1
 363.5 -204 363.5 -204 273 -154 c 128,-1,2
 182.5 -104 182.5 -104 139 -15.5 c 128,-1,3
 95.5 73 95.5 73 95.5 189 c 0,4,5
 95.5 287 95.5 287 126 365 c 128,-1,6
 156.5 443 156.5 443 214.5 498 c 128,-1,7
 272.5 553 272.5 553 354.5 582.5 c 128,-1,8
 436.5 612 436.5 612 539.5 612 c 0,9,10
 629.5 612 629.5 612 692.5 594 c 128,-1,11
 755.5 576 755.5 576 794.5 544.5 c 128,-1,12
 833.5 513 833.5 513 851 470.5 c 128,-1,13
 868.5 428 868.5 428 868.5 379 c 0,14,15
 868.5 326 868.5 326 845 284 c 128,-1,16
 821.5 242 821.5 242 774 218.5 c 128,-1,17
 726.5 195 726.5 195 655.5 195 c 0,18,19
 590.5 195 590.5 195 552.5 213 c 128,-1,20
 514.5 231 514.5 231 498.5 262.5 c 128,-1,21
 482.5 294 482.5 294 482.5 333 c 0,22,23
 482.5 349 482.5 349 487.5 365.5 c 128,-1,24
 492.5 382 492.5 382 499.5 396 c 1,25,-1
 542.5 374 l 1,26,-1
 500.5 367 l 1,27,-1
 335.5 367 l 1,28,-1
 335.5 434 l 1,29,-1
 708.5 434 l 1,30,-1
 708.5 367 l 1,31,-1
 527.5 367 l 1,32,-1
 588.5 398 l 1,33,34
 572.5 383 572.5 383 564 367.5 c 128,-1,35
 555.5 352 555.5 352 555.5 334 c 256,36,37
 555.5 316 555.5 316 564 300 c 128,-1,38
 572.5 284 572.5 284 594 274 c 128,-1,39
 615.5 264 615.5 264 654.5 264 c 0,40,41
 722.5 264 722.5 264 758 294 c 128,-1,42
 793.5 324 793.5 324 793.5 378 c 0,43,44
 793.5 426 793.5 426 771 463.5 c 128,-1,45
 748.5 501 748.5 501 693.5 522.5 c 128,-1,46
 638.5 544 638.5 544 542.5 544 c 0,47,48
 418.5 544 418.5 544 335.5 499.5 c 128,-1,49
 252.5 455 252.5 455 211.5 375 c 128,-1,50
 170.5 295 170.5 295 170.5 187 c 0,51,52
 170.5 83 170.5 83 211 11.5 c 128,-1,53
 251.5 -60 251.5 -60 326.5 -96 c 128,-1,54
 401.5 -132 401.5 -132 503.5 -132 c 0,55,56
 586.5 -132 586.5 -132 655 -105.5 c 128,-1,57
 723.5 -79 723.5 -79 764 -22.5 c 128,-1,58
 804.5 34 804.5 34 804.5 124 c 0,59,60
 804.5 129 804.5 129 804.5 141 c 128,-1,61
 804.5 153 804.5 153 802.5 162 c 1,62,-1
 874.5 166 l 1,63,64
 876.5 155 876.5 155 877 144.5 c 128,-1,65
 877.5 134 877.5 134 877.5 123 c 0,66,67
 877.5 38 877.5 38 847.5 -23.5 c 128,-1,68
 817.5 -85 817.5 -85 765 -125 c 128,-1,69
 712.5 -165 712.5 -165 646 -184.5 c 128,-1,70
 579.5 -204 579.5 -204 505.5 -204 c 0,0,1
EndSplineSet
EndChar

StartChar: m
Encoding: 109 109 79
Width: 973
Flags: W
LayerCount: 2
Fore
SplineSet
460 -11 m 0,0,1
 341 -11 341 -11 260.5 32.5 c 128,-1,2
 180 76 180 76 139.5 152.5 c 128,-1,3
 99 229 99 229 99 329 c 0,4,5
 99 409 99 409 122.5 464 c 128,-1,6
 146 519 146 519 186.5 547.5 c 128,-1,7
 227 576 227 576 278 576 c 0,8,9
 312 576 312 576 330.5 563 c 128,-1,10
 349 550 349 550 356.5 532 c 128,-1,11
 364 514 364 514 364 498 c 0,12,13
 364 470 364 470 358.5 445 c 128,-1,14
 353 420 353 420 353 385 c 0,15,16
 353 346 353 346 378.5 320 c 128,-1,17
 404 294 404 294 466 294 c 0,18,19
 505 294 505 294 534.5 306.5 c 128,-1,20
 564 319 564 319 580.5 345.5 c 128,-1,21
 597 372 597 372 597 414 c 0,22,23
 597 460 597 460 576 486 c 128,-1,24
 555 512 555 512 519 512 c 0,25,26
 491 512 491 512 475.5 500 c 128,-1,27
 460 488 460 488 460 464 c 0,28,29
 460 442 460 442 475 429 c 128,-1,30
 490 416 490 416 516 416 c 0,31,32
 548 416 548 416 571 425 c 128,-1,33
 594 434 594 434 621 455 c 1,34,-1
 634 410 l 1,35,36
 610 388 610 388 581.5 371 c 128,-1,37
 553 354 553 354 505 354 c 0,38,39
 450 354 450 354 420 384.5 c 128,-1,40
 390 415 390 415 390 464 c 0,41,42
 390 493 390 493 403.5 518.5 c 128,-1,43
 417 544 417 544 446 560 c 128,-1,44
 475 576 475 576 521 576 c 0,45,46
 556 576 556 576 589 560.5 c 128,-1,47
 622 545 622 545 643.5 509.5 c 128,-1,48
 665 474 665 474 665 413 c 0,49,50
 665 357 665 357 640.5 315.5 c 128,-1,51
 616 274 616 274 572 251.5 c 128,-1,52
 528 229 528 229 467 229 c 0,53,54
 399 229 399 229 358.5 250.5 c 128,-1,55
 318 272 318 272 300.5 307 c 128,-1,56
 283 342 283 342 283 382 c 0,57,58
 283 411 283 411 287.5 433.5 c 128,-1,59
 292 456 292 456 292 475 c 0,60,61
 292 489 292 489 287 499.5 c 128,-1,62
 282 510 282 510 264 510 c 0,63,64
 238 510 238 510 216.5 489 c 128,-1,65
 195 468 195 468 183 429 c 128,-1,66
 171 390 171 390 171 335 c 0,67,68
 171 246 171 246 205 184.5 c 128,-1,69
 239 123 239 123 304.5 91.5 c 128,-1,70
 370 60 370 60 462 60 c 0,71,72
 558 60 558 60 622.5 88 c 128,-1,73
 687 116 687 116 726 165 c 128,-1,74
 765 214 765 214 782 277 c 128,-1,75
 799 340 799 340 799 409 c 0,76,77
 799 513 799 513 768.5 582.5 c 128,-1,78
 738 652 738 652 687 692 c 128,-1,79
 636 732 636 732 575 749 c 128,-1,80
 514 766 514 766 454 766 c 0,81,82
 386 766 386 766 333 756 c 128,-1,83
 280 746 280 746 234.5 727.5 c 128,-1,84
 189 709 189 709 143 683 c 1,85,-1
 112 749 l 1,86,87
 159 775 159 775 212 794.5 c 128,-1,88
 265 814 265 814 325.5 825 c 128,-1,89
 386 836 386 836 454 836 c 0,90,91
 538 836 538 836 613.5 812 c 128,-1,92
 689 788 689 788 747.5 736.5 c 128,-1,93
 806 685 806 685 840 603.5 c 128,-1,94
 874 522 874 522 874 407 c 0,95,96
 874 319 874 319 850.5 243 c 128,-1,97
 827 167 827 167 777.5 110 c 128,-1,98
 728 53 728 53 649.5 21 c 128,-1,99
 571 -11 571 -11 460 -11 c 0,0,1
EndSplineSet
EndChar

StartChar: n
Encoding: 110 110 80
Width: 973
Flags: W
LayerCount: 2
Fore
SplineSet
385 -11 m 0,0,1
 300 -11 300 -11 227.5 19 c 128,-1,2
 155 49 155 49 105 117 c 128,-1,3
 55 185 55 185 37 300 c 1,4,-1
 107 312 l 1,5,6
 123 224 123 224 157.5 168.5 c 128,-1,7
 192 113 192 113 248.5 86.5 c 128,-1,8
 305 60 305 60 387 60 c 0,9,10
 456 60 456 60 503 80.5 c 128,-1,11
 550 101 550 101 574.5 139.5 c 128,-1,12
 599 178 599 178 599 231 c 0,13,14
 599 285 599 285 575.5 317.5 c 128,-1,15
 552 350 552 350 511 365 c 128,-1,16
 470 380 470 380 419 380 c 0,17,18
 385 380 385 380 359 377.5 c 128,-1,19
 333 375 333 375 307 368 c 1,20,-1
 312 420 l 1,21,22
 331 429 331 429 361 438.5 c 128,-1,23
 391 448 391 448 437 448 c 0,24,25
 511 448 511 448 563.5 423 c 128,-1,26
 616 398 616 398 644 349 c 128,-1,27
 672 300 672 300 672 229 c 0,28,29
 672 185 672 185 657.5 142 c 128,-1,30
 643 99 643 99 610.5 64.5 c 128,-1,31
 578 30 578 30 522.5 9.5 c 128,-1,32
 467 -11 467 -11 385 -11 c 0,0,1
690 -3 m 0,33,34
 677 -3 677 -3 666.5 -2.5 c 128,-1,35
 656 -2 656 -2 643 -1 c 1,36,-1
 647 68 l 1,37,38
 653 67 653 67 664.5 66.5 c 128,-1,39
 676 66 676 66 681 66 c 0,40,41
 746 66 746 66 785.5 96 c 128,-1,42
 825 126 825 126 843 176.5 c 128,-1,43
 861 227 861 227 861 288 c 0,44,45
 861 370 861 370 828 426.5 c 128,-1,46
 795 483 795 483 736.5 512 c 128,-1,47
 678 541 678 541 601 541 c 0,48,49
 543 541 543 541 498.5 523.5 c 128,-1,50
 454 506 454 506 421 476.5 c 128,-1,51
 388 447 388 447 364 410 c 1,52,-1
 372 392 l 1,53,54
 350 317 350 317 312.5 277.5 c 128,-1,55
 275 238 275 238 226.5 224 c 128,-1,56
 178 210 178 210 122 210 c 0,57,58
 112 210 112 210 96.5 212.5 c 128,-1,59
 81 215 81 215 69 221 c 1,60,-1
 70 286 l 1,61,62
 84 282 84 282 102.5 280 c 128,-1,63
 121 278 121 278 133 278 c 0,64,65
 170 278 170 278 204.5 289 c 128,-1,66
 239 300 239 300 268 335 c 128,-1,67
 297 370 297 370 316 443 c 1,68,-1
 326 467 l 1,69,70
 351 504 351 504 389.5 537 c 128,-1,71
 428 570 428 570 481.5 591 c 128,-1,72
 535 612 535 612 603 612 c 0,73,74
 711 612 711 612 785 571 c 128,-1,75
 859 530 859 530 897.5 457.5 c 128,-1,76
 936 385 936 385 936 289 c 256,77,78
 936 193 936 193 903 128 c 128,-1,79
 870 63 870 63 814.5 30 c 128,-1,80
 759 -3 759 -3 690 -3 c 0,33,34
219 592 m 0,81,82
 268 592 268 592 297.5 568.5 c 128,-1,83
 327 545 327 545 341.5 509 c 128,-1,84
 356 473 356 473 359 434 c 1,85,-1
 304 398 l 1,86,87
 300 432 300 432 291.5 461 c 128,-1,88
 283 490 283 490 266 508 c 128,-1,89
 249 526 249 526 220 526 c 0,90,91
 192 526 192 526 174.5 510 c 128,-1,92
 157 494 157 494 157 459 c 0,93,94
 157 443 157 443 160.5 429.5 c 128,-1,95
 164 416 164 416 168 403 c 1,96,-1
 98 389 l 1,97,98
 92 409 92 409 88.5 429.5 c 128,-1,99
 85 450 85 450 85 467 c 0,100,101
 85 508 85 508 101.5 535.5 c 128,-1,102
 118 563 118 563 148.5 577.5 c 128,-1,103
 179 592 179 592 219 592 c 0,81,82
EndSplineSet
EndChar

